{"glyphs":{"0":{"ha":663,"x_min":49,"x_max":614,"o":"m 333 -18 q 186 19 251 -18 q 85 123 121 57 q 49 272 49 189 q 85 418 49 354 q 186 518 121 482 q 335 554 251 554 q 479 517 415 554 q 578 415 543 481 q 614 268 614 350 q 578 121 614 186 q 478 19 542 56 q 333 -18 414 -18 m 349 1 q 474 68 432 1 q 517 251 517 135 q 461 463 517 390 q 321 535 406 535 q 191 465 238 535 q 144 283 144 396 q 200 81 144 160 q 349 1 256 1 z "},"1":{"ha":461,"x_min":63,"x_max":431,"o":"m 76 0 q 72 8 72 0 q 76 17 72 17 q 163 24 135 17 q 202 51 192 32 q 213 113 213 71 l 213 371 q 206 445 213 424 q 176 467 199 467 q 75 432 151 467 l 74 432 q 65 438 68 432 q 68 447 63 444 l 278 549 q 282 550 279 550 q 289 547 286 550 q 292 539 292 543 l 292 113 q 301 50 292 69 q 339 24 311 31 q 428 17 367 17 q 431 8 431 17 q 428 0 431 0 q 354 1 381 0 l 251 3 l 151 1 q 76 0 124 0 z "},"2":{"ha":558,"x_min":46,"x_max":518,"o":"m 51 21 q 240 183 174 119 q 336 297 307 247 q 365 396 365 347 q 331 488 365 453 q 243 524 297 524 q 85 353 133 524 q 79 350 85 350 q 71 352 75 350 q 68 356 67 354 l 122 567 q 128 569 122 569 q 135 567 132 569 q 138 564 139 565 q 136 549 136 558 q 157 526 136 526 q 200 536 168 526 q 300 554 257 554 q 412 516 371 554 q 453 417 453 478 q 422 319 453 368 q 330 216 390 271 q 161 78 269 161 q 158 71 156 74 q 167 68 161 68 q 379 72 319 68 q 465 94 439 76 q 503 158 492 113 q 511 162 504 163 q 518 157 518 161 l 497 15 q 494 5 497 10 q 485 0 490 0 l 61 0 q 50 8 54 0 q 51 21 46 15 z "},"3":{"ha":542,"x_min":44,"x_max":485,"o":"m 297 182 q 437 117 389 172 q 485 -12 485 61 q 440 -152 485 -81 q 305 -285 396 -224 q 81 -382 214 -346 q 73 -376 76 -383 q 75 -367 69 -368 q 313 -221 242 -315 q 385 -28 385 -126 q 346 99 385 47 q 228 150 307 150 q 161 142 189 150 q 153 149 156 140 q 156 158 151 157 q 309 236 264 186 q 354 372 354 286 q 324 483 354 443 q 233 524 294 524 q 129 483 172 524 q 61 358 86 443 q 56 357 61 357 q 46 363 44 357 l 97 565 q 103 568 97 568 q 111 566 107 568 q 114 563 115 564 q 111 547 111 551 q 135 524 111 524 q 176 533 147 524 q 279 554 233 554 q 400 508 357 554 q 443 396 443 461 q 404 269 443 328 q 297 182 365 210 z "},"4":{"ha":626,"x_min":26,"x_max":581,"o":"m 574 61 q 578 52 576 61 q 581 32 581 43 q 578 11 581 21 q 574 1 576 1 q 457 7 532 4 l 457 -212 q 446 -232 457 -228 l 388 -261 q 379 -264 379 -264 q 375 -253 375 -264 l 375 8 q 40 11 288 11 q 30 17 33 11 q 31 28 26 22 l 436 550 q 444 553 439 553 q 453 551 449 553 q 457 544 457 549 l 457 58 q 574 61 490 58 m 108 53 q 375 56 228 53 l 375 413 l 101 63 q 101 56 99 58 q 108 53 103 53 z "},"5":{"ha":568,"x_min":79,"x_max":496,"o":"m 165 451 q 144 432 147 451 l 117 272 q 398 201 308 271 q 488 13 488 132 q 447 -131 488 -67 q 322 -256 407 -196 q 94 -382 236 -317 l 93 -382 q 84 -376 88 -382 q 86 -367 81 -369 q 326 -195 257 -282 q 396 -11 396 -108 q 318 168 396 104 q 94 232 240 232 q 83 237 88 232 q 81 249 79 242 l 125 496 q 129 508 126 506 q 143 511 132 510 q 378 540 318 532 q 455 558 438 549 q 479 588 472 567 q 488 591 481 592 q 494 585 496 590 l 467 482 q 453 463 461 467 q 428 458 446 458 l 165 451 z "},"6":{"ha":646,"x_min":65,"x_max":597,"o":"m 415 393 q 553 343 508 393 q 597 221 597 293 q 560 101 597 156 q 459 14 522 46 q 319 -18 396 -18 q 133 63 201 -18 q 65 289 65 143 q 124 543 65 418 q 294 767 183 668 q 556 918 406 865 q 564 913 561 919 q 563 903 567 906 q 339 747 431 843 q 201 537 247 650 q 154 313 154 424 q 178 158 154 228 q 249 49 203 89 q 358 8 296 8 q 467 56 426 8 q 508 185 508 103 q 473 307 508 260 q 367 354 438 354 q 299 339 331 354 q 229 289 268 324 l 226 288 q 218 292 222 288 q 215 299 214 297 q 415 393 290 393 z "},"7":{"ha":596,"x_min":31,"x_max":546,"o":"m 226 -303 q 215 -323 222 -315 q 197 -337 207 -331 l 126 -382 q 119 -379 124 -383 q 117 -372 115 -375 l 488 456 q 481 465 492 465 q 194 460 274 465 q 88 437 114 454 q 49 372 63 419 q 42 368 49 368 q 34 370 38 368 q 32 375 31 372 l 81 574 q 90 576 82 576 q 97 572 99 575 q 96 558 96 567 q 109 540 96 544 q 163 536 122 536 l 531 536 q 541 530 536 536 q 543 518 546 524 l 226 -303 z "},"8":{"ha":679,"x_min":65,"x_max":631,"o":"m 411 479 q 526 409 482 440 q 600 332 569 378 q 631 225 631 286 q 590 101 631 157 q 483 14 550 46 q 336 -18 415 -18 q 195 13 257 -18 q 99 97 133 44 q 65 207 65 149 q 124 360 65 289 q 268 469 182 431 q 176 542 208 504 q 143 631 143 579 q 176 722 143 685 q 260 778 210 760 q 361 797 310 797 q 458 776 417 797 q 523 721 500 754 q 546 654 546 688 q 509 565 546 613 q 411 479 472 517 m 221 672 q 265 574 221 614 q 394 488 308 533 q 449 558 432 522 q 467 638 467 594 q 428 734 467 693 q 339 775 389 775 q 252 748 283 775 q 221 672 221 721 m 375 7 q 499 54 450 7 q 549 181 549 101 q 517 292 549 246 q 442 369 486 339 q 325 439 399 399 q 288 458 313 444 q 190 368 224 424 q 156 244 156 313 q 183 128 156 182 q 261 40 211 74 q 375 7 311 7 z "},"9":{"ha":646,"x_min":49,"x_max":582,"o":"m 246 143 q 133 172 178 143 q 69 247 89 201 q 49 339 49 292 q 82 450 49 401 q 173 526 115 499 q 301 554 231 554 q 506 465 431 554 q 582 229 582 376 q 523 -20 582 103 q 352 -240 464 -143 q 90 -382 240 -336 q 83 -376 86 -383 q 85 -367 79 -369 q 307 -219 215 -314 q 445 -14 399 -125 q 492 203 492 97 q 470 351 492 276 q 401 478 449 426 q 279 529 353 529 q 176 485 214 529 q 139 365 139 442 q 178 233 139 286 q 290 181 217 181 q 353 193 325 181 q 417 233 381 206 q 421 235 418 235 q 429 231 425 235 q 432 224 433 226 q 246 143 363 143 z "}," ":{"ha":325,"x_min":0,"x_max":0,"o":""},"A":{"ha":900,"x_min":-17,"x_max":907,"o":"m 901 17 q 907 8 907 17 q 901 0 907 0 q 832 3 879 0 q 746 6 779 6 q 665 3 715 6 q 597 0 621 0 q 592 8 592 0 q 597 17 592 17 q 668 26 647 17 q 689 61 689 36 q 676 117 689 82 l 550 458 l 318 458 l 206 183 q 179 83 179 118 q 206 31 179 44 q 289 17 233 17 q 293 15 292 17 q 294 10 294 13 q 292 3 294 7 q 286 0 290 0 q 219 3 269 0 q 131 6 161 6 q 53 3 97 6 q -11 0 14 0 q -17 8 -17 0 q -11 17 -17 17 q 77 53 33 17 q 157 172 121 89 l 457 882 q 469 886 460 886 q 486 881 482 886 l 767 117 q 796 54 783 74 q 832 26 808 35 q 901 17 856 17 m 539 488 l 440 756 l 331 488 l 539 488 z "},"Á":{"ha":900,"x_min":-17,"x_max":907,"o":"m 901 17 q 907 8 907 17 q 901 0 907 0 q 832 3 879 0 q 746 6 779 6 q 665 3 715 6 q 597 0 621 0 q 592 8 592 0 q 597 17 592 17 q 668 26 647 17 q 689 61 689 36 q 676 117 689 82 l 550 458 l 318 458 l 206 183 q 179 83 179 118 q 206 31 179 44 q 289 17 233 17 q 293 15 292 17 q 294 10 294 13 q 292 3 294 7 q 286 0 290 0 q 219 3 269 0 q 131 6 161 6 q 53 3 97 6 q -11 0 14 0 q -17 8 -17 0 q -11 17 -17 17 q 77 53 33 17 q 157 172 121 89 l 457 882 q 469 886 460 886 q 486 881 482 886 l 767 117 q 796 54 783 74 q 832 26 808 35 q 901 17 856 17 m 539 488 l 440 756 l 331 488 l 539 488 m 385 942 q 376 948 379 942 q 378 957 374 954 q 515 1046 428 985 q 552 1069 536 1058 q 579 1089 568 1081 q 614 1084 585 1093 q 665 1064 643 1075 q 676 1050 686 1053 q 388 943 528 1011 l 385 942 z "},"Ă":{"ha":900,"x_min":-17,"x_max":907,"o":"m 901 17 q 907 8 907 17 q 901 0 907 0 q 832 3 879 0 q 746 6 779 6 q 665 3 715 6 q 597 0 621 0 q 592 8 592 0 q 597 17 592 17 q 668 26 647 17 q 689 61 689 36 q 676 117 689 82 l 550 458 l 318 458 l 206 183 q 179 83 179 118 q 206 31 179 44 q 289 17 233 17 q 293 15 292 17 q 294 10 294 13 q 292 3 294 7 q 286 0 290 0 q 219 3 269 0 q 131 6 161 6 q 53 3 97 6 q -11 0 14 0 q -17 8 -17 0 q -11 17 -17 17 q 77 53 33 17 q 157 172 121 89 l 457 882 q 469 886 460 886 q 486 881 482 886 l 767 117 q 796 54 783 74 q 832 26 808 35 q 901 17 856 17 m 539 488 l 440 756 l 331 488 l 539 488 m 458 924 q 376 956 413 924 q 329 1044 340 988 q 347 1060 328 1053 q 382 1067 365 1067 q 396 1063 396 1067 q 432 999 407 1021 q 486 976 457 976 q 539 998 514 976 q 575 1058 564 1019 q 582 1063 576 1063 q 593 1059 588 1063 q 599 1053 599 1056 q 544 957 583 990 q 458 924 504 924 z "},"Ắ":{"ha":900,"x_min":-17,"x_max":907,"o":"m 901 17 q 907 8 907 17 q 901 0 907 0 q 832 3 879 0 q 746 6 779 6 q 665 3 715 6 q 597 0 621 0 q 592 8 592 0 q 597 17 592 17 q 668 26 647 17 q 689 61 689 36 q 676 117 689 82 l 550 458 l 318 458 l 206 183 q 179 83 179 118 q 206 31 179 44 q 289 17 233 17 q 293 15 292 17 q 294 10 294 13 q 292 3 294 7 q 286 0 290 0 q 219 3 269 0 q 131 6 161 6 q 53 3 97 6 q -11 0 14 0 q -17 8 -17 0 q -11 17 -17 17 q 77 53 33 17 q 157 172 121 89 l 457 882 q 469 886 460 886 q 486 881 482 886 l 767 117 q 796 54 783 74 q 832 26 808 35 q 901 17 856 17 m 539 488 l 440 756 l 331 488 l 539 488 m 454 924 q 372 956 408 924 q 325 1044 336 988 q 342 1060 324 1053 q 378 1067 361 1067 q 392 1063 392 1067 q 428 999 403 1021 q 482 976 453 976 q 535 998 510 976 q 571 1058 560 1019 q 578 1063 572 1063 q 589 1059 583 1063 q 594 1053 594 1056 q 540 957 579 990 q 454 924 500 924 m 460 1046 q 452 1051 454 1046 q 453 1060 450 1057 q 558 1193 511 1124 q 590 1190 563 1199 q 638 1169 617 1182 q 649 1154 660 1157 q 463 1047 558 1118 l 460 1046 z "},"Ặ":{"ha":900,"x_min":-17,"x_max":907,"o":"m 901 17 q 907 8 907 17 q 901 0 907 0 q 832 3 879 0 q 746 6 779 6 q 665 3 715 6 q 597 0 621 0 q 592 8 592 0 q 597 17 592 17 q 668 26 647 17 q 689 61 689 36 q 676 117 689 82 l 550 458 l 318 458 l 206 183 q 179 83 179 118 q 206 31 179 44 q 289 17 233 17 q 293 15 292 17 q 294 10 294 13 q 292 3 294 7 q 286 0 290 0 q 219 3 269 0 q 131 6 161 6 q 53 3 97 6 q -11 0 14 0 q -17 8 -17 0 q -11 17 -17 17 q 77 53 33 17 q 157 172 121 89 l 457 882 q 469 886 460 886 q 486 881 482 886 l 767 117 q 796 54 783 74 q 832 26 808 35 q 901 17 856 17 m 539 488 l 440 756 l 331 488 l 539 488 m 464 -264 q 419 -248 435 -264 q 403 -203 403 -232 q 419 -161 403 -176 q 464 -146 435 -146 q 507 -161 492 -146 q 522 -203 522 -176 q 507 -248 522 -232 q 464 -264 492 -264 m 458 924 q 376 956 413 924 q 329 1044 340 988 q 347 1060 328 1053 q 382 1067 365 1067 q 396 1063 396 1067 q 432 999 407 1021 q 486 976 457 976 q 539 998 514 976 q 575 1058 564 1019 q 582 1063 576 1063 q 593 1059 588 1063 q 599 1053 599 1056 q 544 957 583 990 q 458 924 504 924 z "},"Ằ":{"ha":900,"x_min":-17,"x_max":907,"o":"m 901 17 q 907 8 907 17 q 901 0 907 0 q 832 3 879 0 q 746 6 779 6 q 665 3 715 6 q 597 0 621 0 q 592 8 592 0 q 597 17 592 17 q 668 26 647 17 q 689 61 689 36 q 676 117 689 82 l 550 458 l 318 458 l 206 183 q 179 83 179 118 q 206 31 179 44 q 289 17 233 17 q 293 15 292 17 q 294 10 294 13 q 292 3 294 7 q 286 0 290 0 q 219 3 269 0 q 131 6 161 6 q 53 3 97 6 q -11 0 14 0 q -17 8 -17 0 q -11 17 -17 17 q 77 53 33 17 q 157 172 121 89 l 457 882 q 469 886 460 886 q 486 881 482 886 l 767 117 q 796 54 783 74 q 832 26 808 35 q 901 17 856 17 m 539 488 l 440 756 l 331 488 l 539 488 m 461 924 q 379 956 415 924 q 332 1044 343 988 q 349 1060 331 1053 q 385 1067 368 1067 q 399 1063 399 1067 q 435 999 410 1021 q 489 976 460 976 q 542 998 517 976 q 578 1058 567 1019 q 585 1063 579 1063 q 596 1059 590 1063 q 601 1053 601 1056 q 547 957 586 990 q 461 924 507 924 m 517 1047 q 426 1108 468 1083 q 332 1154 383 1133 q 342 1169 321 1157 q 391 1190 364 1182 q 422 1193 418 1199 q 526 1061 463 1132 q 528 1056 528 1060 q 525 1049 528 1051 q 517 1047 522 1046 z "},"Ẳ":{"ha":900,"x_min":-17,"x_max":907,"o":"m 901 17 q 907 8 907 17 q 901 0 907 0 q 832 3 879 0 q 746 6 779 6 q 665 3 715 6 q 597 0 621 0 q 592 8 592 0 q 597 17 592 17 q 668 26 647 17 q 689 61 689 36 q 676 117 689 82 l 550 458 l 318 458 l 206 183 q 179 83 179 118 q 206 31 179 44 q 289 17 233 17 q 293 15 292 17 q 294 10 294 13 q 292 3 294 7 q 286 0 290 0 q 219 3 269 0 q 131 6 161 6 q 53 3 97 6 q -11 0 14 0 q -17 8 -17 0 q -11 17 -17 17 q 77 53 33 17 q 157 172 121 89 l 457 882 q 469 886 460 886 q 486 881 482 886 l 767 117 q 796 54 783 74 q 832 26 808 35 q 901 17 856 17 m 539 488 l 440 756 l 331 488 l 539 488 m 456 924 q 374 956 410 924 q 326 1044 338 988 q 344 1060 325 1053 q 379 1067 363 1067 q 393 1063 393 1067 q 429 999 404 1021 q 483 976 454 976 q 536 998 511 976 q 572 1058 561 1019 q 579 1063 574 1063 q 590 1059 585 1063 q 596 1053 596 1056 q 541 957 581 990 q 456 924 501 924 m 469 1038 q 467 1054 467 1049 q 486 1106 467 1072 q 502 1135 497 1122 q 507 1160 507 1147 q 492 1192 507 1181 q 460 1204 478 1204 q 429 1196 446 1204 l 426 1196 q 417 1201 421 1196 q 418 1207 414 1206 q 462 1226 439 1219 q 503 1233 485 1233 q 551 1215 533 1233 q 568 1175 568 1197 q 556 1138 568 1154 q 522 1101 544 1122 q 491 1066 500 1079 q 486 1038 482 1053 q 479 1034 488 1035 q 469 1038 471 1033 z "},"Ẵ":{"ha":900,"x_min":-17,"x_max":907,"o":"m 901 17 q 907 8 907 17 q 901 0 907 0 q 832 3 879 0 q 746 6 779 6 q 665 3 715 6 q 597 0 621 0 q 592 8 592 0 q 597 17 592 17 q 668 26 647 17 q 689 61 689 36 q 676 117 689 82 l 550 458 l 318 458 l 206 183 q 179 83 179 118 q 206 31 179 44 q 289 17 233 17 q 293 15 292 17 q 294 10 294 13 q 292 3 294 7 q 286 0 290 0 q 219 3 269 0 q 131 6 161 6 q 53 3 97 6 q -11 0 14 0 q -17 8 -17 0 q -11 17 -17 17 q 77 53 33 17 q 157 172 121 89 l 457 882 q 469 886 460 886 q 486 881 482 886 l 767 117 q 796 54 783 74 q 832 26 808 35 q 901 17 856 17 m 539 488 l 440 756 l 331 488 l 539 488 m 453 924 q 371 956 407 924 q 324 1044 335 988 q 341 1060 322 1053 q 376 1067 360 1067 q 390 1063 390 1067 q 426 999 401 1021 q 481 976 451 976 q 533 998 508 976 q 569 1058 558 1019 q 576 1063 571 1063 q 588 1059 582 1063 q 593 1053 593 1056 q 538 957 578 990 q 453 924 499 924 m 297 1111 q 289 1115 293 1111 q 286 1121 285 1118 q 393 1207 335 1207 q 465 1193 413 1207 q 572 1174 532 1174 q 611 1183 597 1174 q 638 1211 625 1192 l 639 1211 q 647 1208 643 1211 q 650 1201 651 1204 q 600 1132 621 1150 q 551 1114 579 1114 q 464 1131 522 1114 q 427 1140 458 1132 q 364 1149 396 1149 q 326 1140 338 1149 q 299 1111 315 1132 l 297 1111 z "},"Ǎ":{"ha":900,"x_min":-17,"x_max":907,"o":"m 901 17 q 907 8 907 17 q 901 0 907 0 q 832 3 879 0 q 746 6 779 6 q 665 3 715 6 q 597 0 621 0 q 592 8 592 0 q 597 17 592 17 q 668 26 647 17 q 689 61 689 36 q 676 117 689 82 l 550 458 l 318 458 l 206 183 q 179 83 179 118 q 206 31 179 44 q 289 17 233 17 q 293 15 292 17 q 294 10 294 13 q 292 3 294 7 q 286 0 290 0 q 219 3 269 0 q 131 6 161 6 q 53 3 97 6 q -11 0 14 0 q -17 8 -17 0 q -11 17 -17 17 q 77 53 33 17 q 157 172 121 89 l 457 882 q 469 886 460 886 q 486 881 482 886 l 767 117 q 796 54 783 74 q 832 26 808 35 q 901 17 856 17 m 539 488 l 440 756 l 331 488 l 539 488 m 326 1072 l 326 1074 q 330 1081 326 1078 q 335 1082 333 1085 l 468 1003 l 593 1083 l 596 1083 q 603 1079 600 1083 q 603 1072 607 1075 l 479 938 q 467 932 475 932 q 453 938 458 932 l 326 1072 z "},"Â":{"ha":900,"x_min":-17,"x_max":907,"o":"m 901 17 q 907 8 907 17 q 901 0 907 0 q 832 3 879 0 q 746 6 779 6 q 665 3 715 6 q 597 0 621 0 q 592 8 592 0 q 597 17 592 17 q 668 26 647 17 q 689 61 689 36 q 676 117 689 82 l 550 458 l 318 458 l 206 183 q 179 83 179 118 q 206 31 179 44 q 289 17 233 17 q 293 15 292 17 q 294 10 294 13 q 292 3 294 7 q 286 0 290 0 q 219 3 269 0 q 131 6 161 6 q 53 3 97 6 q -11 0 14 0 q -17 8 -17 0 q -11 17 -17 17 q 77 53 33 17 q 157 172 121 89 l 457 882 q 469 886 460 886 q 486 881 482 886 l 767 117 q 796 54 783 74 q 832 26 808 35 q 901 17 856 17 m 539 488 l 440 756 l 331 488 l 539 488 m 342 917 q 334 920 338 917 q 333 926 331 924 l 457 1061 q 469 1068 461 1068 q 483 1061 476 1068 l 610 926 l 611 924 q 608 917 611 919 q 601 917 604 915 l 468 996 l 343 917 l 342 917 z "},"Ấ":{"ha":900,"x_min":-17,"x_max":907,"o":"m 901 17 q 907 8 907 17 q 901 0 907 0 q 832 3 879 0 q 746 6 779 6 q 665 3 715 6 q 597 0 621 0 q 592 8 592 0 q 597 17 592 17 q 668 26 647 17 q 689 61 689 36 q 676 117 689 82 l 550 458 l 318 458 l 206 183 q 179 83 179 118 q 206 31 179 44 q 289 17 233 17 q 293 15 292 17 q 294 10 294 13 q 292 3 294 7 q 286 0 290 0 q 219 3 269 0 q 131 6 161 6 q 53 3 97 6 q -11 0 14 0 q -17 8 -17 0 q -11 17 -17 17 q 77 53 33 17 q 157 172 121 89 l 457 882 q 469 886 460 886 q 486 881 482 886 l 767 117 q 796 54 783 74 q 832 26 808 35 q 901 17 856 17 m 539 488 l 440 756 l 331 488 l 539 488 m 342 917 q 334 920 338 917 q 333 926 331 924 l 457 1061 q 469 1068 461 1068 q 483 1061 476 1068 l 610 926 l 611 924 q 608 917 611 919 q 601 917 604 915 l 468 996 l 343 917 l 342 917 m 560 1010 q 552 1015 554 1010 q 553 1024 550 1021 q 658 1157 611 1088 q 690 1154 663 1163 q 738 1133 717 1146 q 749 1118 760 1121 q 563 1011 658 1082 l 560 1010 z "},"Ậ":{"ha":900,"x_min":-17,"x_max":907,"o":"m 901 17 q 907 8 907 17 q 901 0 907 0 q 832 3 879 0 q 746 6 779 6 q 665 3 715 6 q 597 0 621 0 q 592 8 592 0 q 597 17 592 17 q 668 26 647 17 q 689 61 689 36 q 676 117 689 82 l 550 458 l 318 458 l 206 183 q 179 83 179 118 q 206 31 179 44 q 289 17 233 17 q 293 15 292 17 q 294 10 294 13 q 292 3 294 7 q 286 0 290 0 q 219 3 269 0 q 131 6 161 6 q 53 3 97 6 q -11 0 14 0 q -17 8 -17 0 q -11 17 -17 17 q 77 53 33 17 q 157 172 121 89 l 457 882 q 469 886 460 886 q 486 881 482 886 l 767 117 q 796 54 783 74 q 832 26 808 35 q 901 17 856 17 m 539 488 l 440 756 l 331 488 l 539 488 m 464 -264 q 419 -248 435 -264 q 403 -203 403 -232 q 419 -161 403 -176 q 464 -146 435 -146 q 507 -161 492 -146 q 522 -203 522 -176 q 507 -248 522 -232 q 464 -264 492 -264 m 342 917 q 334 920 338 917 q 333 926 331 924 l 457 1061 q 469 1068 461 1068 q 483 1061 476 1068 l 610 926 l 611 924 q 608 917 611 919 q 601 917 604 915 l 468 996 l 343 917 l 342 917 z "},"Ầ":{"ha":900,"x_min":-17,"x_max":907,"o":"m 901 17 q 907 8 907 17 q 901 0 907 0 q 832 3 879 0 q 746 6 779 6 q 665 3 715 6 q 597 0 621 0 q 592 8 592 0 q 597 17 592 17 q 668 26 647 17 q 689 61 689 36 q 676 117 689 82 l 550 458 l 318 458 l 206 183 q 179 83 179 118 q 206 31 179 44 q 289 17 233 17 q 293 15 292 17 q 294 10 294 13 q 292 3 294 7 q 286 0 290 0 q 219 3 269 0 q 131 6 161 6 q 53 3 97 6 q -11 0 14 0 q -17 8 -17 0 q -11 17 -17 17 q 77 53 33 17 q 157 172 121 89 l 457 882 q 469 886 460 886 q 486 881 482 886 l 767 117 q 796 54 783 74 q 832 26 808 35 q 901 17 856 17 m 539 488 l 440 756 l 331 488 l 539 488 m 342 917 q 334 920 338 917 q 333 926 331 924 l 457 1061 q 469 1068 461 1068 q 483 1061 476 1068 l 610 926 l 611 924 q 608 917 611 919 q 601 917 604 915 l 468 996 l 343 917 l 342 917 m 676 981 q 585 1042 628 1017 q 492 1088 543 1067 q 502 1103 481 1090 q 551 1124 524 1115 q 582 1126 578 1132 q 686 994 622 1065 q 688 989 688 993 q 685 982 688 985 q 676 981 682 979 z "},"Ẩ":{"ha":900,"x_min":-17,"x_max":907,"o":"m 901 17 q 907 8 907 17 q 901 0 907 0 q 832 3 879 0 q 746 6 779 6 q 665 3 715 6 q 597 0 621 0 q 592 8 592 0 q 597 17 592 17 q 668 26 647 17 q 689 61 689 36 q 676 117 689 82 l 550 458 l 318 458 l 206 183 q 179 83 179 118 q 206 31 179 44 q 289 17 233 17 q 293 15 292 17 q 294 10 294 13 q 292 3 294 7 q 286 0 290 0 q 219 3 269 0 q 131 6 161 6 q 53 3 97 6 q -11 0 14 0 q -17 8 -17 0 q -11 17 -17 17 q 77 53 33 17 q 157 172 121 89 l 457 882 q 469 886 460 886 q 486 881 482 886 l 767 117 q 796 54 783 74 q 832 26 808 35 q 901 17 856 17 m 539 488 l 440 756 l 331 488 l 539 488 m 342 904 q 334 908 338 904 q 333 914 331 911 l 457 1049 q 469 1056 461 1056 q 483 1049 476 1056 l 610 914 l 611 911 q 608 905 611 907 q 601 904 604 903 l 468 983 l 343 904 l 342 904 m 568 989 q 565 1006 565 1000 q 585 1057 565 1024 q 601 1086 596 1074 q 606 1111 606 1099 q 591 1144 606 1132 q 558 1156 576 1156 q 528 1147 544 1156 l 525 1147 q 516 1152 519 1147 q 517 1158 513 1157 q 560 1178 538 1171 q 601 1185 583 1185 q 649 1167 632 1185 q 667 1126 667 1149 q 655 1090 667 1106 q 621 1053 643 1074 q 590 1017 599 1031 q 585 989 581 1004 q 578 985 586 986 q 568 989 569 985 z "},"Ẫ":{"ha":900,"x_min":-17,"x_max":907,"o":"m 901 17 q 907 8 907 17 q 901 0 907 0 q 832 3 879 0 q 746 6 779 6 q 665 3 715 6 q 597 0 621 0 q 592 8 592 0 q 597 17 592 17 q 668 26 647 17 q 689 61 689 36 q 676 117 689 82 l 550 458 l 318 458 l 206 183 q 179 83 179 118 q 206 31 179 44 q 289 17 233 17 q 293 15 292 17 q 294 10 294 13 q 292 3 294 7 q 286 0 290 0 q 219 3 269 0 q 131 6 161 6 q 53 3 97 6 q -11 0 14 0 q -17 8 -17 0 q -11 17 -17 17 q 77 53 33 17 q 157 172 121 89 l 457 882 q 469 886 460 886 q 486 881 482 886 l 767 117 q 796 54 783 74 q 832 26 808 35 q 901 17 856 17 m 539 488 l 440 756 l 331 488 l 539 488 m 343 917 q 335 920 339 917 q 335 926 332 924 l 458 1061 q 471 1068 463 1068 q 485 1061 478 1068 l 611 926 l 613 924 q 609 917 613 919 q 603 917 606 915 l 469 996 l 344 917 l 343 917 m 314 1078 q 307 1081 311 1078 q 304 1088 303 1085 q 351 1148 324 1121 q 411 1175 378 1175 q 485 1160 433 1175 q 590 1140 549 1140 q 629 1150 615 1140 q 656 1178 643 1160 l 657 1178 q 665 1174 661 1178 q 667 1168 669 1171 q 619 1099 640 1117 q 569 1082 597 1082 q 517 1089 544 1082 q 482 1097 489 1096 q 382 1115 422 1115 q 347 1108 358 1115 q 328 1092 336 1101 q 315 1078 319 1082 l 314 1078 z "},"Ä":{"ha":900,"x_min":-17,"x_max":907,"o":"m 901 17 q 907 8 907 17 q 901 0 907 0 q 832 3 879 0 q 746 6 779 6 q 665 3 715 6 q 597 0 621 0 q 592 8 592 0 q 597 17 592 17 q 668 26 647 17 q 689 61 689 36 q 676 117 689 82 l 550 458 l 318 458 l 206 183 q 179 83 179 118 q 206 31 179 44 q 289 17 233 17 q 293 15 292 17 q 294 10 294 13 q 292 3 294 7 q 286 0 290 0 q 219 3 269 0 q 131 6 161 6 q 53 3 97 6 q -11 0 14 0 q -17 8 -17 0 q -11 17 -17 17 q 77 53 33 17 q 157 172 121 89 l 457 882 q 469 886 460 886 q 486 881 482 886 l 767 117 q 796 54 783 74 q 832 26 808 35 q 901 17 856 17 m 539 488 l 440 756 l 331 488 l 539 488 m 364 994 q 320 1010 336 994 q 304 1053 304 1025 q 320 1094 304 1079 q 364 1110 336 1110 q 406 1094 390 1110 q 421 1053 421 1079 q 406 1010 421 1025 q 364 994 390 994 m 578 994 q 534 1010 550 994 q 518 1053 518 1025 q 534 1094 518 1079 q 578 1108 550 1108 q 619 1094 604 1108 q 635 1053 635 1079 q 619 1010 635 1025 q 578 994 604 994 z "},"Ạ":{"ha":900,"x_min":-17,"x_max":907,"o":"m 901 17 q 907 8 907 17 q 901 0 907 0 q 832 3 879 0 q 746 6 779 6 q 665 3 715 6 q 597 0 621 0 q 592 8 592 0 q 597 17 592 17 q 668 26 647 17 q 689 61 689 36 q 676 117 689 82 l 550 458 l 318 458 l 206 183 q 179 83 179 118 q 206 31 179 44 q 289 17 233 17 q 293 15 292 17 q 294 10 294 13 q 292 3 294 7 q 286 0 290 0 q 219 3 269 0 q 131 6 161 6 q 53 3 97 6 q -11 0 14 0 q -17 8 -17 0 q -11 17 -17 17 q 77 53 33 17 q 157 172 121 89 l 457 882 q 469 886 460 886 q 486 881 482 886 l 767 117 q 796 54 783 74 q 832 26 808 35 q 901 17 856 17 m 539 488 l 440 756 l 331 488 l 539 488 m 464 -264 q 419 -248 435 -264 q 403 -203 403 -232 q 419 -161 403 -176 q 464 -146 435 -146 q 507 -161 492 -146 q 522 -203 522 -176 q 507 -248 522 -232 q 464 -264 492 -264 z "},"À":{"ha":900,"x_min":-17,"x_max":907,"o":"m 901 17 q 907 8 907 17 q 901 0 907 0 q 832 3 879 0 q 746 6 779 6 q 665 3 715 6 q 597 0 621 0 q 592 8 592 0 q 597 17 592 17 q 668 26 647 17 q 689 61 689 36 q 676 117 689 82 l 550 458 l 318 458 l 206 183 q 179 83 179 118 q 206 31 179 44 q 289 17 233 17 q 293 15 292 17 q 294 10 294 13 q 292 3 294 7 q 286 0 290 0 q 219 3 269 0 q 131 6 161 6 q 53 3 97 6 q -11 0 14 0 q -17 8 -17 0 q -11 17 -17 17 q 77 53 33 17 q 157 172 121 89 l 457 882 q 469 886 460 886 q 486 881 482 886 l 767 117 q 796 54 783 74 q 832 26 808 35 q 901 17 856 17 m 539 488 l 440 756 l 331 488 l 539 488 m 603 946 q 469 1003 533 979 q 325 1050 406 1028 q 334 1064 313 1053 q 385 1084 356 1075 q 422 1089 415 1093 q 610 961 526 1011 q 614 956 614 960 q 610 948 614 951 q 603 946 607 944 z "},"Ả":{"ha":900,"x_min":-17,"x_max":907,"o":"m 901 17 q 907 8 907 17 q 901 0 907 0 q 832 3 879 0 q 746 6 779 6 q 665 3 715 6 q 597 0 621 0 q 592 8 592 0 q 597 17 592 17 q 668 26 647 17 q 689 61 689 36 q 676 117 689 82 l 550 458 l 318 458 l 206 183 q 179 83 179 118 q 206 31 179 44 q 289 17 233 17 q 293 15 292 17 q 294 10 294 13 q 292 3 294 7 q 286 0 290 0 q 219 3 269 0 q 131 6 161 6 q 53 3 97 6 q -11 0 14 0 q -17 8 -17 0 q -11 17 -17 17 q 77 53 33 17 q 157 172 121 89 l 457 882 q 469 886 460 886 q 486 881 482 886 l 767 117 q 796 54 783 74 q 832 26 808 35 q 901 17 856 17 m 539 488 l 440 756 l 331 488 l 539 488 m 476 903 q 470 899 479 900 q 460 903 461 899 q 454 935 454 918 q 460 969 454 954 q 481 1011 467 985 q 499 1049 493 1035 q 506 1078 506 1063 q 488 1121 506 1106 q 446 1136 471 1136 q 407 1128 424 1136 l 404 1126 q 397 1131 400 1126 q 399 1139 394 1136 q 488 1168 440 1168 q 553 1147 529 1168 q 578 1094 578 1125 q 565 1051 578 1069 q 524 1000 553 1032 q 488 958 500 976 q 475 918 475 939 q 476 903 475 908 z "},"Ā":{"ha":900,"x_min":-17,"x_max":907,"o":"m 901 17 q 907 8 907 17 q 901 0 907 0 q 832 3 879 0 q 746 6 779 6 q 665 3 715 6 q 597 0 621 0 q 592 8 592 0 q 597 17 592 17 q 668 26 647 17 q 689 61 689 36 q 676 117 689 82 l 550 458 l 318 458 l 206 183 q 179 83 179 118 q 206 31 179 44 q 289 17 233 17 q 293 15 292 17 q 294 10 294 13 q 292 3 294 7 q 286 0 290 0 q 219 3 269 0 q 131 6 161 6 q 53 3 97 6 q -11 0 14 0 q -17 8 -17 0 q -11 17 -17 17 q 77 53 33 17 q 157 172 121 89 l 457 882 q 469 886 460 886 q 486 881 482 886 l 767 117 q 796 54 783 74 q 832 26 808 35 q 901 17 856 17 m 539 488 l 440 756 l 331 488 l 539 488 m 310 996 q 303 1003 306 996 q 301 1017 301 1010 q 310 1038 301 1038 l 640 1038 q 649 1017 649 1038 q 647 1003 649 1010 q 640 996 644 996 l 310 996 z "},"Ą":{"ha":901,"x_min":-17,"x_max":910,"o":"m 901 17 q 908 8 907 17 q 904 0 910 0 l 800 1 q 649 -50 706 1 q 593 -183 593 -101 q 635 -294 593 -250 q 751 -339 676 -339 q 794 -333 779 -339 q 824 -318 810 -328 l 826 -318 q 833 -322 829 -318 q 835 -329 836 -326 q 772 -369 801 -357 q 703 -382 742 -382 q 574 -342 621 -382 q 528 -228 528 -301 q 550 -134 528 -174 q 615 -44 572 -94 q 664 22 649 -4 q 679 76 679 47 q 671 117 679 96 l 547 458 l 321 458 l 211 183 q 183 79 183 118 q 209 30 183 43 q 289 17 235 17 q 293 15 292 17 q 294 10 294 13 q 292 3 294 7 q 286 0 290 0 q 221 3 271 0 q 132 6 165 6 q 54 3 101 6 q -11 0 13 0 q -17 8 -17 0 q -11 17 -17 17 q 81 53 33 17 q 164 172 128 89 l 457 882 q 469 886 460 886 q 486 881 482 886 l 763 131 q 797 58 781 82 q 836 26 813 35 q 901 17 860 17 m 536 488 l 440 754 l 333 488 l 536 488 z "},"Å":{"ha":900,"x_min":-17,"x_max":907,"o":"m 901 17 q 907 8 907 17 q 901 0 907 0 q 832 3 879 0 q 746 6 779 6 q 665 3 715 6 q 597 0 621 0 q 592 8 592 0 q 597 17 592 17 q 668 26 647 17 q 689 61 689 36 q 676 117 689 82 l 550 458 l 318 458 l 206 183 q 179 83 179 118 q 206 31 179 44 q 289 17 233 17 q 293 15 292 17 q 294 10 294 13 q 292 3 294 7 q 286 0 290 0 q 219 3 269 0 q 131 6 161 6 q 53 3 97 6 q -11 0 14 0 q -17 8 -17 0 q -11 17 -17 17 q 77 53 33 17 q 157 172 121 89 l 457 882 q 469 886 460 886 q 486 881 482 886 l 767 117 q 796 54 783 74 q 832 26 808 35 q 901 17 856 17 m 539 488 l 440 756 l 331 488 l 539 488 m 463 922 q 374 956 407 922 q 340 1033 340 989 q 383 1112 340 1083 q 476 1140 425 1140 q 562 1108 526 1140 q 597 1029 597 1076 q 556 951 597 981 q 463 922 515 922 m 485 938 q 523 953 511 938 q 535 1006 535 969 q 510 1090 535 1054 q 449 1126 485 1126 q 414 1110 425 1126 q 403 1061 403 1094 q 425 976 403 1014 q 485 938 447 938 z "},"Ǻ":{"ha":900,"x_min":-17,"x_max":907,"o":"m 901 17 q 907 8 907 17 q 901 0 907 0 q 832 3 879 0 q 746 6 779 6 q 665 3 715 6 q 597 0 621 0 q 592 8 592 0 q 597 17 592 17 q 668 26 647 17 q 689 61 689 36 q 676 117 689 82 l 550 458 l 318 458 l 206 183 q 179 83 179 118 q 206 31 179 44 q 289 17 233 17 q 293 15 292 17 q 294 10 294 13 q 292 3 294 7 q 286 0 290 0 q 219 3 269 0 q 131 6 161 6 q 53 3 97 6 q -11 0 14 0 q -17 8 -17 0 q -11 17 -17 17 q 77 53 33 17 q 157 172 121 89 l 457 882 q 469 886 460 886 q 486 881 482 886 l 767 117 q 796 54 783 74 q 832 26 808 35 q 901 17 856 17 m 539 488 l 440 756 l 331 488 l 539 488 m 342 1129 q 334 1135 336 1129 q 336 1144 332 1142 q 469 1211 408 1179 l 525 1240 q 556 1233 531 1243 q 599 1211 581 1224 q 608 1197 618 1199 q 343 1129 482 1174 l 342 1129 m 460 938 q 374 965 406 938 q 342 1032 342 993 q 383 1099 342 1074 q 474 1124 424 1124 q 560 1096 524 1124 q 596 1029 596 1068 q 554 963 596 988 q 460 938 513 938 m 482 953 q 520 965 508 953 q 532 1004 532 978 q 507 1078 532 1047 q 447 1108 482 1108 q 400 1060 400 1108 q 422 985 400 1018 q 482 953 444 953 z "},"Ã":{"ha":900,"x_min":-17,"x_max":907,"o":"m 901 17 q 907 8 907 17 q 901 0 907 0 q 832 3 879 0 q 746 6 779 6 q 665 3 715 6 q 597 0 621 0 q 592 8 592 0 q 597 17 592 17 q 668 26 647 17 q 689 61 689 36 q 676 117 689 82 l 550 458 l 318 458 l 206 183 q 179 83 179 118 q 206 31 179 44 q 289 17 233 17 q 293 15 292 17 q 294 10 294 13 q 292 3 294 7 q 286 0 290 0 q 219 3 269 0 q 131 6 161 6 q 53 3 97 6 q -11 0 14 0 q -17 8 -17 0 q -11 17 -17 17 q 77 53 33 17 q 157 172 121 89 l 457 882 q 469 886 460 886 q 486 881 482 886 l 767 117 q 796 54 783 74 q 832 26 808 35 q 901 17 856 17 m 539 488 l 440 756 l 331 488 l 539 488 m 306 965 q 297 969 301 965 q 294 975 293 972 q 401 1061 343 1061 q 474 1047 421 1061 q 581 1028 540 1028 q 619 1037 606 1028 q 646 1065 633 1046 l 647 1065 q 656 1062 651 1065 q 658 1056 660 1058 q 608 986 629 1004 q 560 968 588 968 q 472 985 531 968 q 435 994 467 986 q 372 1003 404 1003 q 335 994 346 1003 q 307 965 324 986 l 306 965 z "},"Æ":{"ha":1158,"x_min":-53,"x_max":1111,"o":"m 1093 208 q 1099 210 1093 210 q 1110 204 1111 210 q 1099 21 1099 107 q 1094 5 1099 10 q 1076 0 1089 0 l 504 0 q 497 8 497 0 q 504 17 497 17 q 579 24 554 17 q 613 51 604 32 q 621 113 622 71 l 604 438 l 374 438 l 207 171 q 167 76 167 114 q 276 17 167 17 q 283 8 283 17 q 276 0 283 0 q 199 3 251 0 q 101 6 140 6 q 21 3 68 6 q -46 0 -21 0 q -53 8 -53 0 q -46 17 -53 17 q 58 51 13 17 q 169 185 103 86 l 551 799 q 567 832 567 822 q 544 848 567 844 q 457 851 522 851 q 450 860 450 851 q 457 868 450 868 l 1035 868 q 1044 865 1042 868 q 1046 856 1046 863 l 1050 733 l 1051 682 q 1041 678 1050 678 q 1033 682 1032 679 q 984 803 1028 757 q 868 849 940 849 l 810 849 q 722 841 750 849 q 683 814 693 833 q 674 754 674 794 l 690 465 l 865 465 q 954 489 929 465 q 981 567 979 513 q 990 572 981 572 q 999 567 999 571 q 997 451 997 511 l 999 390 q 1001 322 1001 346 q 993 319 1001 318 q 985 324 985 319 q 955 411 983 385 q 860 438 926 438 l 692 438 l 710 118 q 719 58 711 78 q 749 32 726 39 q 821 25 772 25 l 929 25 q 1032 76 988 25 q 1093 208 1076 126 m 603 465 l 588 778 l 392 465 l 603 465 z "},"Ǽ":{"ha":1158,"x_min":-53,"x_max":1110,"o":"m 1093 208 q 1099 210 1093 210 q 1110 204 1111 210 q 1099 21 1099 107 q 1094 5 1099 10 q 1076 0 1089 0 l 504 0 q 497 8 497 0 q 504 17 497 17 q 579 24 554 17 q 613 51 604 32 q 621 113 622 71 l 604 438 l 374 438 l 207 171 q 167 76 167 114 q 276 17 167 17 q 283 8 283 17 q 276 0 283 0 q 199 3 251 0 q 101 6 140 6 q 21 3 68 6 q -46 0 -21 0 q -53 8 -53 0 q -46 17 -53 17 q 58 51 13 17 q 169 185 103 86 l 551 799 q 567 832 567 822 q 544 848 567 844 q 457 851 522 851 q 450 860 450 851 q 457 868 450 868 l 1035 868 q 1044 865 1042 868 q 1046 856 1046 863 l 1050 733 l 1051 682 q 1041 678 1050 678 q 1033 682 1032 679 q 984 803 1028 757 q 868 849 940 849 l 810 849 q 722 841 750 849 q 683 814 693 833 q 674 754 674 794 l 690 465 l 865 465 q 954 489 929 465 q 981 567 979 513 q 990 572 981 572 q 999 567 999 571 q 997 451 997 511 l 999 390 q 1001 322 1001 346 q 993 319 1001 318 q 985 324 985 319 q 955 411 983 385 q 860 438 926 438 l 692 438 l 710 118 q 719 58 711 78 q 749 32 726 39 q 821 25 772 25 l 929 25 q 1032 76 988 25 q 1093 208 1076 126 m 603 465 l 588 778 l 392 465 l 603 465 m 692 942 q 683 948 686 942 q 685 957 681 954 q 822 1046 735 985 q 859 1069 843 1058 q 886 1089 875 1081 q 921 1084 892 1093 q 972 1064 950 1075 q 983 1050 993 1053 q 694 943 835 1011 l 692 942 z "},"Ǣ":{"ha":1158,"x_min":-53,"x_max":1110,"o":"m 1093 208 q 1099 210 1093 210 q 1110 204 1111 210 q 1099 21 1099 107 q 1094 5 1099 10 q 1076 0 1089 0 l 504 0 q 497 8 497 0 q 504 17 497 17 q 579 24 554 17 q 613 51 604 32 q 621 113 622 71 l 604 438 l 374 438 l 207 171 q 167 76 167 114 q 276 17 167 17 q 283 8 283 17 q 276 0 283 0 q 199 3 251 0 q 101 6 140 6 q 21 3 68 6 q -46 0 -21 0 q -53 8 -53 0 q -46 17 -53 17 q 58 51 13 17 q 169 185 103 86 l 551 799 q 567 832 567 822 q 544 848 567 844 q 457 851 522 851 q 450 860 450 851 q 457 868 450 868 l 1035 868 q 1044 865 1042 868 q 1046 856 1046 863 l 1050 733 l 1051 682 q 1041 678 1050 678 q 1033 682 1032 679 q 984 803 1028 757 q 868 849 940 849 l 810 849 q 722 841 750 849 q 683 814 693 833 q 674 754 674 794 l 690 465 l 865 465 q 954 489 929 465 q 981 567 979 513 q 990 572 981 572 q 999 567 999 571 q 997 451 997 511 l 999 390 q 1001 322 1001 346 q 993 319 1001 318 q 985 324 985 319 q 955 411 983 385 q 860 438 926 438 l 692 438 l 710 118 q 719 58 711 78 q 749 32 726 39 q 821 25 772 25 l 929 25 q 1032 76 988 25 q 1093 208 1076 126 m 603 465 l 588 778 l 392 465 l 603 465 m 617 996 q 610 1003 613 996 q 608 1017 608 1010 q 617 1038 608 1038 l 947 1038 q 956 1017 956 1038 q 953 1003 956 1010 q 947 996 951 996 l 617 996 z "},"B":{"ha":776,"x_min":58,"x_max":700,"o":"m 460 489 q 634 416 568 481 q 700 256 700 351 q 665 122 700 182 q 567 28 629 63 q 426 -6 504 -6 q 328 -1 382 -6 q 282 1 308 0 q 224 3 256 3 l 129 1 q 63 0 106 0 q 58 8 58 0 q 63 17 58 17 q 138 24 114 17 q 171 51 163 31 q 179 113 179 71 l 179 756 q 171 817 179 797 q 139 844 163 836 q 64 851 115 851 q 60 860 60 851 q 64 868 60 868 l 131 867 q 224 864 186 864 q 270 865 249 864 q 307 868 292 867 q 388 872 350 872 q 558 822 501 872 q 615 689 615 771 q 574 570 615 622 q 460 489 532 518 m 357 853 q 303 847 321 853 q 276 819 285 840 q 268 753 268 799 l 268 489 l 332 488 q 478 540 431 488 q 525 678 525 592 q 484 805 525 757 q 357 853 443 853 m 406 18 q 554 71 506 18 q 603 222 603 124 q 542 392 603 328 q 374 458 481 457 q 268 456 331 460 l 268 113 q 278 56 268 76 q 319 27 289 36 q 406 18 349 18 z "},"C":{"ha":878,"x_min":60,"x_max":828,"o":"m 531 -17 q 263 51 368 -17 q 108 222 157 118 q 60 442 60 326 q 126 672 60 571 q 301 828 192 772 q 535 883 410 883 q 671 870 603 883 q 781 835 739 857 q 794 822 792 828 q 799 801 797 817 l 814 647 q 808 641 814 642 q 799 644 801 640 q 684 802 765 751 q 485 853 603 853 q 312 807 385 853 q 200 677 239 761 q 161 481 161 593 q 211 240 161 350 q 347 67 261 131 q 536 3 432 3 q 697 58 625 3 q 811 222 768 113 q 818 226 811 226 q 824 224 821 226 q 828 221 828 222 l 813 68 q 807 45 810 50 q 792 35 804 40 q 531 -17 668 -17 z "},"Ć":{"ha":878,"x_min":60,"x_max":828,"o":"m 531 -17 q 263 51 368 -17 q 108 222 157 118 q 60 442 60 326 q 126 672 60 571 q 301 828 192 772 q 535 883 410 883 q 671 870 603 883 q 781 835 739 857 q 794 822 792 828 q 799 801 797 817 l 814 647 q 808 641 814 642 q 799 644 801 640 q 684 802 765 751 q 485 853 603 853 q 312 807 385 853 q 200 677 239 761 q 161 481 161 593 q 211 240 161 350 q 347 67 261 131 q 536 3 432 3 q 697 58 625 3 q 811 222 768 113 q 818 226 811 226 q 824 224 821 226 q 828 221 828 222 l 813 68 q 807 45 810 50 q 792 35 804 40 q 531 -17 668 -17 m 431 942 q 422 948 425 942 q 424 957 419 954 q 561 1046 474 985 q 598 1069 582 1058 q 625 1089 614 1081 q 660 1084 631 1093 q 710 1064 689 1075 q 722 1050 732 1053 q 433 943 574 1011 l 431 942 z "},"Č":{"ha":878,"x_min":60,"x_max":828,"o":"m 531 -17 q 263 51 368 -17 q 108 222 157 118 q 60 442 60 326 q 126 672 60 571 q 301 828 192 772 q 535 883 410 883 q 671 870 603 883 q 781 835 739 857 q 794 822 792 828 q 799 801 797 817 l 814 647 q 808 641 814 642 q 799 644 801 640 q 684 802 765 751 q 485 853 603 853 q 312 807 385 853 q 200 677 239 761 q 161 481 161 593 q 211 240 161 350 q 347 67 261 131 q 536 3 432 3 q 697 58 625 3 q 811 222 768 113 q 818 226 811 226 q 824 224 821 226 q 828 221 828 222 l 813 68 q 807 45 810 50 q 792 35 804 40 q 531 -17 668 -17 m 372 1072 l 372 1074 q 376 1081 372 1078 q 381 1082 379 1085 l 514 1003 l 639 1083 l 642 1083 q 649 1079 646 1083 q 649 1072 653 1075 l 525 938 q 513 932 521 932 q 499 938 504 932 l 372 1072 z "},"Ç":{"ha":878,"x_min":60,"x_max":828,"o":"m 811 222 q 818 226 811 226 q 824 224 821 226 q 828 221 828 222 l 813 68 q 807 45 810 50 q 792 35 804 40 q 531 -17 668 -17 q 526 -51 526 -36 q 538 -99 526 -78 q 572 -144 549 -119 q 621 -207 604 -179 q 636 -261 638 -235 q 606 -343 638 -304 q 515 -382 575 -382 q 453 -365 479 -382 q 428 -319 428 -349 q 461 -287 428 -287 q 487 -297 476 -287 q 508 -324 497 -307 q 530 -349 522 -342 q 550 -356 538 -356 q 590 -304 590 -356 q 571 -253 589 -281 q 518 -192 553 -226 q 486 -118 486 -160 q 492 -83 486 -100 l 513 -17 q 255 56 357 -12 q 106 226 153 124 q 60 442 60 329 q 126 672 60 571 q 301 828 192 772 q 535 883 410 883 q 671 870 603 883 q 781 835 739 857 q 794 822 792 828 q 799 801 797 817 l 814 647 q 808 641 814 642 q 799 644 801 640 q 684 802 765 751 q 485 853 603 853 q 312 807 385 853 q 200 677 239 761 q 161 481 161 593 q 211 240 161 350 q 347 67 261 131 q 536 3 432 3 q 697 58 625 3 q 811 222 768 113 z "},"Ĉ":{"ha":878,"x_min":60,"x_max":828,"o":"m 531 -17 q 263 51 368 -17 q 108 222 157 118 q 60 442 60 326 q 126 672 60 571 q 301 828 192 772 q 535 883 410 883 q 671 870 603 883 q 781 835 739 857 q 794 822 792 828 q 799 801 797 817 l 814 647 q 808 641 814 642 q 799 644 801 640 q 684 802 765 751 q 485 853 603 853 q 312 807 385 853 q 200 677 239 761 q 161 481 161 593 q 211 240 161 350 q 347 67 261 131 q 536 3 432 3 q 697 58 625 3 q 811 222 768 113 q 818 226 811 226 q 824 224 821 226 q 828 221 828 222 l 813 68 q 807 45 810 50 q 792 35 804 40 q 531 -17 668 -17 m 388 917 q 380 920 383 917 q 379 926 376 924 l 503 1061 q 515 1068 507 1068 q 529 1061 522 1068 l 656 926 l 657 924 q 653 917 657 919 q 647 917 650 915 l 514 996 l 389 917 l 388 917 z "},"Ċ":{"ha":878,"x_min":60,"x_max":828,"o":"m 531 -17 q 263 51 368 -17 q 108 222 157 118 q 60 442 60 326 q 126 672 60 571 q 301 828 192 772 q 535 883 410 883 q 671 870 603 883 q 781 835 739 857 q 794 822 792 828 q 799 801 797 817 l 814 647 q 808 641 814 642 q 799 644 801 640 q 684 802 765 751 q 485 853 603 853 q 312 807 385 853 q 200 677 239 761 q 161 481 161 593 q 211 240 161 350 q 347 67 261 131 q 536 3 432 3 q 697 58 625 3 q 811 222 768 113 q 818 226 811 226 q 824 224 821 226 q 828 221 828 222 l 813 68 q 807 45 810 50 q 792 35 804 40 q 531 -17 668 -17 m 515 983 q 471 999 488 983 q 454 1043 454 1015 q 471 1085 454 1069 q 515 1101 488 1101 q 559 1086 543 1101 q 575 1043 575 1071 q 559 999 575 1015 q 515 983 543 983 z "},"D":{"ha":919,"x_min":53,"x_max":860,"o":"m 406 -6 q 321 -1 369 -6 q 275 1 301 0 q 215 3 249 3 l 122 1 q 57 0 99 0 q 53 8 54 0 q 57 17 53 17 q 129 24 106 17 q 162 51 153 32 q 171 113 171 71 l 171 756 q 160 817 169 797 q 128 844 151 836 q 57 851 106 851 q 53 860 54 851 q 57 868 53 868 l 122 867 q 214 864 178 864 q 307 868 261 864 q 388 871 365 871 q 633 816 525 871 q 800 665 740 761 q 860 449 860 568 q 798 210 860 314 q 632 51 736 107 q 406 -6 528 -6 m 393 15 q 582 63 500 15 q 710 201 664 110 q 756 418 756 292 q 713 635 756 536 q 588 793 669 735 q 396 851 507 851 q 288 832 317 851 q 258 753 258 813 l 258 128 q 286 41 258 67 q 393 15 314 15 z "},"Ð":{"ha":919,"x_min":42,"x_max":860,"o":"m 388 871 q 633 816 525 871 q 800 665 740 761 q 860 449 860 568 q 798 210 860 314 q 632 51 736 107 q 406 -6 528 -6 q 321 -1 369 -6 q 275 1 301 0 q 215 3 249 3 l 122 1 q 57 0 99 0 q 53 8 54 0 q 57 17 53 17 q 129 24 106 17 q 162 51 153 32 q 171 113 171 71 l 171 418 l 47 418 q 42 432 42 418 q 47 446 42 446 l 171 446 l 171 756 q 160 817 169 797 q 128 844 151 836 q 57 851 106 851 q 53 860 54 851 q 57 868 53 868 l 122 867 q 214 864 178 864 q 307 868 261 864 q 388 871 365 871 m 393 15 q 582 63 500 15 q 710 201 664 110 q 756 418 756 292 q 713 635 756 536 q 588 793 669 735 q 396 851 507 851 q 288 832 317 851 q 258 753 258 813 l 258 446 l 411 446 q 417 432 417 446 q 411 418 417 418 l 258 418 l 258 128 q 286 41 258 67 q 393 15 314 15 z "},"Ď":{"ha":919,"x_min":53,"x_max":860,"o":"m 406 -6 q 321 -1 369 -6 q 275 1 301 0 q 215 3 249 3 l 122 1 q 57 0 99 0 q 53 8 54 0 q 57 17 53 17 q 129 24 106 17 q 162 51 153 32 q 171 113 171 71 l 171 756 q 160 817 169 797 q 128 844 151 836 q 57 851 106 851 q 53 860 54 851 q 57 868 53 868 l 122 867 q 214 864 178 864 q 307 868 261 864 q 388 871 365 871 q 633 816 525 871 q 800 665 740 761 q 860 449 860 568 q 798 210 860 314 q 632 51 736 107 q 406 -6 528 -6 m 393 15 q 582 63 500 15 q 710 201 664 110 q 756 418 756 292 q 713 635 756 536 q 588 793 669 735 q 396 851 507 851 q 288 832 317 851 q 258 753 258 813 l 258 128 q 286 41 258 67 q 393 15 314 15 m 233 1072 l 233 1074 q 237 1081 233 1078 q 242 1082 240 1085 l 375 1003 l 500 1083 l 503 1083 q 510 1079 507 1083 q 510 1072 514 1075 l 386 938 q 374 932 382 932 q 360 938 365 932 l 233 1072 z "},"Đ":{"ha":919,"x_min":42,"x_max":860,"o":"m 388 871 q 633 816 525 871 q 800 665 740 761 q 860 449 860 568 q 798 210 860 314 q 632 51 736 107 q 406 -6 528 -6 q 321 -1 369 -6 q 275 1 301 0 q 215 3 249 3 l 122 1 q 57 0 99 0 q 53 8 54 0 q 57 17 53 17 q 129 24 106 17 q 162 51 153 32 q 171 113 171 71 l 171 418 l 47 418 q 42 432 42 418 q 47 446 42 446 l 171 446 l 171 756 q 160 817 169 797 q 128 844 151 836 q 57 851 106 851 q 53 860 54 851 q 57 868 53 868 l 122 867 q 214 864 178 864 q 307 868 261 864 q 388 871 365 871 m 393 15 q 582 63 500 15 q 710 201 664 110 q 756 418 756 292 q 713 635 756 536 q 588 793 669 735 q 396 851 507 851 q 288 832 317 851 q 258 753 258 813 l 258 446 l 411 446 q 417 432 417 446 q 411 418 417 418 l 258 418 l 258 128 q 286 41 258 67 q 393 15 314 15 z "},"Ḍ":{"ha":919,"x_min":53,"x_max":860,"o":"m 406 -6 q 321 -1 369 -6 q 275 1 301 0 q 215 3 249 3 l 122 1 q 57 0 99 0 q 53 8 54 0 q 57 17 53 17 q 129 24 106 17 q 162 51 153 32 q 171 113 171 71 l 171 756 q 160 817 169 797 q 128 844 151 836 q 57 851 106 851 q 53 860 54 851 q 57 868 53 868 l 122 867 q 214 864 178 864 q 307 868 261 864 q 388 871 365 871 q 633 816 525 871 q 800 665 740 761 q 860 449 860 568 q 798 210 860 314 q 632 51 736 107 q 406 -6 528 -6 m 393 15 q 582 63 500 15 q 710 201 664 110 q 756 418 756 292 q 713 635 756 536 q 588 793 669 735 q 396 851 507 851 q 288 832 317 851 q 258 753 258 813 l 258 128 q 286 41 258 67 q 393 15 314 15 m 453 -264 q 408 -248 424 -264 q 392 -203 392 -232 q 408 -161 392 -176 q 453 -146 424 -146 q 496 -161 481 -146 q 511 -203 511 -176 q 496 -248 511 -232 q 453 -264 481 -264 z "},"Ḏ":{"ha":919,"x_min":53,"x_max":860,"o":"m 406 -6 q 321 -1 369 -6 q 275 1 301 0 q 215 3 249 3 l 122 1 q 57 0 99 0 q 53 8 54 0 q 57 17 53 17 q 129 24 106 17 q 162 51 153 32 q 171 113 171 71 l 171 756 q 160 817 169 797 q 128 844 151 836 q 57 851 106 851 q 53 860 54 851 q 57 868 53 868 l 122 867 q 214 864 178 864 q 307 868 261 864 q 388 871 365 871 q 633 816 525 871 q 800 665 740 761 q 860 449 860 568 q 798 210 860 314 q 632 51 736 107 q 406 -6 528 -6 m 393 15 q 582 63 500 15 q 710 201 664 110 q 756 418 756 292 q 713 635 756 536 q 588 793 669 735 q 396 851 507 851 q 288 832 317 851 q 258 753 258 813 l 258 128 q 286 41 258 67 q 393 15 314 15 m 281 -164 q 272 -143 272 -164 q 274 -129 272 -136 q 281 -122 276 -122 l 611 -122 q 617 -129 615 -122 q 619 -143 619 -136 q 611 -164 619 -164 l 281 -164 z "},"E":{"ha":769,"x_min":60,"x_max":724,"o":"m 704 208 q 711 211 704 211 q 719 209 715 211 q 722 204 724 207 q 710 21 710 132 q 706 5 710 10 q 689 0 701 0 l 65 0 q 63 8 63 0 q 65 17 63 17 q 138 24 115 17 q 169 51 161 31 q 178 113 178 71 l 178 756 q 167 817 176 797 q 135 844 158 836 q 64 851 113 851 q 60 860 60 851 q 64 868 60 868 l 650 868 q 658 865 656 868 q 660 856 660 863 l 661 814 l 664 683 q 656 678 664 678 q 647 682 647 678 q 601 801 640 756 q 499 846 561 846 l 372 846 q 302 839 324 846 q 274 814 281 832 q 265 754 267 796 l 265 465 l 481 465 q 566 488 542 465 q 589 564 590 510 q 599 571 589 571 q 607 564 608 571 q 608 519 608 540 q 607 488 607 497 q 606 451 606 475 l 607 390 q 610 322 610 346 q 601 317 610 317 q 592 322 592 317 q 565 411 592 385 q 474 438 538 438 l 265 438 l 265 118 q 273 59 265 78 q 303 33 281 40 q 372 25 325 25 l 539 25 q 642 76 597 25 q 704 208 688 126 z "},"É":{"ha":769,"x_min":60,"x_max":722,"o":"m 704 208 q 711 211 704 211 q 719 209 715 211 q 722 204 724 207 q 710 21 710 132 q 706 5 710 10 q 689 0 701 0 l 65 0 q 63 8 63 0 q 65 17 63 17 q 138 24 115 17 q 169 51 161 31 q 178 113 178 71 l 178 756 q 167 817 176 797 q 135 844 158 836 q 64 851 113 851 q 60 860 60 851 q 64 868 60 868 l 650 868 q 658 865 656 868 q 660 856 660 863 l 661 814 l 664 683 q 656 678 664 678 q 647 682 647 678 q 601 801 640 756 q 499 846 561 846 l 372 846 q 302 839 324 846 q 274 814 281 832 q 265 754 267 796 l 265 465 l 481 465 q 566 488 542 465 q 589 564 590 510 q 599 571 589 571 q 607 564 608 571 q 608 519 608 540 q 607 488 607 497 q 606 451 606 475 l 607 390 q 610 322 610 346 q 601 317 610 317 q 592 322 592 317 q 565 411 592 385 q 474 438 538 438 l 265 438 l 265 118 q 273 59 265 78 q 303 33 281 40 q 372 25 325 25 l 539 25 q 642 76 597 25 q 704 208 688 126 m 303 942 q 294 948 297 942 q 296 957 292 954 q 433 1046 346 985 q 470 1069 454 1058 q 497 1089 486 1081 q 532 1084 503 1093 q 583 1064 561 1075 q 594 1050 604 1053 q 306 943 446 1011 l 303 942 z "},"Ĕ":{"ha":769,"x_min":60,"x_max":722,"o":"m 704 208 q 711 211 704 211 q 719 209 715 211 q 722 204 724 207 q 710 21 710 132 q 706 5 710 10 q 689 0 701 0 l 65 0 q 63 8 63 0 q 65 17 63 17 q 138 24 115 17 q 169 51 161 31 q 178 113 178 71 l 178 756 q 167 817 176 797 q 135 844 158 836 q 64 851 113 851 q 60 860 60 851 q 64 868 60 868 l 650 868 q 658 865 656 868 q 660 856 660 863 l 661 814 l 664 683 q 656 678 664 678 q 647 682 647 678 q 601 801 640 756 q 499 846 561 846 l 372 846 q 302 839 324 846 q 274 814 281 832 q 265 754 267 796 l 265 465 l 481 465 q 566 488 542 465 q 589 564 590 510 q 599 571 589 571 q 607 564 608 571 q 608 519 608 540 q 607 488 607 497 q 606 451 606 475 l 607 390 q 610 322 610 346 q 601 317 610 317 q 592 322 592 317 q 565 411 592 385 q 474 438 538 438 l 265 438 l 265 118 q 273 59 265 78 q 303 33 281 40 q 372 25 325 25 l 539 25 q 642 76 597 25 q 704 208 688 126 m 385 924 q 303 956 339 924 q 256 1044 267 988 q 273 1060 254 1053 q 308 1067 292 1067 q 322 1063 322 1067 q 358 999 333 1021 q 413 976 383 976 q 465 998 440 976 q 501 1058 490 1019 q 508 1063 504 1063 q 519 1059 514 1063 q 525 1053 525 1056 q 470 957 510 990 q 385 924 431 924 z "},"Ě":{"ha":769,"x_min":60,"x_max":722,"o":"m 704 208 q 711 211 704 211 q 719 209 715 211 q 722 204 724 207 q 710 21 710 132 q 706 5 710 10 q 689 0 701 0 l 65 0 q 63 8 63 0 q 65 17 63 17 q 138 24 115 17 q 169 51 161 31 q 178 113 178 71 l 178 756 q 167 817 176 797 q 135 844 158 836 q 64 851 113 851 q 60 860 60 851 q 64 868 60 868 l 650 868 q 658 865 656 868 q 660 856 660 863 l 661 814 l 664 683 q 656 678 664 678 q 647 682 647 678 q 601 801 640 756 q 499 846 561 846 l 372 846 q 302 839 324 846 q 274 814 281 832 q 265 754 267 796 l 265 465 l 481 465 q 566 488 542 465 q 589 564 590 510 q 599 571 589 571 q 607 564 608 571 q 608 519 608 540 q 607 488 607 497 q 606 451 606 475 l 607 390 q 610 322 610 346 q 601 317 610 317 q 592 322 592 317 q 565 411 592 385 q 474 438 538 438 l 265 438 l 265 118 q 273 59 265 78 q 303 33 281 40 q 372 25 325 25 l 539 25 q 642 76 597 25 q 704 208 688 126 m 244 1072 l 244 1074 q 248 1081 244 1078 q 253 1082 251 1085 l 386 1003 l 511 1083 l 514 1083 q 522 1079 518 1083 q 521 1072 525 1075 l 397 938 q 385 932 393 932 q 371 938 376 932 l 244 1072 z "},"Ê":{"ha":769,"x_min":60,"x_max":722,"o":"m 704 208 q 711 211 704 211 q 719 209 715 211 q 722 204 724 207 q 710 21 710 132 q 706 5 710 10 q 689 0 701 0 l 65 0 q 63 8 63 0 q 65 17 63 17 q 138 24 115 17 q 169 51 161 31 q 178 113 178 71 l 178 756 q 167 817 176 797 q 135 844 158 836 q 64 851 113 851 q 60 860 60 851 q 64 868 60 868 l 650 868 q 658 865 656 868 q 660 856 660 863 l 661 814 l 664 683 q 656 678 664 678 q 647 682 647 678 q 601 801 640 756 q 499 846 561 846 l 372 846 q 302 839 324 846 q 274 814 281 832 q 265 754 267 796 l 265 465 l 481 465 q 566 488 542 465 q 589 564 590 510 q 599 571 589 571 q 607 564 608 571 q 608 519 608 540 q 607 488 607 497 q 606 451 606 475 l 607 390 q 610 322 610 346 q 601 317 610 317 q 592 322 592 317 q 565 411 592 385 q 474 438 538 438 l 265 438 l 265 118 q 273 59 265 78 q 303 33 281 40 q 372 25 325 25 l 539 25 q 642 76 597 25 q 704 208 688 126 m 260 917 q 252 920 256 917 q 251 926 249 924 l 375 1061 q 388 1068 379 1068 q 401 1061 394 1068 l 528 926 l 529 924 q 526 917 529 919 q 519 917 522 915 l 386 996 l 261 917 l 260 917 z "},"Ế":{"ha":769,"x_min":60,"x_max":722,"o":"m 704 208 q 711 211 704 211 q 719 209 715 211 q 722 204 724 207 q 710 21 710 132 q 706 5 710 10 q 689 0 701 0 l 65 0 q 63 8 63 0 q 65 17 63 17 q 138 24 115 17 q 169 51 161 31 q 178 113 178 71 l 178 756 q 167 817 176 797 q 135 844 158 836 q 64 851 113 851 q 60 860 60 851 q 64 868 60 868 l 650 868 q 658 865 656 868 q 660 856 660 863 l 661 814 l 664 683 q 656 678 664 678 q 647 682 647 678 q 601 801 640 756 q 499 846 561 846 l 372 846 q 302 839 324 846 q 274 814 281 832 q 265 754 267 796 l 265 465 l 481 465 q 566 488 542 465 q 589 564 590 510 q 599 571 589 571 q 607 564 608 571 q 608 519 608 540 q 607 488 607 497 q 606 451 606 475 l 607 390 q 610 322 610 346 q 601 317 610 317 q 592 322 592 317 q 565 411 592 385 q 474 438 538 438 l 265 438 l 265 118 q 273 59 265 78 q 303 33 281 40 q 372 25 325 25 l 539 25 q 642 76 597 25 q 704 208 688 126 m 260 917 q 252 920 256 917 q 251 926 249 924 l 375 1061 q 388 1068 379 1068 q 401 1061 394 1068 l 528 926 l 529 924 q 526 917 529 919 q 519 917 522 915 l 386 996 l 261 917 l 260 917 m 478 1010 q 470 1015 472 1010 q 471 1024 468 1021 q 576 1157 529 1088 q 608 1154 581 1163 q 656 1133 635 1146 q 667 1118 678 1121 q 481 1011 576 1082 l 478 1010 z "},"Ệ":{"ha":769,"x_min":60,"x_max":722,"o":"m 704 208 q 711 211 704 211 q 719 209 715 211 q 722 204 724 207 q 710 21 710 132 q 706 5 710 10 q 689 0 701 0 l 65 0 q 63 8 63 0 q 65 17 63 17 q 138 24 115 17 q 169 51 161 31 q 178 113 178 71 l 178 756 q 167 817 176 797 q 135 844 158 836 q 64 851 113 851 q 60 860 60 851 q 64 868 60 868 l 650 868 q 658 865 656 868 q 660 856 660 863 l 661 814 l 664 683 q 656 678 664 678 q 647 682 647 678 q 601 801 640 756 q 499 846 561 846 l 372 846 q 302 839 324 846 q 274 814 281 832 q 265 754 267 796 l 265 465 l 481 465 q 566 488 542 465 q 589 564 590 510 q 599 571 589 571 q 607 564 608 571 q 608 519 608 540 q 607 488 607 497 q 606 451 606 475 l 607 390 q 610 322 610 346 q 601 317 610 317 q 592 322 592 317 q 565 411 592 385 q 474 438 538 438 l 265 438 l 265 118 q 273 59 265 78 q 303 33 281 40 q 372 25 325 25 l 539 25 q 642 76 597 25 q 704 208 688 126 m 418 -264 q 373 -248 389 -264 q 357 -203 357 -232 q 373 -161 357 -176 q 418 -146 389 -146 q 461 -161 446 -146 q 476 -203 476 -176 q 461 -248 476 -232 q 418 -264 446 -264 m 260 917 q 252 920 256 917 q 251 926 249 924 l 375 1061 q 388 1068 379 1068 q 401 1061 394 1068 l 528 926 l 529 924 q 526 917 529 919 q 519 917 522 915 l 386 996 l 261 917 l 260 917 z "},"Ề":{"ha":769,"x_min":60,"x_max":722,"o":"m 704 208 q 711 211 704 211 q 719 209 715 211 q 722 204 724 207 q 710 21 710 132 q 706 5 710 10 q 689 0 701 0 l 65 0 q 63 8 63 0 q 65 17 63 17 q 138 24 115 17 q 169 51 161 31 q 178 113 178 71 l 178 756 q 167 817 176 797 q 135 844 158 836 q 64 851 113 851 q 60 860 60 851 q 64 868 60 868 l 650 868 q 658 865 656 868 q 660 856 660 863 l 661 814 l 664 683 q 656 678 664 678 q 647 682 647 678 q 601 801 640 756 q 499 846 561 846 l 372 846 q 302 839 324 846 q 274 814 281 832 q 265 754 267 796 l 265 465 l 481 465 q 566 488 542 465 q 589 564 590 510 q 599 571 589 571 q 607 564 608 571 q 608 519 608 540 q 607 488 607 497 q 606 451 606 475 l 607 390 q 610 322 610 346 q 601 317 610 317 q 592 322 592 317 q 565 411 592 385 q 474 438 538 438 l 265 438 l 265 118 q 273 59 265 78 q 303 33 281 40 q 372 25 325 25 l 539 25 q 642 76 597 25 q 704 208 688 126 m 260 917 q 252 920 256 917 q 251 926 249 924 l 375 1061 q 388 1068 379 1068 q 401 1061 394 1068 l 528 926 l 529 924 q 526 917 529 919 q 519 917 522 915 l 386 996 l 261 917 l 260 917 m 594 981 q 503 1042 546 1017 q 410 1088 461 1067 q 420 1103 399 1090 q 469 1124 442 1115 q 500 1126 496 1132 q 604 994 540 1065 q 606 989 606 993 q 603 982 606 985 q 594 981 600 979 z "},"Ể":{"ha":769,"x_min":60,"x_max":722,"o":"m 704 208 q 711 211 704 211 q 719 209 715 211 q 722 204 724 207 q 710 21 710 132 q 706 5 710 10 q 689 0 701 0 l 65 0 q 63 8 63 0 q 65 17 63 17 q 138 24 115 17 q 169 51 161 31 q 178 113 178 71 l 178 756 q 167 817 176 797 q 135 844 158 836 q 64 851 113 851 q 60 860 60 851 q 64 868 60 868 l 650 868 q 658 865 656 868 q 660 856 660 863 l 661 814 l 664 683 q 656 678 664 678 q 647 682 647 678 q 601 801 640 756 q 499 846 561 846 l 372 846 q 302 839 324 846 q 274 814 281 832 q 265 754 267 796 l 265 465 l 481 465 q 566 488 542 465 q 589 564 590 510 q 599 571 589 571 q 607 564 608 571 q 608 519 608 540 q 607 488 607 497 q 606 451 606 475 l 607 390 q 610 322 610 346 q 601 317 610 317 q 592 322 592 317 q 565 411 592 385 q 474 438 538 438 l 265 438 l 265 118 q 273 59 265 78 q 303 33 281 40 q 372 25 325 25 l 539 25 q 642 76 597 25 q 704 208 688 126 m 260 904 q 252 908 256 904 q 251 914 249 911 l 375 1049 q 388 1056 379 1056 q 401 1049 394 1056 l 528 914 l 529 911 q 526 905 529 907 q 519 904 522 903 l 386 983 l 261 904 l 260 904 m 486 989 q 483 1006 483 1000 q 503 1057 483 1024 q 519 1086 514 1074 q 524 1111 524 1099 q 509 1144 524 1132 q 476 1156 494 1156 q 446 1147 463 1156 l 443 1147 q 434 1152 438 1147 q 435 1158 431 1157 q 478 1178 456 1171 q 519 1185 501 1185 q 567 1167 550 1185 q 585 1126 585 1149 q 573 1090 585 1106 q 539 1053 561 1074 q 508 1017 517 1031 q 503 989 499 1004 q 496 985 504 986 q 486 989 488 985 z "},"Ễ":{"ha":769,"x_min":60,"x_max":722,"o":"m 704 208 q 711 211 704 211 q 719 209 715 211 q 722 204 724 207 q 710 21 710 132 q 706 5 710 10 q 689 0 701 0 l 65 0 q 63 8 63 0 q 65 17 63 17 q 138 24 115 17 q 169 51 161 31 q 178 113 178 71 l 178 756 q 167 817 176 797 q 135 844 158 836 q 64 851 113 851 q 60 860 60 851 q 64 868 60 868 l 650 868 q 658 865 656 868 q 660 856 660 863 l 661 814 l 664 683 q 656 678 664 678 q 647 682 647 678 q 601 801 640 756 q 499 846 561 846 l 372 846 q 302 839 324 846 q 274 814 281 832 q 265 754 267 796 l 265 465 l 481 465 q 566 488 542 465 q 589 564 590 510 q 599 571 589 571 q 607 564 608 571 q 608 519 608 540 q 607 488 607 497 q 606 451 606 475 l 607 390 q 610 322 610 346 q 601 317 610 317 q 592 322 592 317 q 565 411 592 385 q 474 438 538 438 l 265 438 l 265 118 q 273 59 265 78 q 303 33 281 40 q 372 25 325 25 l 539 25 q 642 76 597 25 q 704 208 688 126 m 261 917 q 253 920 257 917 q 253 926 250 924 l 376 1061 q 389 1068 381 1068 q 403 1061 396 1068 l 529 926 l 531 924 q 527 917 531 919 q 521 917 524 915 l 388 996 l 263 917 l 261 917 m 232 1078 q 225 1081 229 1078 q 222 1088 221 1085 q 269 1148 242 1121 q 329 1175 296 1175 q 403 1160 351 1175 q 508 1140 467 1140 q 547 1150 533 1140 q 574 1178 561 1160 l 575 1178 q 583 1174 579 1178 q 585 1168 588 1171 q 537 1099 558 1117 q 488 1082 515 1082 q 435 1089 463 1082 q 400 1097 407 1096 q 300 1115 340 1115 q 265 1108 276 1115 q 246 1092 254 1101 q 233 1078 238 1082 l 232 1078 z "},"Ë":{"ha":769,"x_min":60,"x_max":722,"o":"m 704 208 q 711 211 704 211 q 719 209 715 211 q 722 204 724 207 q 710 21 710 132 q 706 5 710 10 q 689 0 701 0 l 65 0 q 63 8 63 0 q 65 17 63 17 q 138 24 115 17 q 169 51 161 31 q 178 113 178 71 l 178 756 q 167 817 176 797 q 135 844 158 836 q 64 851 113 851 q 60 860 60 851 q 64 868 60 868 l 650 868 q 658 865 656 868 q 660 856 660 863 l 661 814 l 664 683 q 656 678 664 678 q 647 682 647 678 q 601 801 640 756 q 499 846 561 846 l 372 846 q 302 839 324 846 q 274 814 281 832 q 265 754 267 796 l 265 465 l 481 465 q 566 488 542 465 q 589 564 590 510 q 599 571 589 571 q 607 564 608 571 q 608 519 608 540 q 607 488 607 497 q 606 451 606 475 l 607 390 q 610 322 610 346 q 601 317 610 317 q 592 322 592 317 q 565 411 592 385 q 474 438 538 438 l 265 438 l 265 118 q 273 59 265 78 q 303 33 281 40 q 372 25 325 25 l 539 25 q 642 76 597 25 q 704 208 688 126 m 282 994 q 238 1010 254 994 q 222 1053 222 1025 q 238 1094 222 1079 q 282 1110 254 1110 q 324 1094 308 1110 q 339 1053 339 1079 q 324 1010 339 1025 q 282 994 308 994 m 496 994 q 452 1010 468 994 q 436 1053 436 1025 q 452 1094 436 1079 q 496 1108 468 1108 q 538 1094 522 1108 q 553 1053 553 1079 q 538 1010 553 1025 q 496 994 522 994 z "},"Ė":{"ha":769,"x_min":60,"x_max":722,"o":"m 704 208 q 711 211 704 211 q 719 209 715 211 q 722 204 724 207 q 710 21 710 132 q 706 5 710 10 q 689 0 701 0 l 65 0 q 63 8 63 0 q 65 17 63 17 q 138 24 115 17 q 169 51 161 31 q 178 113 178 71 l 178 756 q 167 817 176 797 q 135 844 158 836 q 64 851 113 851 q 60 860 60 851 q 64 868 60 868 l 650 868 q 658 865 656 868 q 660 856 660 863 l 661 814 l 664 683 q 656 678 664 678 q 647 682 647 678 q 601 801 640 756 q 499 846 561 846 l 372 846 q 302 839 324 846 q 274 814 281 832 q 265 754 267 796 l 265 465 l 481 465 q 566 488 542 465 q 589 564 590 510 q 599 571 589 571 q 607 564 608 571 q 608 519 608 540 q 607 488 607 497 q 606 451 606 475 l 607 390 q 610 322 610 346 q 601 317 610 317 q 592 322 592 317 q 565 411 592 385 q 474 438 538 438 l 265 438 l 265 118 q 273 59 265 78 q 303 33 281 40 q 372 25 325 25 l 539 25 q 642 76 597 25 q 704 208 688 126 m 388 983 q 343 999 360 983 q 326 1043 326 1015 q 343 1085 326 1069 q 388 1101 360 1101 q 431 1086 415 1101 q 447 1043 447 1071 q 431 999 447 1015 q 388 983 415 983 z "},"Ẹ":{"ha":769,"x_min":60,"x_max":722,"o":"m 704 208 q 711 211 704 211 q 719 209 715 211 q 722 204 724 207 q 710 21 710 132 q 706 5 710 10 q 689 0 701 0 l 65 0 q 63 8 63 0 q 65 17 63 17 q 138 24 115 17 q 169 51 161 31 q 178 113 178 71 l 178 756 q 167 817 176 797 q 135 844 158 836 q 64 851 113 851 q 60 860 60 851 q 64 868 60 868 l 650 868 q 658 865 656 868 q 660 856 660 863 l 661 814 l 664 683 q 656 678 664 678 q 647 682 647 678 q 601 801 640 756 q 499 846 561 846 l 372 846 q 302 839 324 846 q 274 814 281 832 q 265 754 267 796 l 265 465 l 481 465 q 566 488 542 465 q 589 564 590 510 q 599 571 589 571 q 607 564 608 571 q 608 519 608 540 q 607 488 607 497 q 606 451 606 475 l 607 390 q 610 322 610 346 q 601 317 610 317 q 592 322 592 317 q 565 411 592 385 q 474 438 538 438 l 265 438 l 265 118 q 273 59 265 78 q 303 33 281 40 q 372 25 325 25 l 539 25 q 642 76 597 25 q 704 208 688 126 m 418 -264 q 373 -248 389 -264 q 357 -203 357 -232 q 373 -161 357 -176 q 418 -146 389 -146 q 461 -161 446 -146 q 476 -203 476 -176 q 461 -248 476 -232 q 418 -264 446 -264 z "},"È":{"ha":769,"x_min":60,"x_max":722,"o":"m 704 208 q 711 211 704 211 q 719 209 715 211 q 722 204 724 207 q 710 21 710 132 q 706 5 710 10 q 689 0 701 0 l 65 0 q 63 8 63 0 q 65 17 63 17 q 138 24 115 17 q 169 51 161 31 q 178 113 178 71 l 178 756 q 167 817 176 797 q 135 844 158 836 q 64 851 113 851 q 60 860 60 851 q 64 868 60 868 l 650 868 q 658 865 656 868 q 660 856 660 863 l 661 814 l 664 683 q 656 678 664 678 q 647 682 647 678 q 601 801 640 756 q 499 846 561 846 l 372 846 q 302 839 324 846 q 274 814 281 832 q 265 754 267 796 l 265 465 l 481 465 q 566 488 542 465 q 589 564 590 510 q 599 571 589 571 q 607 564 608 571 q 608 519 608 540 q 607 488 607 497 q 606 451 606 475 l 607 390 q 610 322 610 346 q 601 317 610 317 q 592 322 592 317 q 565 411 592 385 q 474 438 538 438 l 265 438 l 265 118 q 273 59 265 78 q 303 33 281 40 q 372 25 325 25 l 539 25 q 642 76 597 25 q 704 208 688 126 m 521 946 q 388 1003 451 979 q 243 1050 324 1028 q 252 1064 231 1053 q 303 1084 274 1075 q 340 1089 333 1093 q 528 961 444 1011 q 532 956 532 960 q 528 948 532 951 q 521 946 525 944 z "},"Ẻ":{"ha":769,"x_min":60,"x_max":722,"o":"m 704 208 q 711 211 704 211 q 719 209 715 211 q 722 204 724 207 q 710 21 710 132 q 706 5 710 10 q 689 0 701 0 l 65 0 q 63 8 63 0 q 65 17 63 17 q 138 24 115 17 q 169 51 161 31 q 178 113 178 71 l 178 756 q 167 817 176 797 q 135 844 158 836 q 64 851 113 851 q 60 860 60 851 q 64 868 60 868 l 650 868 q 658 865 656 868 q 660 856 660 863 l 661 814 l 664 683 q 656 678 664 678 q 647 682 647 678 q 601 801 640 756 q 499 846 561 846 l 372 846 q 302 839 324 846 q 274 814 281 832 q 265 754 267 796 l 265 465 l 481 465 q 566 488 542 465 q 589 564 590 510 q 599 571 589 571 q 607 564 608 571 q 608 519 608 540 q 607 488 607 497 q 606 451 606 475 l 607 390 q 610 322 610 346 q 601 317 610 317 q 592 322 592 317 q 565 411 592 385 q 474 438 538 438 l 265 438 l 265 118 q 273 59 265 78 q 303 33 281 40 q 372 25 325 25 l 539 25 q 642 76 597 25 q 704 208 688 126 m 394 903 q 388 899 397 900 q 378 903 379 899 q 372 935 372 918 q 378 969 372 954 q 399 1011 385 985 q 417 1049 411 1035 q 424 1078 424 1063 q 406 1121 424 1106 q 364 1136 389 1136 q 325 1128 342 1136 l 322 1126 q 315 1131 318 1126 q 317 1139 313 1136 q 406 1168 358 1168 q 472 1147 447 1168 q 496 1094 496 1125 q 483 1051 496 1069 q 442 1000 471 1032 q 406 958 418 976 q 393 918 393 939 q 394 903 393 908 z "},"Ē":{"ha":769,"x_min":60,"x_max":722,"o":"m 704 208 q 711 211 704 211 q 719 209 715 211 q 722 204 724 207 q 710 21 710 132 q 706 5 710 10 q 689 0 701 0 l 65 0 q 63 8 63 0 q 65 17 63 17 q 138 24 115 17 q 169 51 161 31 q 178 113 178 71 l 178 756 q 167 817 176 797 q 135 844 158 836 q 64 851 113 851 q 60 860 60 851 q 64 868 60 868 l 650 868 q 658 865 656 868 q 660 856 660 863 l 661 814 l 664 683 q 656 678 664 678 q 647 682 647 678 q 601 801 640 756 q 499 846 561 846 l 372 846 q 302 839 324 846 q 274 814 281 832 q 265 754 267 796 l 265 465 l 481 465 q 566 488 542 465 q 589 564 590 510 q 599 571 589 571 q 607 564 608 571 q 608 519 608 540 q 607 488 607 497 q 606 451 606 475 l 607 390 q 610 322 610 346 q 601 317 610 317 q 592 322 592 317 q 565 411 592 385 q 474 438 538 438 l 265 438 l 265 118 q 273 59 265 78 q 303 33 281 40 q 372 25 325 25 l 539 25 q 642 76 597 25 q 704 208 688 126 m 228 996 q 222 1003 224 996 q 219 1017 219 1010 q 228 1038 219 1038 l 558 1038 q 567 1017 567 1038 q 565 1003 567 1010 q 558 996 563 996 l 228 996 z "},"Ę":{"ha":769,"x_min":60,"x_max":724,"o":"m 628 0 q 553 -106 579 -57 q 526 -204 526 -156 q 553 -304 526 -268 q 632 -340 581 -340 q 673 -331 657 -340 q 707 -304 689 -322 l 708 -304 q 718 -309 714 -304 q 719 -317 722 -314 q 658 -367 689 -351 q 592 -382 626 -382 q 498 -344 533 -382 q 463 -246 463 -307 q 501 -129 464 -190 q 603 0 538 -68 l 65 0 q 63 8 63 0 q 65 17 63 17 q 138 24 115 17 q 169 51 161 31 q 178 113 178 71 l 178 756 q 167 817 176 797 q 135 844 158 836 q 64 851 113 851 q 60 860 60 851 q 64 868 60 868 l 650 868 q 658 865 656 868 q 660 856 660 863 l 661 814 l 664 683 q 656 678 664 678 q 647 682 647 678 q 601 801 640 756 q 499 846 561 846 l 372 846 q 302 839 324 846 q 274 814 281 832 q 265 754 267 796 l 265 465 l 481 465 q 566 488 542 465 q 589 564 590 510 q 599 571 589 571 q 607 564 608 571 q 608 519 608 540 q 607 488 607 497 q 606 451 606 475 l 607 390 q 610 322 610 346 q 601 317 610 317 q 592 322 592 317 q 565 411 592 385 q 474 438 538 438 l 265 438 l 265 118 q 273 59 265 78 q 303 33 281 40 q 372 25 325 25 l 539 25 q 642 76 597 25 q 704 208 688 126 q 711 211 704 211 q 719 209 715 211 q 722 204 724 207 q 710 21 710 132 q 706 5 710 10 q 689 0 701 0 l 628 0 z "},"Ẽ":{"ha":769,"x_min":60,"x_max":722,"o":"m 704 208 q 711 211 704 211 q 719 209 715 211 q 722 204 724 207 q 710 21 710 132 q 706 5 710 10 q 689 0 701 0 l 65 0 q 63 8 63 0 q 65 17 63 17 q 138 24 115 17 q 169 51 161 31 q 178 113 178 71 l 178 756 q 167 817 176 797 q 135 844 158 836 q 64 851 113 851 q 60 860 60 851 q 64 868 60 868 l 650 868 q 658 865 656 868 q 660 856 660 863 l 661 814 l 664 683 q 656 678 664 678 q 647 682 647 678 q 601 801 640 756 q 499 846 561 846 l 372 846 q 302 839 324 846 q 274 814 281 832 q 265 754 267 796 l 265 465 l 481 465 q 566 488 542 465 q 589 564 590 510 q 599 571 589 571 q 607 564 608 571 q 608 519 608 540 q 607 488 607 497 q 606 451 606 475 l 607 390 q 610 322 610 346 q 601 317 610 317 q 592 322 592 317 q 565 411 592 385 q 474 438 538 438 l 265 438 l 265 118 q 273 59 265 78 q 303 33 281 40 q 372 25 325 25 l 539 25 q 642 76 597 25 q 704 208 688 126 m 224 965 q 215 969 219 965 q 213 975 211 972 q 319 1061 261 1061 q 392 1047 339 1061 q 499 1028 458 1028 q 538 1037 524 1028 q 564 1065 551 1046 l 565 1065 q 574 1062 569 1065 q 576 1056 578 1058 q 526 986 547 1004 q 478 968 506 968 q 390 985 449 968 q 353 994 385 986 q 290 1003 322 1003 q 253 994 264 1003 q 225 965 242 986 l 224 965 z "},"F":{"ha":722,"x_min":56,"x_max":661,"o":"m 660 735 l 661 683 q 652 678 661 678 q 643 682 643 678 q 597 801 638 756 q 494 846 557 846 l 369 846 q 297 839 319 846 q 268 814 275 832 q 260 754 261 796 l 260 450 l 458 450 q 544 472 519 450 q 568 547 568 493 q 576 554 568 554 q 583 547 585 554 l 583 501 l 583 435 l 585 374 q 588 306 588 332 q 579 300 588 300 q 571 306 571 300 q 544 394 571 367 q 453 421 517 421 l 260 421 l 260 118 q 273 52 263 72 q 317 24 283 32 q 426 17 351 17 q 431 8 431 17 q 426 0 431 0 q 349 1 378 0 l 214 3 l 125 1 q 61 0 101 0 q 58 8 58 0 q 61 17 58 17 q 133 24 110 17 q 164 51 156 31 q 172 113 172 71 l 172 756 q 163 817 171 797 q 131 844 154 836 q 60 851 108 851 q 56 860 57 851 q 60 868 56 868 l 644 868 q 653 865 651 868 q 656 856 656 863 l 660 735 z "},"G":{"ha":947,"x_min":64,"x_max":904,"o":"m 550 -17 q 291 42 401 -17 q 122 201 181 100 q 64 431 64 303 q 131 665 64 561 q 317 826 199 768 q 581 883 435 883 q 701 870 643 883 q 797 833 760 857 q 811 819 808 825 q 815 801 814 814 l 829 649 q 822 642 829 643 q 811 646 814 640 q 709 799 783 746 q 525 853 635 853 q 260 752 356 853 q 165 481 165 651 q 219 234 165 342 q 369 67 274 126 q 586 8 465 8 q 686 22 651 8 q 737 70 721 35 q 753 175 753 106 q 744 276 753 247 q 705 314 735 304 q 600 324 675 324 q 593 335 593 324 q 599 346 593 346 q 765 339 699 339 q 896 343 829 339 q 903 333 903 343 q 897 324 904 324 q 853 315 865 325 q 838 273 842 304 q 835 161 835 242 q 840 71 835 96 q 844 39 844 46 q 841 28 844 32 q 829 22 838 25 q 550 -17 671 -17 z "},"Ğ":{"ha":947,"x_min":64,"x_max":903,"o":"m 550 -17 q 291 42 401 -17 q 122 201 181 100 q 64 431 64 303 q 131 665 64 561 q 317 826 199 768 q 581 883 435 883 q 701 870 643 883 q 797 833 760 857 q 811 819 808 825 q 815 801 814 814 l 829 649 q 822 642 829 643 q 811 646 814 640 q 709 799 783 746 q 525 853 635 853 q 260 752 356 853 q 165 481 165 651 q 219 234 165 342 q 369 67 274 126 q 586 8 465 8 q 686 22 651 8 q 737 70 721 35 q 753 175 753 106 q 744 276 753 247 q 705 314 735 304 q 600 324 675 324 q 593 335 593 324 q 599 346 593 346 q 765 339 699 339 q 896 343 829 339 q 903 333 903 343 q 897 324 904 324 q 853 315 865 325 q 838 273 842 304 q 835 161 835 242 q 840 71 835 96 q 844 39 844 46 q 841 28 844 32 q 829 22 838 25 q 550 -17 671 -17 m 538 924 q 456 956 492 924 q 408 1044 419 988 q 426 1060 407 1053 q 461 1067 444 1067 q 475 1063 475 1067 q 511 999 486 1021 q 565 976 536 976 q 618 998 593 976 q 654 1058 643 1019 q 661 1063 656 1063 q 672 1059 667 1063 q 678 1053 678 1056 q 623 957 663 990 q 538 924 583 924 z "},"Ǧ":{"ha":947,"x_min":64,"x_max":903,"o":"m 550 -17 q 291 42 401 -17 q 122 201 181 100 q 64 431 64 303 q 131 665 64 561 q 317 826 199 768 q 581 883 435 883 q 701 870 643 883 q 797 833 760 857 q 811 819 808 825 q 815 801 814 814 l 829 649 q 822 642 829 643 q 811 646 814 640 q 709 799 783 746 q 525 853 635 853 q 260 752 356 853 q 165 481 165 651 q 219 234 165 342 q 369 67 274 126 q 586 8 465 8 q 686 22 651 8 q 737 70 721 35 q 753 175 753 106 q 744 276 753 247 q 705 314 735 304 q 600 324 675 324 q 593 335 593 324 q 599 346 593 346 q 765 339 699 339 q 896 343 829 339 q 903 333 903 343 q 897 324 904 324 q 853 315 865 325 q 838 273 842 304 q 835 161 835 242 q 840 71 835 96 q 844 39 844 46 q 841 28 844 32 q 829 22 838 25 q 550 -17 671 -17 m 406 1072 l 406 1074 q 409 1081 406 1078 q 414 1082 413 1085 l 547 1003 l 672 1083 l 675 1083 q 683 1079 679 1083 q 682 1072 686 1075 l 558 938 q 546 932 554 932 q 532 938 538 932 l 406 1072 z "},"Ĝ":{"ha":947,"x_min":64,"x_max":903,"o":"m 550 -17 q 291 42 401 -17 q 122 201 181 100 q 64 431 64 303 q 131 665 64 561 q 317 826 199 768 q 581 883 435 883 q 701 870 643 883 q 797 833 760 857 q 811 819 808 825 q 815 801 814 814 l 829 649 q 822 642 829 643 q 811 646 814 640 q 709 799 783 746 q 525 853 635 853 q 260 752 356 853 q 165 481 165 651 q 219 234 165 342 q 369 67 274 126 q 586 8 465 8 q 686 22 651 8 q 737 70 721 35 q 753 175 753 106 q 744 276 753 247 q 705 314 735 304 q 600 324 675 324 q 593 335 593 324 q 599 346 593 346 q 765 339 699 339 q 896 343 829 339 q 903 333 903 343 q 897 324 904 324 q 853 315 865 325 q 838 273 842 304 q 835 161 835 242 q 840 71 835 96 q 844 39 844 46 q 841 28 844 32 q 829 22 838 25 q 550 -17 671 -17 m 421 917 q 413 920 417 917 q 413 926 410 924 l 536 1061 q 549 1068 540 1068 q 563 1061 556 1068 l 689 926 l 690 924 q 687 917 690 919 q 681 917 683 915 l 547 996 l 422 917 l 421 917 z "},"Ģ":{"ha":947,"x_min":64,"x_max":903,"o":"m 550 -17 q 291 42 401 -17 q 122 201 181 100 q 64 431 64 303 q 131 665 64 561 q 317 826 199 768 q 581 883 435 883 q 701 870 643 883 q 797 833 760 857 q 811 819 808 825 q 815 801 814 814 l 829 649 q 822 642 829 643 q 811 646 814 640 q 709 799 783 746 q 525 853 635 853 q 260 752 356 853 q 165 481 165 651 q 219 234 165 342 q 369 67 274 126 q 586 8 465 8 q 686 22 651 8 q 737 70 721 35 q 753 175 753 106 q 744 276 753 247 q 705 314 735 304 q 600 324 675 324 q 593 335 593 324 q 599 346 593 346 q 765 339 699 339 q 896 343 829 339 q 903 333 903 343 q 897 324 904 324 q 853 315 865 325 q 838 273 842 304 q 835 161 835 242 q 840 71 835 96 q 844 39 844 46 q 841 28 844 32 q 829 22 838 25 q 550 -17 671 -17 m 569 -118 q 627 -144 607 -118 q 647 -219 647 -171 q 626 -305 647 -265 q 563 -382 604 -344 q 558 -383 561 -383 q 551 -378 554 -383 q 551 -371 549 -374 q 613 -247 613 -315 q 604 -207 613 -219 q 563 -228 593 -228 q 523 -213 538 -228 q 508 -174 508 -199 q 569 -118 508 -118 z "},"Ġ":{"ha":947,"x_min":64,"x_max":903,"o":"m 550 -17 q 291 42 401 -17 q 122 201 181 100 q 64 431 64 303 q 131 665 64 561 q 317 826 199 768 q 581 883 435 883 q 701 870 643 883 q 797 833 760 857 q 811 819 808 825 q 815 801 814 814 l 829 649 q 822 642 829 643 q 811 646 814 640 q 709 799 783 746 q 525 853 635 853 q 260 752 356 853 q 165 481 165 651 q 219 234 165 342 q 369 67 274 126 q 586 8 465 8 q 686 22 651 8 q 737 70 721 35 q 753 175 753 106 q 744 276 753 247 q 705 314 735 304 q 600 324 675 324 q 593 335 593 324 q 599 346 593 346 q 765 339 699 339 q 896 343 829 339 q 903 333 903 343 q 897 324 904 324 q 853 315 865 325 q 838 273 842 304 q 835 161 835 242 q 840 71 835 96 q 844 39 844 46 q 841 28 844 32 q 829 22 838 25 q 550 -17 671 -17 m 549 983 q 504 999 521 983 q 488 1043 488 1015 q 504 1085 488 1069 q 549 1101 521 1101 q 592 1086 576 1101 q 608 1043 608 1071 q 592 999 608 1015 q 549 983 576 983 z "},"Ḡ":{"ha":947,"x_min":64,"x_max":903,"o":"m 550 -17 q 291 42 401 -17 q 122 201 181 100 q 64 431 64 303 q 131 665 64 561 q 317 826 199 768 q 581 883 435 883 q 701 870 643 883 q 797 833 760 857 q 811 819 808 825 q 815 801 814 814 l 829 649 q 822 642 829 643 q 811 646 814 640 q 709 799 783 746 q 525 853 635 853 q 260 752 356 853 q 165 481 165 651 q 219 234 165 342 q 369 67 274 126 q 586 8 465 8 q 686 22 651 8 q 737 70 721 35 q 753 175 753 106 q 744 276 753 247 q 705 314 735 304 q 600 324 675 324 q 593 335 593 324 q 599 346 593 346 q 765 339 699 339 q 896 343 829 339 q 903 333 903 343 q 897 324 904 324 q 853 315 865 325 q 838 273 842 304 q 835 161 835 242 q 840 71 835 96 q 844 39 844 46 q 841 28 844 32 q 829 22 838 25 q 550 -17 671 -17 m 383 996 q 377 1003 379 996 q 375 1017 375 1010 q 383 1038 375 1038 l 714 1038 q 722 1017 722 1038 q 720 1003 722 1010 q 714 996 718 996 l 383 996 z "},"H":{"ha":1008,"x_min":53,"x_max":954,"o":"m 950 17 q 954 8 954 17 q 950 0 954 0 q 889 1 913 0 l 796 3 l 704 1 q 639 0 681 0 q 634 8 635 0 q 639 17 633 17 q 711 24 689 17 q 741 50 733 31 q 749 113 749 69 l 747 438 l 258 438 l 258 113 q 266 50 258 69 q 297 24 274 31 q 369 17 319 17 q 372 8 372 17 q 369 0 372 0 q 306 1 329 0 l 210 3 l 121 1 q 58 0 99 0 q 53 8 54 0 q 58 17 53 17 q 131 24 107 17 q 163 51 154 31 q 171 113 171 71 l 171 756 q 162 817 169 797 q 131 844 154 836 q 61 851 108 851 q 56 860 57 851 q 61 868 56 868 l 124 867 q 213 864 176 864 q 304 867 249 864 l 371 868 q 374 860 374 868 q 371 851 374 851 q 299 843 322 851 q 268 815 276 835 q 258 753 260 794 l 258 465 l 747 465 l 747 753 q 741 815 749 794 q 711 843 733 835 q 640 851 689 851 q 635 860 635 851 q 639 868 635 868 l 701 867 q 793 864 760 864 q 883 867 828 864 l 949 868 q 953 860 953 868 q 950 851 953 851 q 878 844 901 851 q 846 817 854 836 q 836 756 838 797 l 836 113 q 846 51 838 71 q 878 24 854 31 q 950 17 901 17 z "},"Ħ":{"ha":1008,"x_min":53,"x_max":954,"o":"m 950 17 q 954 8 954 17 q 950 0 954 0 q 889 1 913 0 l 796 3 l 704 1 q 639 0 681 0 q 634 8 635 0 q 639 17 633 17 q 711 24 689 17 q 741 50 733 31 q 749 113 749 69 l 749 307 l 258 307 l 258 113 q 266 50 258 69 q 297 24 274 31 q 369 17 319 17 q 372 8 372 17 q 369 0 372 0 q 306 1 329 0 l 210 3 l 121 1 q 58 0 99 0 q 53 8 54 0 q 58 17 53 17 q 131 24 107 17 q 163 51 154 31 q 171 113 171 71 l 171 756 q 162 817 169 797 q 131 844 154 836 q 61 851 108 851 q 56 860 57 851 q 61 868 56 868 l 124 867 q 213 864 176 864 q 304 867 249 864 l 371 868 q 374 860 374 868 q 371 851 374 851 q 299 843 322 851 q 268 815 276 835 q 258 753 260 794 l 258 596 l 747 596 l 747 753 q 741 815 749 794 q 711 843 733 835 q 640 851 689 851 q 635 860 635 851 q 639 868 635 868 l 701 867 q 793 864 760 864 q 883 867 828 864 l 949 868 q 953 860 953 868 q 950 851 953 851 q 878 844 901 851 q 846 817 854 836 q 836 756 838 797 l 836 113 q 846 51 838 71 q 878 24 854 31 q 950 17 901 17 m 749 336 l 747 567 l 258 567 l 258 336 l 749 336 z "},"Ḫ":{"ha":1008,"x_min":54,"x_max":954,"o":"m 950 17 q 954 8 954 17 q 950 0 954 0 q 889 1 913 0 l 796 3 l 704 1 q 639 0 681 0 q 634 8 635 0 q 639 17 633 17 q 711 24 689 17 q 741 50 733 31 q 749 113 749 69 l 747 438 l 258 438 l 258 113 q 266 50 258 69 q 297 24 274 31 q 369 17 319 17 q 372 8 372 17 q 369 0 372 0 q 306 1 329 0 l 210 3 l 121 1 q 58 0 99 0 q 53 8 54 0 q 58 17 53 17 q 131 24 107 17 q 163 51 154 31 q 171 113 171 71 l 171 756 q 162 817 169 797 q 131 844 154 836 q 61 851 108 851 q 56 860 57 851 q 61 868 56 868 l 124 867 q 213 864 176 864 q 304 867 249 864 l 371 868 q 374 860 374 868 q 371 851 374 851 q 299 843 322 851 q 268 815 276 835 q 258 753 260 794 l 258 465 l 747 465 l 747 753 q 741 815 749 794 q 711 843 733 835 q 640 851 689 851 q 635 860 635 851 q 639 868 635 868 l 701 867 q 793 864 760 864 q 883 867 828 864 l 949 868 q 953 860 953 868 q 950 851 953 851 q 878 844 901 851 q 846 817 854 836 q 836 756 838 797 l 836 113 q 846 51 838 71 q 878 24 854 31 q 950 17 901 17 m 514 -271 q 432 -239 468 -271 q 385 -150 396 -207 q 402 -135 383 -142 q 438 -128 421 -128 q 451 -132 451 -128 q 488 -196 463 -174 q 542 -218 513 -218 q 594 -197 569 -218 q 631 -136 619 -175 q 638 -132 632 -132 q 649 -135 643 -132 q 654 -142 654 -139 q 599 -237 638 -204 q 514 -271 560 -271 z "},"Ĥ":{"ha":1008,"x_min":54,"x_max":954,"o":"m 950 17 q 954 8 954 17 q 950 0 954 0 q 889 1 913 0 l 796 3 l 704 1 q 639 0 681 0 q 634 8 635 0 q 639 17 633 17 q 711 24 689 17 q 741 50 733 31 q 749 113 749 69 l 747 438 l 258 438 l 258 113 q 266 50 258 69 q 297 24 274 31 q 369 17 319 17 q 372 8 372 17 q 369 0 372 0 q 306 1 329 0 l 210 3 l 121 1 q 58 0 99 0 q 53 8 54 0 q 58 17 53 17 q 131 24 107 17 q 163 51 154 31 q 171 113 171 71 l 171 756 q 162 817 169 797 q 131 844 154 836 q 61 851 108 851 q 56 860 57 851 q 61 868 56 868 l 124 867 q 213 864 176 864 q 304 867 249 864 l 371 868 q 374 860 374 868 q 371 851 374 851 q 299 843 322 851 q 268 815 276 835 q 258 753 260 794 l 258 465 l 747 465 l 747 753 q 741 815 749 794 q 711 843 733 835 q 640 851 689 851 q 635 860 635 851 q 639 868 635 868 l 701 867 q 793 864 760 864 q 883 867 828 864 l 949 868 q 953 860 953 868 q 950 851 953 851 q 878 844 901 851 q 846 817 854 836 q 836 756 838 797 l 836 113 q 846 51 838 71 q 878 24 854 31 q 950 17 901 17 m 378 917 q 370 920 374 917 q 369 926 367 924 l 493 1061 q 506 1068 497 1068 q 519 1061 513 1068 l 646 926 l 647 924 q 644 917 647 919 q 638 917 640 915 l 504 996 l 379 917 l 378 917 z "},"Ḥ":{"ha":1008,"x_min":54,"x_max":954,"o":"m 950 17 q 954 8 954 17 q 950 0 954 0 q 889 1 913 0 l 796 3 l 704 1 q 639 0 681 0 q 634 8 635 0 q 639 17 633 17 q 711 24 689 17 q 741 50 733 31 q 749 113 749 69 l 747 438 l 258 438 l 258 113 q 266 50 258 69 q 297 24 274 31 q 369 17 319 17 q 372 8 372 17 q 369 0 372 0 q 306 1 329 0 l 210 3 l 121 1 q 58 0 99 0 q 53 8 54 0 q 58 17 53 17 q 131 24 107 17 q 163 51 154 31 q 171 113 171 71 l 171 756 q 162 817 169 797 q 131 844 154 836 q 61 851 108 851 q 56 860 57 851 q 61 868 56 868 l 124 867 q 213 864 176 864 q 304 867 249 864 l 371 868 q 374 860 374 868 q 371 851 374 851 q 299 843 322 851 q 268 815 276 835 q 258 753 260 794 l 258 465 l 747 465 l 747 753 q 741 815 749 794 q 711 843 733 835 q 640 851 689 851 q 635 860 635 851 q 639 868 635 868 l 701 867 q 793 864 760 864 q 883 867 828 864 l 949 868 q 953 860 953 868 q 950 851 953 851 q 878 844 901 851 q 846 817 854 836 q 836 756 838 797 l 836 113 q 846 51 838 71 q 878 24 854 31 q 950 17 901 17 m 529 -264 q 484 -248 500 -264 q 468 -203 468 -232 q 484 -161 468 -176 q 529 -146 500 -146 q 572 -161 557 -146 q 588 -203 588 -176 q 572 -248 588 -232 q 529 -264 557 -264 z "},"I":{"ha":454,"x_min":67,"x_max":388,"o":"m 71 0 q 67 8 67 0 q 71 17 67 17 q 143 24 119 17 q 175 51 167 31 q 182 113 183 71 l 182 756 q 174 817 182 797 q 142 844 165 836 q 71 851 119 851 q 67 860 67 851 q 71 868 67 868 l 135 867 q 225 864 190 864 q 322 867 267 864 l 383 868 q 388 860 388 868 q 383 851 388 851 q 312 843 335 851 q 281 815 289 835 q 272 753 274 794 l 272 113 q 281 50 274 69 q 311 24 289 31 q 383 17 333 17 q 388 8 388 17 q 385 0 388 0 q 322 1 344 0 l 229 3 l 138 1 q 71 0 114 0 z "},"Ĳ":{"ha":929,"x_min":42,"x_max":900,"o":"m 50 374 q 42 382 43 374 q 49 390 42 390 q 124 397 100 390 q 156 424 147 404 q 164 486 164 443 l 164 756 q 156 817 164 797 q 124 844 147 836 q 49 851 100 851 q 43 860 43 851 q 49 868 43 868 l 119 867 q 213 864 178 864 q 314 867 253 864 l 378 868 q 385 860 385 868 q 378 851 385 851 q 302 843 326 851 q 269 815 278 835 q 260 753 261 794 l 260 486 q 267 424 260 443 q 299 397 275 404 q 375 390 322 390 q 381 382 381 390 q 378 374 382 374 q 308 375 333 374 l 210 376 l 117 375 q 50 374 93 374 m 461 -18 q 306 13 376 -18 q 197 93 236 44 q 157 189 157 142 q 167 226 156 213 q 201 239 179 239 q 246 219 233 239 q 269 154 258 199 q 294 78 279 108 q 346 25 308 47 q 454 3 383 3 q 638 75 579 3 q 697 278 697 147 l 697 756 q 688 817 697 797 q 652 844 679 836 q 565 851 625 851 q 560 860 560 851 q 565 868 560 868 l 644 867 q 743 864 706 864 q 833 867 778 864 l 894 868 q 900 860 900 868 q 894 851 900 851 q 827 843 849 851 q 798 815 806 835 q 789 753 790 794 l 792 358 q 750 154 792 239 q 633 26 708 69 q 461 -18 558 -18 z "},"Í":{"ha":454,"x_min":67,"x_max":433,"o":"m 71 0 q 67 8 67 0 q 71 17 67 17 q 143 24 119 17 q 175 51 167 31 q 182 113 183 71 l 182 756 q 174 817 182 797 q 142 844 165 836 q 71 851 119 851 q 67 860 67 851 q 71 868 67 868 l 135 867 q 225 864 190 864 q 322 867 267 864 l 383 868 q 388 860 388 868 q 383 851 388 851 q 312 843 335 851 q 281 815 289 835 q 272 753 274 794 l 272 113 q 281 50 274 69 q 311 24 289 31 q 383 17 333 17 q 388 8 388 17 q 385 0 388 0 q 322 1 344 0 l 229 3 l 138 1 q 71 0 114 0 m 139 942 q 131 948 133 942 q 132 957 128 954 q 269 1046 182 985 q 306 1069 290 1058 q 333 1089 322 1081 q 368 1084 339 1093 q 419 1064 397 1075 q 431 1050 440 1053 q 142 943 282 1011 l 139 942 z "},"Ĭ":{"ha":454,"x_min":67,"x_max":388,"o":"m 71 0 q 67 8 67 0 q 71 17 67 17 q 143 24 119 17 q 175 51 167 31 q 182 113 183 71 l 182 756 q 174 817 182 797 q 142 844 165 836 q 71 851 119 851 q 67 860 67 851 q 71 868 67 868 l 135 867 q 225 864 190 864 q 322 867 267 864 l 383 868 q 388 860 388 868 q 383 851 388 851 q 312 843 335 851 q 281 815 289 835 q 272 753 274 794 l 272 113 q 281 50 274 69 q 311 24 289 31 q 383 17 333 17 q 388 8 388 17 q 385 0 388 0 q 322 1 344 0 l 229 3 l 138 1 q 71 0 114 0 m 221 924 q 139 956 175 924 q 92 1044 103 988 q 109 1060 90 1053 q 144 1067 128 1067 q 158 1063 158 1067 q 194 999 169 1021 q 249 976 219 976 q 301 998 276 976 q 338 1058 326 1019 q 344 1063 340 1063 q 356 1059 350 1063 q 361 1053 361 1056 q 306 957 346 990 q 221 924 267 924 z "},"Ǐ":{"ha":454,"x_min":67,"x_max":388,"o":"m 71 0 q 67 8 67 0 q 71 17 67 17 q 143 24 119 17 q 175 51 167 31 q 182 113 183 71 l 182 756 q 174 817 182 797 q 142 844 165 836 q 71 851 119 851 q 67 860 67 851 q 71 868 67 868 l 135 867 q 225 864 190 864 q 322 867 267 864 l 383 868 q 388 860 388 868 q 383 851 388 851 q 312 843 335 851 q 281 815 289 835 q 272 753 274 794 l 272 113 q 281 50 274 69 q 311 24 289 31 q 383 17 333 17 q 388 8 388 17 q 385 0 388 0 q 322 1 344 0 l 229 3 l 138 1 q 71 0 114 0 m 81 1072 l 81 1074 q 84 1081 81 1078 q 89 1082 88 1085 l 222 1003 l 347 1083 l 350 1083 q 358 1079 354 1083 q 357 1072 361 1075 l 233 938 q 221 932 229 932 q 207 938 213 932 l 81 1072 z "},"Î":{"ha":454,"x_min":67,"x_max":388,"o":"m 71 0 q 67 8 67 0 q 71 17 67 17 q 143 24 119 17 q 175 51 167 31 q 182 113 183 71 l 182 756 q 174 817 182 797 q 142 844 165 836 q 71 851 119 851 q 67 860 67 851 q 71 868 67 868 l 135 867 q 225 864 190 864 q 322 867 267 864 l 383 868 q 388 860 388 868 q 383 851 388 851 q 312 843 335 851 q 281 815 289 835 q 272 753 274 794 l 272 113 q 281 50 274 69 q 311 24 289 31 q 383 17 333 17 q 388 8 388 17 q 385 0 388 0 q 322 1 344 0 l 229 3 l 138 1 q 71 0 114 0 m 96 917 q 88 920 92 917 q 88 926 85 924 l 211 1061 q 224 1068 215 1068 q 238 1061 231 1068 l 364 926 l 365 924 q 362 917 365 919 q 356 917 358 915 l 222 996 l 97 917 l 96 917 z "},"Ï":{"ha":454,"x_min":67,"x_max":388,"o":"m 71 0 q 67 8 67 0 q 71 17 67 17 q 143 24 119 17 q 175 51 167 31 q 182 113 183 71 l 182 756 q 174 817 182 797 q 142 844 165 836 q 71 851 119 851 q 67 860 67 851 q 71 868 67 868 l 135 867 q 225 864 190 864 q 322 867 267 864 l 383 868 q 388 860 388 868 q 383 851 388 851 q 312 843 335 851 q 281 815 289 835 q 272 753 274 794 l 272 113 q 281 50 274 69 q 311 24 289 31 q 383 17 333 17 q 388 8 388 17 q 385 0 388 0 q 322 1 344 0 l 229 3 l 138 1 q 71 0 114 0 m 131 994 q 87 1010 103 994 q 71 1053 71 1026 q 87 1094 71 1079 q 131 1110 103 1110 q 174 1094 158 1110 q 189 1053 189 1079 q 174 1010 189 1025 q 131 994 158 994 m 321 994 q 277 1010 293 994 q 261 1053 261 1025 q 277 1094 261 1079 q 321 1110 293 1110 q 363 1094 347 1110 q 378 1053 378 1079 q 363 1010 378 1025 q 321 994 347 994 z "},"İ":{"ha":454,"x_min":67,"x_max":388,"o":"m 71 0 q 67 8 67 0 q 71 17 67 17 q 143 24 119 17 q 175 51 167 31 q 182 113 183 71 l 182 756 q 174 817 182 797 q 142 844 165 836 q 71 851 119 851 q 67 860 67 851 q 71 868 67 868 l 135 867 q 225 864 190 864 q 322 867 267 864 l 383 868 q 388 860 388 868 q 383 851 388 851 q 312 843 335 851 q 281 815 289 835 q 272 753 274 794 l 272 113 q 281 50 274 69 q 311 24 289 31 q 383 17 333 17 q 388 8 388 17 q 385 0 388 0 q 322 1 344 0 l 229 3 l 138 1 q 71 0 114 0 m 224 983 q 179 999 196 983 q 163 1043 163 1015 q 179 1085 163 1069 q 224 1101 196 1101 q 267 1086 251 1101 q 283 1043 283 1071 q 267 999 283 1015 q 224 983 251 983 z "},"Ị":{"ha":454,"x_min":67,"x_max":388,"o":"m 71 0 q 67 8 67 0 q 71 17 67 17 q 143 24 119 17 q 175 51 167 31 q 182 113 183 71 l 182 756 q 174 817 182 797 q 142 844 165 836 q 71 851 119 851 q 67 860 67 851 q 71 868 67 868 l 135 867 q 225 864 190 864 q 322 867 267 864 l 383 868 q 388 860 388 868 q 383 851 388 851 q 312 843 335 851 q 281 815 289 835 q 272 753 274 794 l 272 113 q 281 50 274 69 q 311 24 289 31 q 383 17 333 17 q 388 8 388 17 q 385 0 388 0 q 322 1 344 0 l 229 3 l 138 1 q 71 0 114 0 m 233 -264 q 188 -248 204 -264 q 172 -203 172 -232 q 188 -161 172 -176 q 233 -146 204 -146 q 276 -161 261 -146 q 292 -203 292 -176 q 276 -248 292 -232 q 233 -264 261 -264 z "},"Ì":{"ha":454,"x_min":67,"x_max":388,"o":"m 71 0 q 67 8 67 0 q 71 17 67 17 q 143 24 119 17 q 175 51 167 31 q 182 113 183 71 l 182 756 q 174 817 182 797 q 142 844 165 836 q 71 851 119 851 q 67 860 67 851 q 71 868 67 868 l 135 867 q 225 864 190 864 q 322 867 267 864 l 383 868 q 388 860 388 868 q 383 851 388 851 q 312 843 335 851 q 281 815 289 835 q 272 753 274 794 l 272 113 q 281 50 274 69 q 311 24 289 31 q 383 17 333 17 q 388 8 388 17 q 385 0 388 0 q 322 1 344 0 l 229 3 l 138 1 q 71 0 114 0 m 357 946 q 224 1003 288 979 q 79 1050 160 1028 q 88 1064 67 1053 q 140 1084 110 1075 q 176 1089 169 1093 q 364 961 281 1011 q 368 956 368 960 q 365 948 368 951 q 357 946 361 944 z "},"Ỉ":{"ha":454,"x_min":67,"x_max":388,"o":"m 71 0 q 67 8 67 0 q 71 17 67 17 q 143 24 119 17 q 175 51 167 31 q 182 113 183 71 l 182 756 q 174 817 182 797 q 142 844 165 836 q 71 851 119 851 q 67 860 67 851 q 71 868 67 868 l 135 867 q 225 864 190 864 q 322 867 267 864 l 383 868 q 388 860 388 868 q 383 851 388 851 q 312 843 335 851 q 281 815 289 835 q 272 753 274 794 l 272 113 q 281 50 274 69 q 311 24 289 31 q 383 17 333 17 q 388 8 388 17 q 385 0 388 0 q 322 1 344 0 l 229 3 l 138 1 q 71 0 114 0 m 231 903 q 224 899 233 900 q 214 903 215 899 q 208 935 208 918 q 215 969 208 954 q 235 1011 221 985 q 253 1049 247 1035 q 260 1078 260 1063 q 242 1121 260 1106 q 200 1136 225 1136 q 161 1128 178 1136 l 158 1126 q 151 1131 154 1126 q 153 1139 149 1136 q 242 1168 194 1168 q 308 1147 283 1168 q 332 1094 332 1125 q 319 1051 332 1069 q 278 1000 307 1032 q 242 958 254 976 q 229 918 229 939 q 231 903 229 908 z "},"Ī":{"ha":454,"x_min":56,"x_max":403,"o":"m 71 0 q 67 8 67 0 q 71 17 67 17 q 143 24 119 17 q 175 51 167 31 q 182 113 183 71 l 182 756 q 174 817 182 797 q 142 844 165 836 q 71 851 119 851 q 67 860 67 851 q 71 868 67 868 l 135 867 q 225 864 190 864 q 322 867 267 864 l 383 868 q 388 860 388 868 q 383 851 388 851 q 312 843 335 851 q 281 815 289 835 q 272 753 274 794 l 272 113 q 281 50 274 69 q 311 24 289 31 q 383 17 333 17 q 388 8 388 17 q 385 0 388 0 q 322 1 344 0 l 229 3 l 138 1 q 71 0 114 0 m 64 996 q 58 1003 60 996 q 56 1017 56 1010 q 64 1038 56 1038 l 394 1038 q 403 1017 403 1038 q 401 1003 403 1010 q 394 996 399 996 l 64 996 z "},"Į":{"ha":454,"x_min":67,"x_max":388,"o":"m 383 17 q 388 8 388 17 q 385 0 388 0 q 324 1 346 0 l 235 3 q 176 -204 174 -94 q 199 -303 176 -267 q 263 -339 222 -339 q 301 -330 285 -339 q 332 -306 317 -321 l 333 -306 q 342 -310 338 -306 q 344 -317 346 -314 q 288 -367 314 -351 q 229 -382 261 -382 q 144 -344 176 -382 q 111 -246 111 -307 q 215 3 111 -136 l 133 1 q 71 0 111 0 q 67 8 67 0 q 71 17 67 17 q 143 24 119 17 q 175 51 167 31 q 182 113 183 71 l 182 756 q 174 817 182 797 q 142 844 165 836 q 71 851 119 851 q 67 860 67 851 q 71 868 67 868 l 135 867 q 225 864 190 864 q 322 867 267 864 l 383 868 q 388 860 388 868 q 383 851 388 851 q 312 843 335 851 q 281 815 289 835 q 272 753 274 794 l 272 113 q 281 50 274 69 q 311 24 289 31 q 383 17 333 17 z "},"Ĩ":{"ha":454,"x_min":44,"x_max":407,"o":"m 71 0 q 67 8 67 0 q 71 17 67 17 q 143 24 119 17 q 175 51 167 31 q 182 113 183 71 l 182 756 q 174 817 182 797 q 142 844 165 836 q 71 851 119 851 q 67 860 67 851 q 71 868 67 868 l 135 867 q 225 864 190 864 q 322 867 267 864 l 383 868 q 388 860 388 868 q 383 851 388 851 q 312 843 335 851 q 281 815 289 835 q 272 753 274 794 l 272 113 q 281 50 274 69 q 311 24 289 31 q 383 17 333 17 q 388 8 388 17 q 385 0 388 0 q 322 1 344 0 l 229 3 l 138 1 q 71 0 114 0 m 54 965 q 47 969 51 965 q 44 975 43 972 q 151 1061 93 1061 q 224 1047 171 1061 q 329 1028 290 1028 q 368 1037 354 1028 q 396 1065 382 1046 l 397 1065 q 405 1062 401 1065 q 407 1056 408 1058 q 359 986 381 1004 q 310 968 338 968 q 221 985 282 968 q 184 994 215 986 q 121 1003 153 1003 q 88 997 99 1003 q 68 981 76 990 q 56 965 60 971 l 54 965 z "},"J":{"ha":413,"x_min":50,"x_max":374,"o":"m 64 -269 q 55 -263 60 -271 q 56 -253 50 -256 q 143 -139 117 -215 q 167 56 169 -62 l 167 756 q 158 817 167 797 q 126 844 150 836 q 54 851 103 851 q 51 860 51 851 q 54 868 51 868 l 119 867 q 210 864 175 864 q 308 867 250 864 l 368 868 q 373 860 374 868 q 368 851 372 851 q 297 843 319 851 q 266 815 274 835 q 257 753 258 794 l 257 93 q 238 -83 257 -15 q 178 -193 219 -150 q 64 -269 138 -236 z "},"Ĵ":{"ha":413,"x_min":51,"x_max":372,"o":"m 64 -269 q 55 -263 60 -271 q 56 -253 50 -256 q 143 -139 117 -215 q 167 56 169 -62 l 167 756 q 158 817 167 797 q 126 844 150 836 q 54 851 103 851 q 51 860 51 851 q 54 868 51 868 l 119 867 q 210 864 175 864 q 308 867 250 864 l 368 868 q 373 860 374 868 q 368 851 372 851 q 297 843 319 851 q 266 815 274 835 q 257 753 258 794 l 257 93 q 238 -83 257 -15 q 178 -193 219 -150 q 64 -269 138 -236 m 78 917 q 70 920 74 917 q 69 926 67 924 l 193 1061 q 206 1068 197 1068 q 219 1061 213 1068 l 346 926 l 347 924 q 344 917 347 919 q 338 917 340 915 l 204 996 l 79 917 l 78 917 z "},"K":{"ha":892,"x_min":53,"x_max":885,"o":"m 881 17 q 885 8 885 17 q 881 0 885 0 l 754 0 q 684 7 700 0 q 607 94 668 14 q 521 206 546 174 l 307 471 l 258 425 l 258 113 q 263 48 258 65 q 285 24 267 31 q 354 17 304 17 q 358 8 358 17 q 354 0 358 0 q 297 1 317 0 l 208 3 l 121 1 q 57 0 97 0 q 53 8 54 0 q 57 17 53 17 q 129 24 106 17 q 162 51 153 32 q 171 113 171 71 l 171 756 q 162 817 169 797 q 131 844 154 836 q 61 851 108 851 q 56 860 57 851 q 61 868 56 868 l 124 867 q 213 864 176 864 q 304 867 249 864 l 371 868 q 374 860 374 868 q 371 851 374 851 q 299 843 322 851 q 268 815 276 835 q 258 753 260 794 l 258 457 l 565 756 q 608 824 608 803 q 533 851 608 851 q 531 860 531 851 q 533 868 531 868 l 592 867 q 689 864 644 864 q 778 867 731 864 l 826 868 q 829 860 829 868 q 826 851 829 851 q 711 827 771 851 q 599 749 651 803 l 367 529 l 568 281 q 724 99 671 154 q 807 31 776 44 q 881 17 838 17 z "},"Ḱ":{"ha":892,"x_min":53,"x_max":885,"o":"m 881 17 q 885 8 885 17 q 881 0 885 0 l 754 0 q 684 7 700 0 q 607 94 668 14 q 521 206 546 174 l 307 471 l 258 425 l 258 113 q 263 48 258 65 q 285 24 267 31 q 354 17 304 17 q 358 8 358 17 q 354 0 358 0 q 297 1 317 0 l 208 3 l 121 1 q 57 0 97 0 q 53 8 54 0 q 57 17 53 17 q 129 24 106 17 q 162 51 153 32 q 171 113 171 71 l 171 756 q 162 817 169 797 q 131 844 154 836 q 61 851 108 851 q 56 860 57 851 q 61 868 56 868 l 124 867 q 213 864 176 864 q 304 867 249 864 l 371 868 q 374 860 374 868 q 371 851 374 851 q 299 843 322 851 q 268 815 276 835 q 258 753 260 794 l 258 457 l 565 756 q 608 824 608 803 q 533 851 608 851 q 531 860 531 851 q 533 868 531 868 l 592 867 q 689 864 644 864 q 778 867 731 864 l 826 868 q 829 860 829 868 q 826 851 829 851 q 711 827 771 851 q 599 749 651 803 l 367 529 l 568 281 q 724 99 671 154 q 807 31 776 44 q 881 17 838 17 m 375 942 q 367 948 369 942 q 368 957 364 954 q 506 1046 418 985 q 542 1069 526 1058 q 569 1089 558 1081 q 604 1084 575 1093 q 655 1064 633 1075 q 667 1050 676 1053 q 378 943 518 1011 l 375 942 z "},"Ǩ":{"ha":892,"x_min":53,"x_max":885,"o":"m 881 17 q 885 8 885 17 q 881 0 885 0 l 754 0 q 684 7 700 0 q 607 94 668 14 q 521 206 546 174 l 307 471 l 258 425 l 258 113 q 263 48 258 65 q 285 24 267 31 q 354 17 304 17 q 358 8 358 17 q 354 0 358 0 q 297 1 317 0 l 208 3 l 121 1 q 57 0 97 0 q 53 8 54 0 q 57 17 53 17 q 129 24 106 17 q 162 51 153 32 q 171 113 171 71 l 171 756 q 162 817 169 797 q 131 844 154 836 q 61 851 108 851 q 56 860 57 851 q 61 868 56 868 l 124 867 q 213 864 176 864 q 304 867 249 864 l 371 868 q 374 860 374 868 q 371 851 374 851 q 299 843 322 851 q 268 815 276 835 q 258 753 260 794 l 258 457 l 565 756 q 608 824 608 803 q 533 851 608 851 q 531 860 531 851 q 533 868 531 868 l 592 867 q 689 864 644 864 q 778 867 731 864 l 826 868 q 829 860 829 868 q 826 851 829 851 q 711 827 771 851 q 599 749 651 803 l 367 529 l 568 281 q 724 99 671 154 q 807 31 776 44 q 881 17 838 17 m 317 1072 l 317 1074 q 320 1081 317 1078 q 325 1082 324 1085 l 458 1003 l 583 1083 l 586 1083 q 594 1079 590 1083 q 593 1072 597 1075 l 469 938 q 457 932 465 932 q 443 938 449 932 l 317 1072 z "},"Ķ":{"ha":892,"x_min":53,"x_max":885,"o":"m 881 17 q 885 8 885 17 q 881 0 885 0 l 754 0 q 684 7 700 0 q 607 94 668 14 q 521 206 546 174 l 307 471 l 258 425 l 258 113 q 263 48 258 65 q 285 24 267 31 q 354 17 304 17 q 358 8 358 17 q 354 0 358 0 q 297 1 317 0 l 208 3 l 121 1 q 57 0 97 0 q 53 8 54 0 q 57 17 53 17 q 129 24 106 17 q 162 51 153 32 q 171 113 171 71 l 171 756 q 162 817 169 797 q 131 844 154 836 q 61 851 108 851 q 56 860 57 851 q 61 868 56 868 l 124 867 q 213 864 176 864 q 304 867 249 864 l 371 868 q 374 860 374 868 q 371 851 374 851 q 299 843 322 851 q 268 815 276 835 q 258 753 260 794 l 258 457 l 565 756 q 608 824 608 803 q 533 851 608 851 q 531 860 531 851 q 533 868 531 868 l 592 867 q 689 864 644 864 q 778 867 731 864 l 826 868 q 829 860 829 868 q 826 851 829 851 q 711 827 771 851 q 599 749 651 803 l 367 529 l 568 281 q 724 99 671 154 q 807 31 776 44 q 881 17 838 17 m 493 -118 q 551 -144 531 -118 q 571 -219 571 -171 q 549 -305 571 -265 q 486 -382 528 -344 q 482 -383 485 -383 q 475 -378 478 -383 q 475 -371 472 -374 q 536 -247 536 -315 q 528 -207 536 -219 q 486 -228 517 -228 q 447 -213 461 -228 q 432 -174 432 -199 q 493 -118 432 -118 z "},"L":{"ha":742,"x_min":54,"x_max":731,"o":"m 60 0 q 55 8 56 0 q 60 17 54 17 q 131 24 108 17 q 163 51 154 31 q 171 113 171 71 l 171 756 q 162 817 169 797 q 131 844 154 836 q 61 851 108 851 q 56 860 57 851 q 61 868 56 868 l 124 867 q 213 864 176 864 q 304 867 249 864 l 371 868 q 374 860 374 868 q 371 851 374 851 q 299 844 322 851 q 267 816 275 836 q 258 754 260 796 l 258 118 q 267 59 260 78 q 297 33 275 40 q 364 25 318 25 l 515 25 q 647 73 600 25 q 713 211 693 121 q 719 214 713 214 q 731 210 731 214 q 721 21 721 119 q 699 0 721 0 l 60 0 z "},"Ĺ":{"ha":742,"x_min":56,"x_max":731,"o":"m 60 0 q 55 8 56 0 q 60 17 54 17 q 131 24 108 17 q 163 51 154 31 q 171 113 171 71 l 171 756 q 162 817 169 797 q 131 844 154 836 q 61 851 108 851 q 56 860 57 851 q 61 868 56 868 l 124 867 q 213 864 176 864 q 304 867 249 864 l 371 868 q 374 860 374 868 q 371 851 374 851 q 299 844 322 851 q 267 816 275 836 q 258 754 260 796 l 258 118 q 267 59 260 78 q 297 33 275 40 q 364 25 318 25 l 515 25 q 647 73 600 25 q 713 211 693 121 q 719 214 713 214 q 731 210 731 214 q 721 21 721 119 q 699 0 721 0 l 60 0 m 126 942 q 118 948 121 942 q 119 957 115 954 q 257 1046 169 985 q 294 1069 278 1058 q 321 1089 310 1081 q 356 1084 326 1093 q 406 1064 385 1075 q 418 1050 428 1053 q 129 943 269 1011 l 126 942 z "},"Ľ":{"ha":742,"x_min":56,"x_max":731,"o":"m 60 0 q 55 8 56 0 q 60 17 54 17 q 131 24 108 17 q 163 51 154 31 q 171 113 171 71 l 171 756 q 162 817 169 797 q 131 844 154 836 q 61 851 108 851 q 56 860 57 851 q 61 868 56 868 l 124 867 q 213 864 176 864 q 304 867 249 864 l 371 868 q 374 860 374 868 q 371 851 374 851 q 299 844 322 851 q 267 816 275 836 q 258 754 260 796 l 258 118 q 267 59 260 78 q 297 33 275 40 q 364 25 318 25 l 515 25 q 647 73 600 25 q 713 211 693 121 q 719 214 713 214 q 731 210 731 214 q 721 21 721 119 q 699 0 721 0 l 60 0 m 550 868 q 569 867 551 875 q 603 845 586 858 q 618 825 619 832 l 575 490 q 567 488 574 488 q 560 490 561 488 l 550 868 z "},"Ļ":{"ha":742,"x_min":56,"x_max":731,"o":"m 60 0 q 55 8 56 0 q 60 17 54 17 q 131 24 108 17 q 163 51 154 31 q 171 113 171 71 l 171 756 q 162 817 169 797 q 131 844 154 836 q 61 851 108 851 q 56 860 57 851 q 61 868 56 868 l 124 867 q 213 864 176 864 q 304 867 249 864 l 371 868 q 374 860 374 868 q 371 851 374 851 q 299 844 322 851 q 267 816 275 836 q 258 754 260 796 l 258 118 q 267 59 260 78 q 297 33 275 40 q 364 25 318 25 l 515 25 q 647 73 600 25 q 713 211 693 121 q 719 214 713 214 q 731 210 731 214 q 721 21 721 119 q 699 0 721 0 l 60 0 m 426 -118 q 484 -144 464 -118 q 504 -219 504 -171 q 483 -305 504 -265 q 419 -382 461 -344 q 415 -383 418 -383 q 408 -378 411 -383 q 408 -371 406 -374 q 469 -247 469 -315 q 461 -207 469 -219 q 419 -228 450 -228 q 380 -213 394 -228 q 365 -174 365 -199 q 426 -118 365 -118 z "},"Ŀ":{"ha":742,"x_min":56,"x_max":731,"o":"m 60 0 q 55 8 56 0 q 60 17 54 17 q 131 24 108 17 q 163 51 154 31 q 171 113 171 71 l 171 756 q 162 817 169 797 q 131 844 154 836 q 61 851 108 851 q 56 860 57 851 q 61 868 56 868 l 124 867 q 213 864 176 864 q 304 867 249 864 l 371 868 q 374 860 374 868 q 371 851 374 851 q 299 844 322 851 q 267 816 275 836 q 258 754 260 796 l 258 118 q 267 59 260 78 q 297 33 275 40 q 364 25 318 25 l 515 25 q 647 73 600 25 q 713 211 693 121 q 719 214 713 214 q 731 210 731 214 q 721 21 721 119 q 699 0 721 0 l 60 0 m 604 388 q 559 403 575 388 q 543 449 543 419 q 559 490 543 475 q 604 506 575 506 q 647 490 632 506 q 663 449 663 475 q 647 403 663 419 q 604 388 632 388 z "},"Ḷ":{"ha":742,"x_min":56,"x_max":731,"o":"m 60 0 q 55 8 56 0 q 60 17 54 17 q 131 24 108 17 q 163 51 154 31 q 171 113 171 71 l 171 756 q 162 817 169 797 q 131 844 154 836 q 61 851 108 851 q 56 860 57 851 q 61 868 56 868 l 124 867 q 213 864 176 864 q 304 867 249 864 l 371 868 q 374 860 374 868 q 371 851 374 851 q 299 844 322 851 q 267 816 275 836 q 258 754 260 796 l 258 118 q 267 59 260 78 q 297 33 275 40 q 364 25 318 25 l 515 25 q 647 73 600 25 q 713 211 693 121 q 719 214 713 214 q 731 210 731 214 q 721 21 721 119 q 699 0 721 0 l 60 0 m 431 -264 q 385 -248 401 -264 q 369 -203 369 -232 q 385 -161 369 -176 q 431 -146 401 -146 q 474 -161 458 -146 q 489 -203 489 -176 q 474 -248 489 -232 q 431 -264 458 -264 z "},"Ḹ":{"ha":742,"x_min":38,"x_max":731,"o":"m 60 0 q 55 8 56 0 q 60 17 54 17 q 131 24 108 17 q 163 51 154 31 q 171 113 171 71 l 171 756 q 162 817 169 797 q 131 844 154 836 q 61 851 108 851 q 56 860 57 851 q 61 868 56 868 l 124 867 q 213 864 176 864 q 304 867 249 864 l 371 868 q 374 860 374 868 q 371 851 374 851 q 299 844 322 851 q 267 816 275 836 q 258 754 260 796 l 258 118 q 267 59 260 78 q 297 33 275 40 q 364 25 318 25 l 515 25 q 647 73 600 25 q 713 211 693 121 q 719 214 713 214 q 731 210 731 214 q 721 21 721 119 q 699 0 721 0 l 60 0 m 431 -264 q 385 -248 401 -264 q 369 -203 369 -232 q 385 -161 369 -176 q 431 -146 401 -146 q 474 -161 458 -146 q 489 -203 489 -176 q 474 -248 489 -232 q 431 -264 458 -264 m 46 996 q 40 1003 42 996 q 38 1017 38 1010 q 46 1038 38 1038 l 376 1038 q 385 1017 385 1038 q 383 1003 385 1010 q 376 996 381 996 l 46 996 z "},"Ḻ":{"ha":742,"x_min":56,"x_max":731,"o":"m 60 0 q 55 8 56 0 q 60 17 54 17 q 131 24 108 17 q 163 51 154 31 q 171 113 171 71 l 171 756 q 162 817 169 797 q 131 844 154 836 q 61 851 108 851 q 56 860 57 851 q 61 868 56 868 l 124 867 q 213 864 176 864 q 304 867 249 864 l 371 868 q 374 860 374 868 q 371 851 374 851 q 299 844 322 851 q 267 816 275 836 q 258 754 260 796 l 258 118 q 267 59 260 78 q 297 33 275 40 q 364 25 318 25 l 515 25 q 647 73 600 25 q 713 211 693 121 q 719 214 713 214 q 731 210 731 214 q 721 21 721 119 q 699 0 721 0 l 60 0 m 258 -164 q 250 -143 250 -164 q 252 -129 250 -136 q 258 -122 254 -122 l 589 -122 q 595 -129 593 -122 q 597 -143 597 -136 q 589 -164 597 -164 l 258 -164 z "},"Ł":{"ha":779,"x_min":92,"x_max":768,"o":"m 750 211 q 757 214 750 214 q 768 210 768 214 q 758 21 758 119 q 736 0 758 0 l 97 0 q 92 8 93 0 q 97 17 92 17 q 169 24 146 17 q 200 51 192 31 q 208 113 208 71 l 208 383 l 121 326 l 119 326 q 107 336 114 326 q 103 349 100 346 l 208 418 l 208 756 q 199 817 207 797 q 169 844 192 836 q 99 851 146 851 q 94 860 94 851 q 99 868 93 868 l 161 867 q 250 864 214 864 q 342 867 286 864 l 408 868 q 411 860 411 868 q 408 851 411 851 q 336 844 360 851 q 305 816 313 836 q 296 754 297 796 l 296 475 l 386 535 l 388 535 q 401 524 393 535 q 404 511 410 514 l 296 440 l 296 118 q 305 59 297 78 q 334 33 313 40 q 401 25 356 25 l 553 25 q 684 73 638 25 q 750 211 731 121 z "},"M":{"ha":1101,"x_min":63,"x_max":1067,"o":"m 1063 17 q 1067 8 1067 17 q 1063 0 1067 0 q 1000 1 1024 0 l 907 3 l 815 1 q 751 0 792 0 q 748 8 749 0 q 751 17 747 17 q 825 24 801 17 q 857 51 849 32 q 863 113 865 71 l 843 769 l 546 10 q 536 4 546 4 q 525 11 528 4 l 208 753 l 207 757 l 204 151 q 226 48 204 79 q 303 17 249 17 q 306 8 306 17 q 303 0 307 0 q 256 1 272 0 l 185 3 l 119 1 q 68 0 101 0 q 63 8 63 0 q 67 17 63 17 q 147 49 121 17 q 172 151 172 81 l 176 807 q 71 851 136 851 q 65 860 65 851 q 69 868 65 868 l 113 867 q 153 865 126 865 q 199 867 181 865 q 225 868 217 868 q 253 854 242 868 q 286 796 265 840 l 567 139 l 838 833 q 855 858 843 849 q 881 868 867 868 q 906 867 889 868 q 944 865 922 865 l 1006 867 q 1047 868 1019 868 q 1051 860 1051 868 q 1049 851 1051 851 q 955 833 983 851 q 931 758 926 814 l 950 113 q 961 50 953 69 q 992 24 969 31 q 1063 17 1014 17 z "},"Ṁ":{"ha":1101,"x_min":63,"x_max":1067,"o":"m 1063 17 q 1067 8 1067 17 q 1063 0 1067 0 q 1000 1 1024 0 l 907 3 l 815 1 q 751 0 792 0 q 748 8 749 0 q 751 17 747 17 q 825 24 801 17 q 857 51 849 32 q 863 113 865 71 l 843 769 l 546 10 q 536 4 546 4 q 525 11 528 4 l 208 753 l 207 757 l 204 151 q 226 48 204 79 q 303 17 249 17 q 306 8 306 17 q 303 0 307 0 q 256 1 272 0 l 185 3 l 119 1 q 68 0 101 0 q 63 8 63 0 q 67 17 63 17 q 147 49 121 17 q 172 151 172 81 l 176 807 q 71 851 136 851 q 65 860 65 851 q 69 868 65 868 l 113 867 q 153 865 126 865 q 199 867 181 865 q 225 868 217 868 q 253 854 242 868 q 286 796 265 840 l 567 139 l 838 833 q 855 858 843 849 q 881 868 867 868 q 906 867 889 868 q 944 865 922 865 l 1006 867 q 1047 868 1019 868 q 1051 860 1051 868 q 1049 851 1051 851 q 955 833 983 851 q 931 758 926 814 l 950 113 q 961 50 953 69 q 992 24 969 31 q 1063 17 1014 17 m 553 983 q 508 999 525 983 q 492 1043 492 1015 q 508 1085 492 1069 q 553 1101 525 1101 q 597 1086 581 1101 q 613 1043 613 1071 q 597 999 613 1015 q 553 983 581 983 z "},"Ṃ":{"ha":1101,"x_min":63,"x_max":1067,"o":"m 1063 17 q 1067 8 1067 17 q 1063 0 1067 0 q 1000 1 1024 0 l 907 3 l 815 1 q 751 0 792 0 q 748 8 749 0 q 751 17 747 17 q 825 24 801 17 q 857 51 849 32 q 863 113 865 71 l 843 769 l 546 10 q 536 4 546 4 q 525 11 528 4 l 208 753 l 207 757 l 204 151 q 226 48 204 79 q 303 17 249 17 q 306 8 306 17 q 303 0 307 0 q 256 1 272 0 l 185 3 l 119 1 q 68 0 101 0 q 63 8 63 0 q 67 17 63 17 q 147 49 121 17 q 172 151 172 81 l 176 807 q 71 851 136 851 q 65 860 65 851 q 69 868 65 868 l 113 867 q 153 865 126 865 q 199 867 181 865 q 225 868 217 868 q 253 854 242 868 q 286 796 265 840 l 567 139 l 838 833 q 855 858 843 849 q 881 868 867 868 q 906 867 889 868 q 944 865 922 865 l 1006 867 q 1047 868 1019 868 q 1051 860 1051 868 q 1049 851 1051 851 q 955 833 983 851 q 931 758 926 814 l 950 113 q 961 50 953 69 q 992 24 969 31 q 1063 17 1014 17 m 557 -264 q 512 -248 528 -264 q 496 -203 496 -232 q 512 -161 496 -176 q 557 -146 528 -146 q 600 -161 585 -146 q 615 -203 615 -176 q 600 -248 615 -232 q 557 -264 585 -264 z "},"N":{"ha":979,"x_min":54,"x_max":932,"o":"m 928 868 q 932 860 932 868 q 928 851 932 851 q 846 820 872 851 q 821 719 819 789 l 821 -14 q 810 -21 818 -21 q 797 -14 801 -21 l 206 754 l 196 767 l 196 147 q 221 47 197 76 q 300 17 244 17 q 304 8 304 17 q 300 0 304 0 q 250 1 268 0 l 181 3 l 113 1 q 58 0 94 0 q 54 8 54 0 q 58 17 54 17 q 140 47 114 17 q 165 147 167 78 l 167 800 q 58 851 114 851 q 54 860 54 851 q 58 868 54 868 l 111 867 q 158 865 129 865 q 201 867 183 865 q 226 868 218 868 q 241 863 236 868 q 254 843 246 858 q 286 796 269 818 l 790 132 l 790 719 q 765 821 789 790 q 686 851 742 851 q 683 860 683 851 q 686 868 683 868 l 736 867 q 806 864 778 864 q 874 867 829 864 l 928 868 z "},"Ń":{"ha":979,"x_min":54,"x_max":932,"o":"m 928 868 q 932 860 932 868 q 928 851 932 851 q 846 820 872 851 q 821 719 819 789 l 821 -14 q 810 -21 818 -21 q 797 -14 801 -21 l 206 754 l 196 767 l 196 147 q 221 47 197 76 q 300 17 244 17 q 304 8 304 17 q 300 0 304 0 q 250 1 268 0 l 181 3 l 113 1 q 58 0 94 0 q 54 8 54 0 q 58 17 54 17 q 140 47 114 17 q 165 147 167 78 l 167 800 q 58 851 114 851 q 54 860 54 851 q 58 868 54 868 l 111 867 q 158 865 129 865 q 201 867 183 865 q 226 868 218 868 q 241 863 236 868 q 254 843 246 858 q 286 796 269 818 l 790 132 l 790 719 q 765 821 789 790 q 686 851 742 851 q 683 860 683 851 q 686 868 683 868 l 736 867 q 806 864 778 864 q 874 867 829 864 l 928 868 m 390 942 q 382 948 385 942 q 383 957 379 954 q 521 1046 433 985 q 558 1069 542 1058 q 585 1089 574 1081 q 619 1084 590 1093 q 670 1064 649 1075 q 682 1050 692 1053 q 393 943 533 1011 l 390 942 z "},"Ň":{"ha":979,"x_min":54,"x_max":932,"o":"m 928 868 q 932 860 932 868 q 928 851 932 851 q 846 820 872 851 q 821 719 819 789 l 821 -14 q 810 -21 818 -21 q 797 -14 801 -21 l 206 754 l 196 767 l 196 147 q 221 47 197 76 q 300 17 244 17 q 304 8 304 17 q 300 0 304 0 q 250 1 268 0 l 181 3 l 113 1 q 58 0 94 0 q 54 8 54 0 q 58 17 54 17 q 140 47 114 17 q 165 147 167 78 l 167 800 q 58 851 114 851 q 54 860 54 851 q 58 868 54 868 l 111 867 q 158 865 129 865 q 201 867 183 865 q 226 868 218 868 q 241 863 236 868 q 254 843 246 858 q 286 796 269 818 l 790 132 l 790 719 q 765 821 789 790 q 686 851 742 851 q 683 860 683 851 q 686 868 683 868 l 736 867 q 806 864 778 864 q 874 867 829 864 l 928 868 m 332 1072 l 332 1074 q 335 1081 332 1078 q 340 1082 339 1085 l 474 1003 l 599 1083 l 601 1083 q 609 1079 606 1083 q 608 1072 613 1075 l 485 938 q 472 932 481 932 q 458 938 464 932 l 332 1072 z "},"Ņ":{"ha":979,"x_min":54,"x_max":932,"o":"m 928 868 q 932 860 932 868 q 928 851 932 851 q 846 820 872 851 q 821 719 819 789 l 821 -14 q 810 -21 818 -21 q 797 -14 801 -21 l 206 754 l 196 767 l 196 147 q 221 47 197 76 q 300 17 244 17 q 304 8 304 17 q 300 0 304 0 q 250 1 268 0 l 181 3 l 113 1 q 58 0 94 0 q 54 8 54 0 q 58 17 54 17 q 140 47 114 17 q 165 147 167 78 l 167 800 q 58 851 114 851 q 54 860 54 851 q 58 868 54 868 l 111 867 q 158 865 129 865 q 201 867 183 865 q 226 868 218 868 q 241 863 236 868 q 254 843 246 858 q 286 796 269 818 l 790 132 l 790 719 q 765 821 789 790 q 686 851 742 851 q 683 860 683 851 q 686 868 683 868 l 736 867 q 806 864 778 864 q 874 867 829 864 l 928 868 m 518 -118 q 576 -144 556 -118 q 596 -219 596 -171 q 574 -305 596 -265 q 511 -382 553 -344 q 507 -383 510 -383 q 500 -378 503 -383 q 500 -371 497 -374 q 561 -247 561 -315 q 553 -207 561 -219 q 511 -228 542 -228 q 472 -213 486 -228 q 457 -174 457 -199 q 518 -118 457 -118 z "},"Ṅ":{"ha":979,"x_min":54,"x_max":932,"o":"m 928 868 q 932 860 932 868 q 928 851 932 851 q 846 820 872 851 q 821 719 819 789 l 821 -14 q 810 -21 818 -21 q 797 -14 801 -21 l 206 754 l 196 767 l 196 147 q 221 47 197 76 q 300 17 244 17 q 304 8 304 17 q 300 0 304 0 q 250 1 268 0 l 181 3 l 113 1 q 58 0 94 0 q 54 8 54 0 q 58 17 54 17 q 140 47 114 17 q 165 147 167 78 l 167 800 q 58 851 114 851 q 54 860 54 851 q 58 868 54 868 l 111 867 q 158 865 129 865 q 201 867 183 865 q 226 868 218 868 q 241 863 236 868 q 254 843 246 858 q 286 796 269 818 l 790 132 l 790 719 q 765 821 789 790 q 686 851 742 851 q 683 860 683 851 q 686 868 683 868 l 736 867 q 806 864 778 864 q 874 867 829 864 l 928 868 m 475 983 q 431 999 447 983 q 414 1043 414 1015 q 431 1085 414 1069 q 475 1101 447 1101 q 519 1086 503 1101 q 535 1043 535 1071 q 519 999 535 1015 q 475 983 503 983 z "},"Ṇ":{"ha":979,"x_min":54,"x_max":932,"o":"m 928 868 q 932 860 932 868 q 928 851 932 851 q 846 820 872 851 q 821 719 819 789 l 821 -14 q 810 -21 818 -21 q 797 -14 801 -21 l 206 754 l 196 767 l 196 147 q 221 47 197 76 q 300 17 244 17 q 304 8 304 17 q 300 0 304 0 q 250 1 268 0 l 181 3 l 113 1 q 58 0 94 0 q 54 8 54 0 q 58 17 54 17 q 140 47 114 17 q 165 147 167 78 l 167 800 q 58 851 114 851 q 54 860 54 851 q 58 868 54 868 l 111 867 q 158 865 129 865 q 201 867 183 865 q 226 868 218 868 q 241 863 236 868 q 254 843 246 858 q 286 796 269 818 l 790 132 l 790 719 q 765 821 789 790 q 686 851 742 851 q 683 860 683 851 q 686 868 683 868 l 736 867 q 806 864 778 864 q 874 867 829 864 l 928 868 m 522 -264 q 477 -248 493 -264 q 461 -203 461 -232 q 477 -161 461 -176 q 522 -146 493 -146 q 565 -161 550 -146 q 581 -203 581 -176 q 565 -248 581 -232 q 522 -264 550 -264 z "},"Ŋ":{"ha":979,"x_min":54,"x_max":932,"o":"m 928 868 q 932 860 932 868 q 928 851 932 851 q 846 820 872 851 q 821 719 819 789 l 821 -14 q 779 -201 819 -137 q 664 -265 739 -265 q 580 -239 614 -265 q 546 -178 546 -212 q 558 -145 546 -156 q 589 -135 569 -135 q 624 -147 613 -135 q 643 -185 635 -160 q 663 -222 653 -210 q 696 -233 674 -233 q 766 -177 740 -233 q 793 -8 792 -121 l 206 754 l 196 767 l 196 147 q 221 47 197 76 q 300 17 244 17 q 304 8 304 17 q 300 0 304 0 q 250 1 268 0 l 181 3 l 113 1 q 58 0 94 0 q 54 8 54 0 q 58 17 54 17 q 140 47 114 17 q 165 147 167 78 l 167 800 q 58 851 114 851 q 54 860 54 851 q 58 868 54 868 l 111 867 q 158 865 129 865 q 201 867 183 865 q 226 868 218 868 q 241 863 236 868 q 254 843 246 858 q 286 796 269 818 l 790 132 l 790 719 q 765 821 789 790 q 686 851 742 851 q 683 860 683 851 q 686 868 683 868 l 736 867 q 806 864 778 864 q 874 867 829 864 l 928 868 z "},"Ṉ":{"ha":979,"x_min":54,"x_max":932,"o":"m 928 868 q 932 860 932 868 q 928 851 932 851 q 846 820 872 851 q 821 719 819 789 l 821 -14 q 810 -21 818 -21 q 797 -14 801 -21 l 206 754 l 196 767 l 196 147 q 221 47 197 76 q 300 17 244 17 q 304 8 304 17 q 300 0 304 0 q 250 1 268 0 l 181 3 l 113 1 q 58 0 94 0 q 54 8 54 0 q 58 17 54 17 q 140 47 114 17 q 165 147 167 78 l 167 800 q 58 851 114 851 q 54 860 54 851 q 58 868 54 868 l 111 867 q 158 865 129 865 q 201 867 183 865 q 226 868 218 868 q 241 863 236 868 q 254 843 246 858 q 286 796 269 818 l 790 132 l 790 719 q 765 821 789 790 q 686 851 742 851 q 683 860 683 851 q 686 868 683 868 l 736 867 q 806 864 778 864 q 874 867 829 864 l 928 868 m 350 -164 q 342 -143 342 -164 q 344 -129 342 -136 q 350 -122 346 -122 l 681 -122 q 687 -129 685 -122 q 689 -143 689 -136 q 681 -164 689 -164 l 350 -164 z "},"Ñ":{"ha":979,"x_min":54,"x_max":932,"o":"m 928 868 q 932 860 932 868 q 928 851 932 851 q 846 820 872 851 q 821 719 819 789 l 821 -14 q 810 -21 818 -21 q 797 -14 801 -21 l 206 754 l 196 767 l 196 147 q 221 47 197 76 q 300 17 244 17 q 304 8 304 17 q 300 0 304 0 q 250 1 268 0 l 181 3 l 113 1 q 58 0 94 0 q 54 8 54 0 q 58 17 54 17 q 140 47 114 17 q 165 147 167 78 l 167 800 q 58 851 114 851 q 54 860 54 851 q 58 868 54 868 l 111 867 q 158 865 129 865 q 201 867 183 865 q 226 868 218 868 q 241 863 236 868 q 254 843 246 858 q 286 796 269 818 l 790 132 l 790 719 q 765 821 789 790 q 686 851 742 851 q 683 860 683 851 q 686 868 683 868 l 736 867 q 806 864 778 864 q 874 867 829 864 l 928 868 m 311 965 q 303 969 307 965 q 300 975 299 972 q 407 1061 349 1061 q 479 1047 426 1061 q 586 1028 546 1028 q 625 1037 611 1028 q 651 1065 639 1046 l 653 1065 q 661 1062 657 1065 q 664 1056 665 1058 q 614 986 635 1004 q 565 968 593 968 q 478 985 536 968 q 441 994 472 986 q 378 1003 410 1003 q 340 994 351 1003 q 313 965 329 986 l 311 965 z "},"O":{"ha":1015,"x_min":64,"x_max":956,"o":"m 483 -17 q 265 40 360 -17 q 117 196 169 97 q 64 415 64 294 q 127 654 64 547 q 298 822 190 761 q 538 883 406 883 q 758 828 664 883 q 904 674 853 772 q 956 454 956 576 q 892 210 956 317 q 719 43 828 103 q 483 -17 611 -17 m 544 19 q 716 66 643 19 q 828 197 789 113 q 867 393 867 282 q 817 625 867 521 q 680 790 768 729 q 482 850 592 850 q 311 803 386 850 q 194 671 236 757 q 151 469 151 585 q 203 242 151 344 q 344 79 254 139 q 544 19 433 19 z "},"Ó":{"ha":1015,"x_min":64,"x_max":956,"o":"m 483 -17 q 265 40 360 -17 q 117 196 169 97 q 64 415 64 294 q 127 654 64 547 q 298 822 190 761 q 538 883 406 883 q 758 828 664 883 q 904 674 853 772 q 956 454 956 576 q 892 210 956 317 q 719 43 828 103 q 483 -17 611 -17 m 544 19 q 716 66 643 19 q 828 197 789 113 q 867 393 867 282 q 817 625 867 521 q 680 790 768 729 q 482 850 592 850 q 311 803 386 850 q 194 671 236 757 q 151 469 151 585 q 203 242 151 344 q 344 79 254 139 q 544 19 433 19 m 421 942 q 413 948 415 942 q 414 957 410 954 q 551 1046 464 985 q 588 1069 572 1058 q 615 1089 604 1081 q 650 1084 621 1093 q 701 1064 679 1075 q 713 1050 722 1053 q 424 943 564 1011 l 421 942 z "},"Ŏ":{"ha":1015,"x_min":64,"x_max":956,"o":"m 483 -17 q 265 40 360 -17 q 117 196 169 97 q 64 415 64 294 q 127 654 64 547 q 298 822 190 761 q 538 883 406 883 q 758 828 664 883 q 904 674 853 772 q 956 454 956 576 q 892 210 956 317 q 719 43 828 103 q 483 -17 611 -17 m 544 19 q 716 66 643 19 q 828 197 789 113 q 867 393 867 282 q 817 625 867 521 q 680 790 768 729 q 482 850 592 850 q 311 803 386 850 q 194 671 236 757 q 151 469 151 585 q 203 242 151 344 q 344 79 254 139 q 544 19 433 19 m 503 924 q 421 956 457 924 q 374 1044 385 988 q 391 1060 372 1053 q 426 1067 410 1067 q 440 1063 440 1067 q 476 999 451 1021 q 531 976 501 976 q 583 998 558 976 q 619 1058 608 1019 q 626 1063 622 1063 q 638 1059 632 1063 q 643 1053 643 1056 q 588 957 628 990 q 503 924 549 924 z "},"Ǒ":{"ha":1015,"x_min":64,"x_max":956,"o":"m 483 -17 q 265 40 360 -17 q 117 196 169 97 q 64 415 64 294 q 127 654 64 547 q 298 822 190 761 q 538 883 406 883 q 758 828 664 883 q 904 674 853 772 q 956 454 956 576 q 892 210 956 317 q 719 43 828 103 q 483 -17 611 -17 m 544 19 q 716 66 643 19 q 828 197 789 113 q 867 393 867 282 q 817 625 867 521 q 680 790 768 729 q 482 850 592 850 q 311 803 386 850 q 194 671 236 757 q 151 469 151 585 q 203 242 151 344 q 344 79 254 139 q 544 19 433 19 m 363 1072 l 363 1074 q 366 1081 363 1078 q 371 1082 369 1085 l 504 1003 l 629 1083 l 632 1083 q 640 1079 636 1083 q 639 1072 643 1075 l 515 938 q 503 932 511 932 q 489 938 494 932 l 363 1072 z "},"Ô":{"ha":1015,"x_min":64,"x_max":956,"o":"m 483 -17 q 265 40 360 -17 q 117 196 169 97 q 64 415 64 294 q 127 654 64 547 q 298 822 190 761 q 538 883 406 883 q 758 828 664 883 q 904 674 853 772 q 956 454 956 576 q 892 210 956 317 q 719 43 828 103 q 483 -17 611 -17 m 544 19 q 716 66 643 19 q 828 197 789 113 q 867 393 867 282 q 817 625 867 521 q 680 790 768 729 q 482 850 592 850 q 311 803 386 850 q 194 671 236 757 q 151 469 151 585 q 203 242 151 344 q 344 79 254 139 q 544 19 433 19 m 378 917 q 370 920 374 917 q 369 926 367 924 l 493 1061 q 506 1068 497 1068 q 519 1061 513 1068 l 646 926 l 647 924 q 644 917 647 919 q 638 917 640 915 l 504 996 l 379 917 l 378 917 z "},"Ố":{"ha":1015,"x_min":64,"x_max":956,"o":"m 483 -17 q 265 40 360 -17 q 117 196 169 97 q 64 415 64 294 q 127 654 64 547 q 298 822 190 761 q 538 883 406 883 q 758 828 664 883 q 904 674 853 772 q 956 454 956 576 q 892 210 956 317 q 719 43 828 103 q 483 -17 611 -17 m 544 19 q 716 66 643 19 q 828 197 789 113 q 867 393 867 282 q 817 625 867 521 q 680 790 768 729 q 482 850 592 850 q 311 803 386 850 q 194 671 236 757 q 151 469 151 585 q 203 242 151 344 q 344 79 254 139 q 544 19 433 19 m 378 917 q 370 920 374 917 q 369 926 367 924 l 493 1061 q 506 1068 497 1068 q 519 1061 513 1068 l 646 926 l 647 924 q 644 917 647 919 q 638 917 640 915 l 504 996 l 379 917 l 378 917 m 596 1010 q 588 1015 590 1010 q 589 1024 586 1021 q 694 1157 647 1088 q 726 1154 699 1163 q 774 1133 753 1146 q 785 1118 796 1121 q 599 1011 694 1082 l 596 1010 z "},"Ộ":{"ha":1015,"x_min":64,"x_max":956,"o":"m 483 -17 q 265 40 360 -17 q 117 196 169 97 q 64 415 64 294 q 127 654 64 547 q 298 822 190 761 q 538 883 406 883 q 758 828 664 883 q 904 674 853 772 q 956 454 956 576 q 892 210 956 317 q 719 43 828 103 q 483 -17 611 -17 m 544 19 q 716 66 643 19 q 828 197 789 113 q 867 393 867 282 q 817 625 867 521 q 680 790 768 729 q 482 850 592 850 q 311 803 386 850 q 194 671 236 757 q 151 469 151 585 q 203 242 151 344 q 344 79 254 139 q 544 19 433 19 m 531 -264 q 485 -248 501 -264 q 469 -203 469 -232 q 485 -161 469 -176 q 531 -146 501 -146 q 574 -161 558 -146 q 589 -203 589 -176 q 574 -248 589 -232 q 531 -264 558 -264 m 378 917 q 370 920 374 917 q 369 926 367 924 l 493 1061 q 506 1068 497 1068 q 519 1061 513 1068 l 646 926 l 647 924 q 644 917 647 919 q 638 917 640 915 l 504 996 l 379 917 l 378 917 z "},"Ồ":{"ha":1015,"x_min":64,"x_max":956,"o":"m 483 -17 q 265 40 360 -17 q 117 196 169 97 q 64 415 64 294 q 127 654 64 547 q 298 822 190 761 q 538 883 406 883 q 758 828 664 883 q 904 674 853 772 q 956 454 956 576 q 892 210 956 317 q 719 43 828 103 q 483 -17 611 -17 m 544 19 q 716 66 643 19 q 828 197 789 113 q 867 393 867 282 q 817 625 867 521 q 680 790 768 729 q 482 850 592 850 q 311 803 386 850 q 194 671 236 757 q 151 469 151 585 q 203 242 151 344 q 344 79 254 139 q 544 19 433 19 m 378 917 q 370 920 374 917 q 369 926 367 924 l 493 1061 q 506 1068 497 1068 q 519 1061 513 1068 l 646 926 l 647 924 q 644 917 647 919 q 638 917 640 915 l 504 996 l 379 917 l 378 917 m 713 981 q 622 1042 664 1017 q 528 1088 579 1067 q 538 1103 517 1090 q 587 1124 560 1115 q 618 1126 614 1132 q 722 994 658 1065 q 724 989 724 993 q 721 982 724 985 q 713 981 718 979 z "},"Ổ":{"ha":1015,"x_min":64,"x_max":956,"o":"m 483 -17 q 265 40 360 -17 q 117 196 169 97 q 64 415 64 294 q 127 654 64 547 q 298 822 190 761 q 538 883 406 883 q 758 828 664 883 q 904 674 853 772 q 956 454 956 576 q 892 210 956 317 q 719 43 828 103 q 483 -17 611 -17 m 544 19 q 716 66 643 19 q 828 197 789 113 q 867 393 867 282 q 817 625 867 521 q 680 790 768 729 q 482 850 592 850 q 311 803 386 850 q 194 671 236 757 q 151 469 151 585 q 203 242 151 344 q 344 79 254 139 q 544 19 433 19 m 378 904 q 370 908 374 904 q 369 914 367 911 l 493 1049 q 506 1056 497 1056 q 519 1049 513 1056 l 646 914 l 647 911 q 644 905 647 907 q 638 904 640 903 l 504 983 l 379 904 l 378 904 m 604 989 q 601 1006 601 1000 q 621 1057 601 1024 q 637 1086 632 1074 q 642 1111 642 1099 q 627 1144 642 1132 q 594 1156 613 1156 q 564 1147 581 1156 l 561 1147 q 552 1152 556 1147 q 553 1158 549 1157 q 597 1178 574 1171 q 638 1185 619 1185 q 685 1167 668 1185 q 703 1126 703 1149 q 691 1090 703 1106 q 657 1053 679 1074 q 626 1017 635 1031 q 621 989 617 1004 q 614 985 622 986 q 604 989 606 985 z "},"Ỗ":{"ha":1015,"x_min":64,"x_max":956,"o":"m 483 -17 q 265 40 360 -17 q 117 196 169 97 q 64 415 64 294 q 127 654 64 547 q 298 822 190 761 q 538 883 406 883 q 758 828 664 883 q 904 674 853 772 q 956 454 956 576 q 892 210 956 317 q 719 43 828 103 q 483 -17 611 -17 m 544 19 q 716 66 643 19 q 828 197 789 113 q 867 393 867 282 q 817 625 867 521 q 680 790 768 729 q 482 850 592 850 q 311 803 386 850 q 194 671 236 757 q 151 469 151 585 q 203 242 151 344 q 344 79 254 139 q 544 19 433 19 m 379 917 q 372 920 375 917 q 371 926 368 924 l 494 1061 q 507 1068 499 1068 q 521 1061 514 1068 l 647 926 l 649 924 q 645 917 649 919 q 639 917 642 915 l 506 996 l 381 917 l 379 917 m 350 1078 q 343 1081 347 1078 q 340 1088 339 1085 q 387 1148 360 1121 q 447 1175 414 1175 q 521 1160 469 1175 q 626 1140 585 1140 q 665 1150 651 1140 q 692 1178 679 1160 l 693 1178 q 701 1174 697 1178 q 703 1168 706 1171 q 655 1099 676 1117 q 606 1082 633 1082 q 553 1089 581 1082 q 518 1097 525 1096 q 418 1115 458 1115 q 383 1108 394 1115 q 364 1092 372 1101 q 351 1078 356 1082 l 350 1078 z "},"Ö":{"ha":1015,"x_min":64,"x_max":956,"o":"m 483 -17 q 265 40 360 -17 q 117 196 169 97 q 64 415 64 294 q 127 654 64 547 q 298 822 190 761 q 538 883 406 883 q 758 828 664 883 q 904 674 853 772 q 956 454 956 576 q 892 210 956 317 q 719 43 828 103 q 483 -17 611 -17 m 544 19 q 716 66 643 19 q 828 197 789 113 q 867 393 867 282 q 817 625 867 521 q 680 790 768 729 q 482 850 592 850 q 311 803 386 850 q 194 671 236 757 q 151 469 151 585 q 203 242 151 344 q 344 79 254 139 q 544 19 433 19 m 400 994 q 356 1010 372 994 q 340 1053 340 1025 q 356 1094 340 1079 q 400 1110 372 1110 q 442 1094 426 1110 q 457 1053 457 1079 q 442 1010 457 1025 q 400 994 426 994 m 614 994 q 570 1010 586 994 q 554 1053 554 1025 q 570 1094 554 1079 q 614 1108 586 1108 q 656 1094 640 1108 q 671 1053 671 1079 q 656 1010 671 1025 q 614 994 640 994 z "},"Ọ":{"ha":1015,"x_min":64,"x_max":956,"o":"m 483 -17 q 265 40 360 -17 q 117 196 169 97 q 64 415 64 294 q 127 654 64 547 q 298 822 190 761 q 538 883 406 883 q 758 828 664 883 q 904 674 853 772 q 956 454 956 576 q 892 210 956 317 q 719 43 828 103 q 483 -17 611 -17 m 544 19 q 716 66 643 19 q 828 197 789 113 q 867 393 867 282 q 817 625 867 521 q 680 790 768 729 q 482 850 592 850 q 311 803 386 850 q 194 671 236 757 q 151 469 151 585 q 203 242 151 344 q 344 79 254 139 q 544 19 433 19 m 531 -264 q 485 -248 501 -264 q 469 -203 469 -232 q 485 -161 469 -176 q 531 -146 501 -146 q 574 -161 558 -146 q 589 -203 589 -176 q 574 -248 589 -232 q 531 -264 558 -264 z "},"Ò":{"ha":1015,"x_min":64,"x_max":956,"o":"m 483 -17 q 265 40 360 -17 q 117 196 169 97 q 64 415 64 294 q 127 654 64 547 q 298 822 190 761 q 538 883 406 883 q 758 828 664 883 q 904 674 853 772 q 956 454 956 576 q 892 210 956 317 q 719 43 828 103 q 483 -17 611 -17 m 544 19 q 716 66 643 19 q 828 197 789 113 q 867 393 867 282 q 817 625 867 521 q 680 790 768 729 q 482 850 592 850 q 311 803 386 850 q 194 671 236 757 q 151 469 151 585 q 203 242 151 344 q 344 79 254 139 q 544 19 433 19 m 639 946 q 506 1003 569 979 q 361 1050 442 1028 q 370 1064 349 1053 q 422 1084 392 1075 q 458 1089 451 1093 q 646 961 563 1011 q 650 956 650 960 q 647 948 650 951 q 639 946 643 944 z "},"Ỏ":{"ha":1015,"x_min":64,"x_max":956,"o":"m 483 -17 q 265 40 360 -17 q 117 196 169 97 q 64 415 64 294 q 127 654 64 547 q 298 822 190 761 q 538 883 406 883 q 758 828 664 883 q 904 674 853 772 q 956 454 956 576 q 892 210 956 317 q 719 43 828 103 q 483 -17 611 -17 m 544 19 q 716 66 643 19 q 828 197 789 113 q 867 393 867 282 q 817 625 867 521 q 680 790 768 729 q 482 850 592 850 q 311 803 386 850 q 194 671 236 757 q 151 469 151 585 q 203 242 151 344 q 344 79 254 139 q 544 19 433 19 m 513 903 q 506 899 515 900 q 496 903 497 899 q 490 935 490 918 q 497 969 490 954 q 517 1011 503 985 q 535 1049 529 1035 q 542 1078 542 1063 q 524 1121 542 1106 q 482 1136 507 1136 q 443 1128 460 1136 l 440 1126 q 433 1131 436 1126 q 435 1139 431 1136 q 524 1168 476 1168 q 590 1147 565 1168 q 614 1094 614 1125 q 601 1051 614 1069 q 560 1000 589 1032 q 524 958 536 976 q 511 918 511 939 q 513 903 511 908 z "},"Ơ":{"ha":1015,"x_min":64,"x_max":986,"o":"m 986 913 q 849 754 986 822 q 928 619 900 696 q 956 454 956 543 q 892 210 956 317 q 719 43 828 103 q 483 -17 611 -17 q 265 40 360 -17 q 117 196 169 97 q 64 415 64 294 q 127 654 64 547 q 298 822 190 761 q 538 883 406 883 q 702 854 628 883 q 832 771 776 825 q 903 853 903 810 q 890 882 903 867 q 879 899 883 890 q 875 922 875 907 q 892 961 875 947 q 932 975 910 975 q 972 956 957 975 q 986 913 986 938 m 867 393 q 817 625 867 521 q 680 790 768 729 q 482 850 592 850 q 311 803 386 850 q 194 671 236 757 q 151 469 151 585 q 203 242 151 344 q 344 79 254 139 q 544 19 433 19 q 716 66 643 19 q 828 197 789 113 q 867 393 867 282 z "},"Ớ":{"ha":1015,"x_min":64,"x_max":986,"o":"m 986 913 q 849 754 986 822 q 928 619 900 696 q 956 454 956 543 q 892 210 956 317 q 719 43 828 103 q 483 -17 611 -17 q 265 40 360 -17 q 117 196 169 97 q 64 415 64 294 q 127 654 64 547 q 298 822 190 761 q 538 883 406 883 q 702 854 628 883 q 832 771 776 825 q 903 853 903 810 q 890 882 903 867 q 879 899 883 890 q 875 922 875 907 q 892 961 875 947 q 932 975 910 975 q 972 956 957 975 q 986 913 986 938 m 867 393 q 817 625 867 521 q 680 790 768 729 q 482 850 592 850 q 311 803 386 850 q 194 671 236 757 q 151 469 151 585 q 203 242 151 344 q 344 79 254 139 q 544 19 433 19 q 716 66 643 19 q 828 197 789 113 q 867 393 867 282 m 361 942 q 353 948 356 942 q 353 957 350 954 q 494 1047 413 989 l 556 1089 q 590 1083 561 1092 q 640 1063 618 1074 q 653 1050 663 1051 q 363 942 492 1007 l 361 942 z "},"Ợ":{"ha":1015,"x_min":64,"x_max":986,"o":"m 986 913 q 849 754 986 822 q 928 619 900 696 q 956 454 956 543 q 892 210 956 317 q 719 43 828 103 q 483 -17 611 -17 q 265 40 360 -17 q 117 196 169 97 q 64 415 64 294 q 127 654 64 547 q 298 822 190 761 q 538 883 406 883 q 702 854 628 883 q 832 771 776 825 q 903 853 903 810 q 890 882 903 867 q 879 899 883 890 q 875 922 875 907 q 892 961 875 947 q 932 975 910 975 q 972 956 957 975 q 986 913 986 938 m 867 393 q 817 625 867 521 q 680 790 768 729 q 482 850 592 850 q 311 803 386 850 q 194 671 236 757 q 151 469 151 585 q 203 242 151 344 q 344 79 254 139 q 544 19 433 19 q 716 66 643 19 q 828 197 789 113 q 867 393 867 282 m 531 -264 q 485 -248 501 -264 q 469 -203 469 -232 q 485 -161 469 -176 q 531 -146 501 -146 q 574 -161 558 -146 q 589 -203 589 -176 q 574 -248 589 -232 q 531 -264 558 -264 z "},"Ờ":{"ha":1015,"x_min":64,"x_max":986,"o":"m 986 913 q 849 754 986 822 q 928 619 900 696 q 956 454 956 543 q 892 210 956 317 q 719 43 828 103 q 483 -17 611 -17 q 265 40 360 -17 q 117 196 169 97 q 64 415 64 294 q 127 654 64 547 q 298 822 190 761 q 538 883 406 883 q 702 854 628 883 q 832 771 776 825 q 903 853 903 810 q 890 882 903 867 q 879 899 883 890 q 875 922 875 907 q 892 961 875 947 q 932 975 910 975 q 972 956 957 975 q 986 913 986 938 m 867 393 q 817 625 867 521 q 680 790 768 729 q 482 850 592 850 q 311 803 386 850 q 194 671 236 757 q 151 469 151 585 q 203 242 151 344 q 344 79 254 139 q 544 19 433 19 q 716 66 643 19 q 828 197 789 113 q 867 393 867 282 m 654 943 q 492 1003 568 978 q 326 1050 417 1029 q 333 1064 315 1053 q 377 1084 351 1075 q 410 1089 403 1093 l 456 1064 q 658 957 569 999 q 662 947 664 954 q 654 943 660 940 z "},"Ở":{"ha":1015,"x_min":64,"x_max":986,"o":"m 986 913 q 849 754 986 822 q 928 619 900 696 q 956 454 956 543 q 892 210 956 317 q 719 43 828 103 q 483 -17 611 -17 q 265 40 360 -17 q 117 196 169 97 q 64 415 64 294 q 127 654 64 547 q 298 822 190 761 q 538 883 406 883 q 702 854 628 883 q 832 771 776 825 q 903 853 903 810 q 890 882 903 867 q 879 899 883 890 q 875 922 875 907 q 892 961 875 947 q 932 975 910 975 q 972 956 957 975 q 986 913 986 938 m 867 393 q 817 625 867 521 q 680 790 768 729 q 482 850 592 850 q 311 803 386 850 q 194 671 236 757 q 151 469 151 585 q 203 242 151 344 q 344 79 254 139 q 544 19 433 19 q 716 66 643 19 q 828 197 789 113 q 867 393 867 282 m 511 903 q 505 899 514 900 q 494 903 496 899 q 489 935 489 918 q 495 969 489 954 q 515 1011 501 985 q 534 1049 528 1035 q 540 1078 540 1063 q 523 1121 540 1106 q 481 1136 506 1136 q 442 1128 458 1136 l 439 1126 q 432 1131 435 1126 q 433 1139 429 1136 q 522 1168 475 1168 q 588 1147 564 1168 q 613 1094 613 1125 q 600 1051 613 1069 q 558 1000 588 1032 q 522 958 535 976 q 510 918 510 939 q 511 903 510 908 z "},"Ỡ":{"ha":1015,"x_min":64,"x_max":986,"o":"m 986 913 q 849 754 986 822 q 928 619 900 696 q 956 454 956 543 q 892 210 956 317 q 719 43 828 103 q 483 -17 611 -17 q 265 40 360 -17 q 117 196 169 97 q 64 415 64 294 q 127 654 64 547 q 298 822 190 761 q 538 883 406 883 q 702 854 628 883 q 832 771 776 825 q 903 853 903 810 q 890 882 903 867 q 879 899 883 890 q 875 922 875 907 q 892 961 875 947 q 932 975 910 975 q 972 956 957 975 q 986 913 986 938 m 867 393 q 817 625 867 521 q 680 790 768 729 q 482 850 592 850 q 311 803 386 850 q 194 671 236 757 q 151 469 151 585 q 203 242 151 344 q 344 79 254 139 q 544 19 433 19 q 716 66 643 19 q 828 197 789 113 q 867 393 867 282 m 331 997 q 324 1001 328 997 q 321 1007 319 1004 q 367 1067 340 1040 q 428 1094 394 1094 q 501 1079 450 1094 q 607 1060 565 1060 q 646 1069 632 1060 q 672 1097 660 1079 l 674 1097 q 682 1094 678 1097 q 683 1088 686 1090 q 635 1019 657 1036 q 586 1001 614 1001 q 533 1008 561 1001 q 499 1017 506 1015 q 399 1035 439 1035 q 364 1028 375 1035 q 344 1011 353 1021 q 332 997 336 1001 l 331 997 z "},"Ő":{"ha":1015,"x_min":64,"x_max":956,"o":"m 483 -17 q 265 40 360 -17 q 117 196 169 97 q 64 415 64 294 q 127 654 64 547 q 298 822 190 761 q 538 883 406 883 q 758 828 664 883 q 904 674 853 772 q 956 454 956 576 q 892 210 956 317 q 719 43 828 103 q 483 -17 611 -17 m 544 19 q 716 66 643 19 q 828 197 789 113 q 867 393 867 282 q 817 625 867 521 q 680 790 768 729 q 482 850 592 850 q 311 803 386 850 q 194 671 236 757 q 151 469 151 585 q 203 242 151 344 q 344 79 254 139 q 544 19 433 19 m 389 932 q 381 938 383 932 q 385 947 379 944 l 539 1103 q 571 1101 544 1107 q 616 1085 597 1094 q 625 1072 635 1075 q 390 932 497 1014 l 389 932 m 557 932 q 551 938 553 932 q 553 947 549 944 q 707 1103 621 1011 q 739 1101 713 1107 q 785 1085 765 1094 q 794 1072 804 1075 q 560 932 669 1017 l 557 932 z "},"Ō":{"ha":1015,"x_min":64,"x_max":956,"o":"m 483 -17 q 265 40 360 -17 q 117 196 169 97 q 64 415 64 294 q 127 654 64 547 q 298 822 190 761 q 538 883 406 883 q 758 828 664 883 q 904 674 853 772 q 956 454 956 576 q 892 210 956 317 q 719 43 828 103 q 483 -17 611 -17 m 544 19 q 716 66 643 19 q 828 197 789 113 q 867 393 867 282 q 817 625 867 521 q 680 790 768 729 q 482 850 592 850 q 311 803 386 850 q 194 671 236 757 q 151 469 151 585 q 203 242 151 344 q 344 79 254 139 q 544 19 433 19 m 346 996 q 340 1003 342 996 q 338 1017 338 1010 q 346 1038 338 1038 l 676 1038 q 685 1017 685 1038 q 683 1003 685 1010 q 676 996 681 996 l 346 996 z "},"Ǫ":{"ha":1015,"x_min":64,"x_max":956,"o":"m 956 454 q 913 251 956 343 q 796 95 871 158 q 625 4 721 32 q 548 -104 575 -54 q 521 -204 521 -154 q 548 -304 521 -268 q 626 -340 575 -340 q 667 -331 651 -340 q 701 -304 683 -322 l 703 -304 q 713 -309 708 -304 q 714 -317 717 -314 q 652 -367 683 -351 q 586 -382 621 -382 q 492 -344 528 -382 q 457 -246 457 -307 q 593 -4 458 -146 q 483 -17 542 -17 q 265 40 360 -17 q 117 196 169 97 q 64 415 64 294 q 127 654 64 547 q 298 822 190 761 q 538 883 406 883 q 758 828 664 883 q 904 674 853 772 q 956 454 956 576 m 151 469 q 203 242 151 344 q 344 79 254 139 q 544 19 433 19 q 716 66 643 19 q 828 197 789 113 q 867 393 867 282 q 817 625 867 521 q 680 790 768 729 q 482 850 592 850 q 311 803 386 850 q 194 671 236 757 q 151 469 151 585 z "},"Ø":{"ha":1015,"x_min":64,"x_max":956,"o":"m 804 796 q 917 649 878 738 q 956 454 956 561 q 892 210 956 317 q 719 43 828 103 q 483 -17 611 -17 q 338 6 406 -17 q 217 72 269 29 l 149 -11 l 147 -12 q 132 -3 142 -12 q 125 10 122 6 l 193 93 q 97 236 131 153 q 64 415 64 319 q 127 654 64 547 q 298 822 190 761 q 538 883 406 883 q 779 814 678 883 l 829 875 q 832 876 829 876 q 848 869 839 876 q 854 857 857 861 l 804 796 m 151 469 q 178 304 151 382 q 251 165 204 226 l 728 751 q 615 824 678 799 q 482 850 553 850 q 311 803 386 850 q 194 671 236 757 q 151 469 151 585 m 544 19 q 716 66 643 19 q 828 197 789 113 q 867 393 867 282 q 836 579 867 493 q 750 728 806 665 l 272 140 q 395 51 325 83 q 544 19 465 19 z "},"Ǿ":{"ha":1015,"x_min":64,"x_max":956,"o":"m 804 796 q 917 649 878 738 q 956 454 956 561 q 892 210 956 317 q 719 43 828 103 q 483 -17 611 -17 q 338 6 406 -17 q 217 72 269 29 l 149 -11 l 147 -12 q 132 -3 142 -12 q 125 10 122 6 l 193 93 q 97 236 131 153 q 64 415 64 319 q 127 654 64 547 q 298 822 190 761 q 538 883 406 883 q 779 814 678 883 l 829 875 q 832 876 829 876 q 848 869 839 876 q 854 857 857 861 l 804 796 m 151 469 q 178 304 151 382 q 251 165 204 226 l 728 751 q 615 824 678 799 q 482 850 553 850 q 311 803 386 850 q 194 671 236 757 q 151 469 151 585 m 544 19 q 716 66 643 19 q 828 197 789 113 q 867 393 867 282 q 836 579 867 493 q 750 728 806 665 l 272 140 q 395 51 325 83 q 544 19 465 19 m 411 942 q 403 948 406 942 q 404 957 400 954 q 542 1046 454 985 q 578 1069 563 1058 q 606 1089 594 1081 q 640 1084 611 1093 q 691 1064 669 1075 q 703 1050 713 1053 q 414 943 554 1011 l 411 942 z "},"Õ":{"ha":1015,"x_min":64,"x_max":956,"o":"m 483 -17 q 265 40 360 -17 q 117 196 169 97 q 64 415 64 294 q 127 654 64 547 q 298 822 190 761 q 538 883 406 883 q 758 828 664 883 q 904 674 853 772 q 956 454 956 576 q 892 210 956 317 q 719 43 828 103 q 483 -17 611 -17 m 544 19 q 716 66 643 19 q 828 197 789 113 q 867 393 867 282 q 817 625 867 521 q 680 790 768 729 q 482 850 592 850 q 311 803 386 850 q 194 671 236 757 q 151 469 151 585 q 203 242 151 344 q 344 79 254 139 q 544 19 433 19 m 342 965 q 333 969 338 965 q 331 975 329 972 q 438 1061 379 1061 q 510 1047 457 1061 q 617 1028 576 1028 q 656 1037 642 1028 q 682 1065 669 1046 l 683 1065 q 692 1062 688 1065 q 694 1056 696 1058 q 644 986 665 1004 q 596 968 624 968 q 508 985 567 968 q 472 994 503 986 q 408 1003 440 1003 q 371 994 382 1003 q 343 965 360 986 l 342 965 z "},"Œ":{"ha":1229,"x_min":60,"x_max":1181,"o":"m 1161 208 q 1168 211 1161 211 q 1176 209 1172 211 q 1179 204 1181 207 q 1169 21 1169 136 q 1165 5 1169 10 q 1147 0 1160 0 l 744 0 q 642 -3 708 0 q 558 -6 578 -6 q 299 50 413 -6 q 123 203 186 106 q 60 419 60 300 q 125 656 60 554 q 300 815 190 758 q 539 871 410 871 q 626 869 593 871 l 738 868 l 1122 868 q 1131 865 1129 868 q 1133 856 1133 863 l 1138 682 q 1129 678 1138 678 q 1119 682 1122 678 q 1076 801 1114 756 q 976 846 1038 846 l 893 846 q 820 839 843 846 q 790 813 797 832 q 782 754 782 794 l 782 465 l 954 465 q 1040 488 1015 465 q 1064 564 1065 511 q 1073 571 1064 571 q 1081 564 1082 571 l 1081 518 l 1081 451 q 1082 390 1081 411 l 1083 322 q 1075 317 1083 317 q 1067 322 1067 317 q 1040 410 1067 383 q 949 438 1013 438 l 782 438 l 782 118 q 790 58 782 78 q 821 32 799 39 q 893 25 843 25 l 1010 25 q 1106 74 1067 25 q 1161 208 1144 124 m 543 15 q 632 22 601 15 q 677 50 663 29 q 692 114 692 71 l 689 738 q 678 804 688 781 q 639 839 668 828 q 553 850 610 850 q 351 804 439 850 q 215 668 264 758 q 167 450 167 578 q 214 228 167 328 q 347 72 261 129 q 543 15 432 15 z "},"P":{"ha":753,"x_min":54,"x_max":697,"o":"m 60 0 q 55 8 56 0 q 60 17 54 17 q 132 24 108 17 q 164 51 156 31 q 172 113 172 71 l 172 756 q 163 817 171 797 q 131 844 154 836 q 60 851 108 851 q 55 860 56 851 q 60 868 54 868 l 122 867 q 211 864 175 864 q 292 868 249 864 q 340 870 307 868 q 399 872 372 872 q 612 815 526 872 q 697 644 697 757 q 647 488 697 551 q 522 394 597 425 q 372 364 447 364 q 307 371 333 364 q 304 378 304 371 q 306 387 304 382 q 311 390 308 392 q 357 385 339 385 q 472 410 418 385 q 561 488 526 436 q 596 617 596 540 q 564 742 596 689 q 480 824 532 796 q 369 853 428 853 q 298 847 319 853 q 268 820 276 840 q 258 753 260 800 l 260 113 q 268 51 260 71 q 299 24 276 31 q 371 17 321 17 q 374 8 374 17 q 371 0 375 0 q 307 1 331 0 l 213 3 l 124 1 q 60 0 100 0 z "},"Þ":{"ha":800,"x_min":56,"x_max":750,"o":"m 364 200 q 499 224 435 200 q 606 301 564 249 q 647 429 647 353 q 610 559 647 501 q 509 649 572 617 q 369 681 446 681 q 258 671 307 681 l 261 113 q 270 49 261 68 q 308 24 279 31 q 407 17 338 17 q 411 8 411 17 q 407 0 411 0 q 329 1 358 0 l 215 3 l 125 1 q 60 0 100 0 q 56 8 57 0 q 60 17 56 17 q 132 24 108 17 q 164 51 156 31 q 172 113 172 71 l 172 756 q 163 817 171 797 q 133 844 156 836 q 64 851 111 851 q 59 860 60 851 q 64 868 58 868 l 125 867 q 214 864 181 864 q 336 867 264 864 l 410 868 q 414 860 414 868 q 410 851 414 851 q 310 845 339 851 q 270 819 281 839 q 258 753 260 800 l 258 690 q 404 701 332 701 q 652 637 554 701 q 750 453 750 572 q 692 299 750 361 q 549 208 635 238 q 378 179 463 179 q 313 186 340 179 q 310 193 310 186 q 312 202 310 197 q 317 206 314 207 q 364 200 344 200 z "},"Q":{"ha":1015,"x_min":64,"x_max":1106,"o":"m 1096 -246 q 1102 -252 1099 -244 q 1103 -261 1106 -260 q 990 -278 1036 -278 q 803 -205 906 -278 q 614 0 701 -132 q 483 -17 551 -17 q 265 40 360 -17 q 117 196 169 97 q 64 415 64 294 q 127 654 64 547 q 298 822 190 761 q 538 883 406 883 q 758 828 664 883 q 904 674 853 772 q 956 454 956 576 q 886 201 956 311 q 700 33 817 90 q 810 -112 747 -47 q 937 -215 874 -178 q 1047 -251 1000 -251 q 1096 -246 1068 -251 m 151 469 q 203 242 151 344 q 344 79 254 139 q 544 19 433 19 q 716 66 643 19 q 828 197 789 113 q 867 393 867 282 q 817 625 867 521 q 680 790 768 729 q 482 850 592 850 q 311 803 386 850 q 194 671 236 757 q 151 469 151 585 z "},"R":{"ha":922,"x_min":60,"x_max":946,"o":"m 940 17 q 946 8 946 17 q 940 0 946 0 l 778 0 q 647 119 742 0 q 418 454 551 239 q 326 442 375 442 q 278 444 306 442 l 276 113 q 285 51 278 69 q 315 24 292 32 q 390 17 339 17 q 396 8 396 17 q 392 0 396 0 q 325 1 349 0 l 229 3 l 135 1 q 65 0 110 0 q 60 8 60 0 q 64 17 60 17 q 142 24 117 17 q 178 52 168 32 q 189 113 188 72 l 189 756 q 179 817 188 797 q 147 844 171 836 q 69 851 122 851 q 64 860 64 851 q 69 868 64 868 l 139 867 q 231 864 194 864 q 283 865 260 864 q 321 868 306 867 q 392 872 360 872 q 567 826 507 872 q 628 699 628 781 q 590 576 628 633 q 486 482 551 518 q 684 203 606 303 q 823 60 763 104 q 940 17 883 17 m 276 478 q 350 474 313 474 q 490 515 447 474 q 533 651 533 557 q 488 804 533 756 q 364 853 442 853 q 308 847 325 853 q 285 822 292 842 q 276 753 278 801 l 276 478 z "},"Ŕ":{"ha":922,"x_min":60,"x_max":946,"o":"m 940 17 q 946 8 946 17 q 940 0 946 0 l 778 0 q 647 119 742 0 q 418 454 551 239 q 326 442 375 442 q 278 444 306 442 l 276 113 q 285 51 278 69 q 315 24 292 32 q 390 17 339 17 q 396 8 396 17 q 392 0 396 0 q 325 1 349 0 l 229 3 l 135 1 q 65 0 110 0 q 60 8 60 0 q 64 17 60 17 q 142 24 117 17 q 178 52 168 32 q 189 113 188 72 l 189 756 q 179 817 188 797 q 147 844 171 836 q 69 851 122 851 q 64 860 64 851 q 69 868 64 868 l 139 867 q 231 864 194 864 q 283 865 260 864 q 321 868 306 867 q 392 872 360 872 q 567 826 507 872 q 628 699 628 781 q 590 576 628 633 q 486 482 551 518 q 684 203 606 303 q 823 60 763 104 q 940 17 883 17 m 276 478 q 350 474 313 474 q 490 515 447 474 q 533 651 533 557 q 488 804 533 756 q 364 853 442 853 q 308 847 325 853 q 285 822 292 842 q 276 753 278 801 l 276 478 m 279 942 q 271 948 274 942 q 272 957 268 954 q 410 1046 322 985 q 447 1069 431 1058 q 474 1089 463 1081 q 508 1084 479 1093 q 559 1064 538 1075 q 571 1050 581 1053 q 282 943 422 1011 l 279 942 z "},"Ř":{"ha":922,"x_min":60,"x_max":946,"o":"m 940 17 q 946 8 946 17 q 940 0 946 0 l 778 0 q 647 119 742 0 q 418 454 551 239 q 326 442 375 442 q 278 444 306 442 l 276 113 q 285 51 278 69 q 315 24 292 32 q 390 17 339 17 q 396 8 396 17 q 392 0 396 0 q 325 1 349 0 l 229 3 l 135 1 q 65 0 110 0 q 60 8 60 0 q 64 17 60 17 q 142 24 117 17 q 178 52 168 32 q 189 113 188 72 l 189 756 q 179 817 188 797 q 147 844 171 836 q 69 851 122 851 q 64 860 64 851 q 69 868 64 868 l 139 867 q 231 864 194 864 q 283 865 260 864 q 321 868 306 867 q 392 872 360 872 q 567 826 507 872 q 628 699 628 781 q 590 576 628 633 q 486 482 551 518 q 684 203 606 303 q 823 60 763 104 q 940 17 883 17 m 276 478 q 350 474 313 474 q 490 515 447 474 q 533 651 533 557 q 488 804 533 756 q 364 853 442 853 q 308 847 325 853 q 285 822 292 842 q 276 753 278 801 l 276 478 m 221 1072 l 221 1074 q 224 1081 221 1078 q 229 1082 228 1085 l 363 1003 l 488 1083 l 490 1083 q 498 1079 494 1083 q 497 1072 501 1075 l 374 938 q 361 932 369 932 q 347 938 353 932 l 221 1072 z "},"Ŗ":{"ha":922,"x_min":60,"x_max":946,"o":"m 940 17 q 946 8 946 17 q 940 0 946 0 l 778 0 q 647 119 742 0 q 418 454 551 239 q 326 442 375 442 q 278 444 306 442 l 276 113 q 285 51 278 69 q 315 24 292 32 q 390 17 339 17 q 396 8 396 17 q 392 0 396 0 q 325 1 349 0 l 229 3 l 135 1 q 65 0 110 0 q 60 8 60 0 q 64 17 60 17 q 142 24 117 17 q 178 52 168 32 q 189 113 188 72 l 189 756 q 179 817 188 797 q 147 844 171 836 q 69 851 122 851 q 64 860 64 851 q 69 868 64 868 l 139 867 q 231 864 194 864 q 283 865 260 864 q 321 868 306 867 q 392 872 360 872 q 567 826 507 872 q 628 699 628 781 q 590 576 628 633 q 486 482 551 518 q 684 203 606 303 q 823 60 763 104 q 940 17 883 17 m 276 478 q 350 474 313 474 q 490 515 447 474 q 533 651 533 557 q 488 804 533 756 q 364 853 442 853 q 308 847 325 853 q 285 822 292 842 q 276 753 278 801 l 276 478 m 489 -118 q 547 -144 526 -118 q 567 -219 567 -171 q 545 -305 567 -265 q 482 -382 524 -344 q 478 -383 481 -383 q 471 -378 474 -383 q 471 -371 468 -374 q 532 -247 532 -315 q 524 -207 532 -219 q 482 -228 513 -228 q 442 -213 457 -228 q 428 -174 428 -199 q 489 -118 428 -118 z "},"Ṛ":{"ha":922,"x_min":60,"x_max":946,"o":"m 940 17 q 946 8 946 17 q 940 0 946 0 l 778 0 q 647 119 742 0 q 418 454 551 239 q 326 442 375 442 q 278 444 306 442 l 276 113 q 285 51 278 69 q 315 24 292 32 q 390 17 339 17 q 396 8 396 17 q 392 0 396 0 q 325 1 349 0 l 229 3 l 135 1 q 65 0 110 0 q 60 8 60 0 q 64 17 60 17 q 142 24 117 17 q 178 52 168 32 q 189 113 188 72 l 189 756 q 179 817 188 797 q 147 844 171 836 q 69 851 122 851 q 64 860 64 851 q 69 868 64 868 l 139 867 q 231 864 194 864 q 283 865 260 864 q 321 868 306 867 q 392 872 360 872 q 567 826 507 872 q 628 699 628 781 q 590 576 628 633 q 486 482 551 518 q 684 203 606 303 q 823 60 763 104 q 940 17 883 17 m 276 478 q 350 474 313 474 q 490 515 447 474 q 533 651 533 557 q 488 804 533 756 q 364 853 442 853 q 308 847 325 853 q 285 822 292 842 q 276 753 278 801 l 276 478 m 493 -264 q 448 -248 464 -264 q 432 -203 432 -232 q 448 -161 432 -176 q 493 -146 464 -146 q 536 -161 521 -146 q 551 -203 551 -176 q 536 -248 551 -232 q 493 -264 521 -264 z "},"Ṝ":{"ha":922,"x_min":60,"x_max":946,"o":"m 940 17 q 946 8 946 17 q 940 0 946 0 l 778 0 q 647 119 742 0 q 418 454 551 239 q 326 442 375 442 q 278 444 306 442 l 276 113 q 285 51 278 69 q 315 24 292 32 q 390 17 339 17 q 396 8 396 17 q 392 0 396 0 q 325 1 349 0 l 229 3 l 135 1 q 65 0 110 0 q 60 8 60 0 q 64 17 60 17 q 142 24 117 17 q 178 52 168 32 q 189 113 188 72 l 189 756 q 179 817 188 797 q 147 844 171 836 q 69 851 122 851 q 64 860 64 851 q 69 868 64 868 l 139 867 q 231 864 194 864 q 283 865 260 864 q 321 868 306 867 q 392 872 360 872 q 567 826 507 872 q 628 699 628 781 q 590 576 628 633 q 486 482 551 518 q 684 203 606 303 q 823 60 763 104 q 940 17 883 17 m 276 478 q 350 474 313 474 q 490 515 447 474 q 533 651 533 557 q 488 804 533 756 q 364 853 442 853 q 308 847 325 853 q 285 822 292 842 q 276 753 278 801 l 276 478 m 493 -264 q 448 -248 464 -264 q 432 -203 432 -232 q 448 -161 432 -176 q 493 -146 464 -146 q 536 -161 521 -146 q 551 -203 551 -176 q 536 -248 551 -232 q 493 -264 521 -264 m 199 996 q 192 1003 194 996 q 190 1017 190 1010 q 199 1038 190 1038 l 529 1038 q 538 1017 538 1038 q 535 1003 538 1010 q 529 996 533 996 l 199 996 z "},"Ṟ":{"ha":922,"x_min":60,"x_max":946,"o":"m 940 17 q 946 8 946 17 q 940 0 946 0 l 778 0 q 647 119 742 0 q 418 454 551 239 q 326 442 375 442 q 278 444 306 442 l 276 113 q 285 51 278 69 q 315 24 292 32 q 390 17 339 17 q 396 8 396 17 q 392 0 396 0 q 325 1 349 0 l 229 3 l 135 1 q 65 0 110 0 q 60 8 60 0 q 64 17 60 17 q 142 24 117 17 q 178 52 168 32 q 189 113 188 72 l 189 756 q 179 817 188 797 q 147 844 171 836 q 69 851 122 851 q 64 860 64 851 q 69 868 64 868 l 139 867 q 231 864 194 864 q 283 865 260 864 q 321 868 306 867 q 392 872 360 872 q 567 826 507 872 q 628 699 628 781 q 590 576 628 633 q 486 482 551 518 q 684 203 606 303 q 823 60 763 104 q 940 17 883 17 m 276 478 q 350 474 313 474 q 490 515 447 474 q 533 651 533 557 q 488 804 533 756 q 364 853 442 853 q 308 847 325 853 q 285 822 292 842 q 276 753 278 801 l 276 478 m 321 -164 q 313 -143 313 -164 q 315 -129 313 -136 q 321 -122 317 -122 l 651 -122 q 658 -129 656 -122 q 660 -143 660 -136 q 651 -164 660 -164 l 321 -164 z "},"S":{"ha":689,"x_min":96,"x_max":613,"o":"m 201 707 q 228 613 201 653 q 294 544 256 572 q 400 476 333 515 q 512 406 469 438 q 583 329 554 375 q 613 222 613 283 q 579 100 613 154 q 482 15 546 46 q 328 -17 418 -17 q 128 32 221 -17 q 115 58 117 39 l 97 247 q 103 254 96 253 q 114 250 111 256 q 197 78 135 151 q 360 6 258 6 q 476 44 429 6 q 524 165 524 82 q 495 274 524 228 q 426 352 467 321 q 317 422 385 383 q 211 492 250 463 q 145 564 172 521 q 118 665 118 607 q 155 785 118 736 q 251 859 192 835 q 378 883 311 883 q 542 850 465 883 q 563 826 563 842 l 572 667 q 565 660 572 661 q 556 665 557 660 q 528 753 550 708 q 462 831 506 799 q 356 863 418 863 q 240 817 278 863 q 201 707 201 772 z "},"Ś":{"ha":689,"x_min":97,"x_max":613,"o":"m 201 707 q 228 613 201 653 q 294 544 256 572 q 400 476 333 515 q 512 406 469 438 q 583 329 554 375 q 613 222 613 283 q 579 100 613 154 q 482 15 546 46 q 328 -17 418 -17 q 128 32 221 -17 q 115 58 117 39 l 97 247 q 103 254 96 253 q 114 250 111 256 q 197 78 135 151 q 360 6 258 6 q 476 44 429 6 q 524 165 524 82 q 495 274 524 228 q 426 352 467 321 q 317 422 385 383 q 211 492 250 463 q 145 564 172 521 q 118 665 118 607 q 155 785 118 736 q 251 859 192 835 q 378 883 311 883 q 542 850 465 883 q 563 826 563 842 l 572 667 q 565 660 572 661 q 556 665 557 660 q 528 753 550 708 q 462 831 506 799 q 356 863 418 863 q 240 817 278 863 q 201 707 201 772 m 278 942 q 269 948 272 942 q 271 957 267 954 q 408 1046 321 985 q 445 1069 429 1058 q 472 1089 461 1081 q 507 1084 478 1093 q 558 1064 536 1075 q 569 1050 579 1053 q 281 943 421 1011 l 278 942 z "},"Š":{"ha":689,"x_min":97,"x_max":613,"o":"m 201 707 q 228 613 201 653 q 294 544 256 572 q 400 476 333 515 q 512 406 469 438 q 583 329 554 375 q 613 222 613 283 q 579 100 613 154 q 482 15 546 46 q 328 -17 418 -17 q 128 32 221 -17 q 115 58 117 39 l 97 247 q 103 254 96 253 q 114 250 111 256 q 197 78 135 151 q 360 6 258 6 q 476 44 429 6 q 524 165 524 82 q 495 274 524 228 q 426 352 467 321 q 317 422 385 383 q 211 492 250 463 q 145 564 172 521 q 118 665 118 607 q 155 785 118 736 q 251 859 192 835 q 378 883 311 883 q 542 850 465 883 q 563 826 563 842 l 572 667 q 565 660 572 661 q 556 665 557 660 q 528 753 550 708 q 462 831 506 799 q 356 863 418 863 q 240 817 278 863 q 201 707 201 772 m 219 1072 l 219 1074 q 223 1081 219 1078 q 228 1082 226 1085 l 361 1003 l 486 1083 l 489 1083 q 497 1079 493 1083 q 496 1072 500 1075 l 372 938 q 360 932 368 932 q 346 938 351 932 l 219 1072 z "},"Ş":{"ha":689,"x_min":96,"x_max":613,"o":"m 613 222 q 551 64 613 129 q 376 -14 489 -1 q 372 -50 372 -35 q 383 -99 372 -78 q 418 -144 394 -121 q 467 -207 450 -179 q 482 -261 483 -235 q 452 -343 483 -304 q 361 -382 421 -382 q 299 -365 325 -382 q 274 -319 274 -349 q 307 -287 274 -287 q 333 -297 322 -287 q 354 -324 343 -307 q 376 -349 368 -342 q 396 -356 383 -356 q 436 -304 436 -356 q 417 -253 435 -281 q 364 -192 399 -226 q 332 -118 332 -160 q 338 -83 332 -100 l 358 -15 q 328 -17 349 -17 q 128 32 221 -17 q 115 58 117 39 l 97 247 q 103 254 96 253 q 114 250 111 256 q 197 78 135 151 q 360 6 258 6 q 476 44 429 6 q 524 165 524 82 q 495 274 524 228 q 426 352 467 321 q 317 422 385 383 q 211 492 250 463 q 145 564 172 521 q 118 665 118 607 q 155 785 118 736 q 251 859 192 835 q 378 883 311 883 q 542 850 465 883 q 563 826 563 842 l 572 667 q 565 660 572 661 q 556 665 557 660 q 528 753 550 708 q 462 831 506 799 q 356 863 418 863 q 240 817 278 863 q 201 707 201 772 q 228 613 201 653 q 294 544 256 572 q 400 476 333 515 q 512 406 469 438 q 583 329 554 375 q 613 222 613 283 z "},"Ŝ":{"ha":689,"x_min":97,"x_max":613,"o":"m 201 707 q 228 613 201 653 q 294 544 256 572 q 400 476 333 515 q 512 406 469 438 q 583 329 554 375 q 613 222 613 283 q 579 100 613 154 q 482 15 546 46 q 328 -17 418 -17 q 128 32 221 -17 q 115 58 117 39 l 97 247 q 103 254 96 253 q 114 250 111 256 q 197 78 135 151 q 360 6 258 6 q 476 44 429 6 q 524 165 524 82 q 495 274 524 228 q 426 352 467 321 q 317 422 385 383 q 211 492 250 463 q 145 564 172 521 q 118 665 118 607 q 155 785 118 736 q 251 859 192 835 q 378 883 311 883 q 542 850 465 883 q 563 826 563 842 l 572 667 q 565 660 572 661 q 556 665 557 660 q 528 753 550 708 q 462 831 506 799 q 356 863 418 863 q 240 817 278 863 q 201 707 201 772 m 235 917 q 227 920 231 917 q 226 926 224 924 l 350 1061 q 363 1068 354 1068 q 376 1061 369 1068 l 503 926 l 504 924 q 501 917 504 919 q 494 917 497 915 l 361 996 l 236 917 l 235 917 z "},"Ș":{"ha":689,"x_min":97,"x_max":613,"o":"m 201 707 q 228 613 201 653 q 294 544 256 572 q 400 476 333 515 q 512 406 469 438 q 583 329 554 375 q 613 222 613 283 q 579 100 613 154 q 482 15 546 46 q 328 -17 418 -17 q 128 32 221 -17 q 115 58 117 39 l 97 247 q 103 254 96 253 q 114 250 111 256 q 197 78 135 151 q 360 6 258 6 q 476 44 429 6 q 524 165 524 82 q 495 274 524 228 q 426 352 467 321 q 317 422 385 383 q 211 492 250 463 q 145 564 172 521 q 118 665 118 607 q 155 785 118 736 q 251 859 192 835 q 378 883 311 883 q 542 850 465 883 q 563 826 563 842 l 572 667 q 565 660 572 661 q 556 665 557 660 q 528 753 550 708 q 462 831 506 799 q 356 863 418 863 q 240 817 278 863 q 201 707 201 772 m 358 -118 q 416 -144 396 -118 q 436 -219 436 -171 q 415 -305 436 -265 q 351 -382 393 -344 q 347 -383 350 -383 q 340 -378 343 -383 q 340 -371 338 -374 q 401 -247 401 -315 q 393 -207 401 -219 q 351 -228 382 -228 q 312 -213 326 -228 q 297 -174 297 -199 q 358 -118 297 -118 z "},"Ṡ":{"ha":689,"x_min":97,"x_max":613,"o":"m 201 707 q 228 613 201 653 q 294 544 256 572 q 400 476 333 515 q 512 406 469 438 q 583 329 554 375 q 613 222 613 283 q 579 100 613 154 q 482 15 546 46 q 328 -17 418 -17 q 128 32 221 -17 q 115 58 117 39 l 97 247 q 103 254 96 253 q 114 250 111 256 q 197 78 135 151 q 360 6 258 6 q 476 44 429 6 q 524 165 524 82 q 495 274 524 228 q 426 352 467 321 q 317 422 385 383 q 211 492 250 463 q 145 564 172 521 q 118 665 118 607 q 155 785 118 736 q 251 859 192 835 q 378 883 311 883 q 542 850 465 883 q 563 826 563 842 l 572 667 q 565 660 572 661 q 556 665 557 660 q 528 753 550 708 q 462 831 506 799 q 356 863 418 863 q 240 817 278 863 q 201 707 201 772 m 363 983 q 318 999 335 983 q 301 1043 301 1015 q 318 1085 301 1069 q 363 1101 335 1101 q 406 1086 390 1101 q 422 1043 422 1071 q 406 999 422 1015 q 363 983 390 983 z "},"Ṣ":{"ha":689,"x_min":97,"x_max":613,"o":"m 201 707 q 228 613 201 653 q 294 544 256 572 q 400 476 333 515 q 512 406 469 438 q 583 329 554 375 q 613 222 613 283 q 579 100 613 154 q 482 15 546 46 q 328 -17 418 -17 q 128 32 221 -17 q 115 58 117 39 l 97 247 q 103 254 96 253 q 114 250 111 256 q 197 78 135 151 q 360 6 258 6 q 476 44 429 6 q 524 165 524 82 q 495 274 524 228 q 426 352 467 321 q 317 422 385 383 q 211 492 250 463 q 145 564 172 521 q 118 665 118 607 q 155 785 118 736 q 251 859 192 835 q 378 883 311 883 q 542 850 465 883 q 563 826 563 842 l 572 667 q 565 660 572 661 q 556 665 557 660 q 528 753 550 708 q 462 831 506 799 q 356 863 418 863 q 240 817 278 863 q 201 707 201 772 m 363 -264 q 317 -248 333 -264 q 301 -203 301 -232 q 317 -161 301 -176 q 363 -146 333 -146 q 406 -161 390 -146 q 421 -203 421 -176 q 406 -248 421 -232 q 363 -264 390 -264 z "},"ẞ":{"ha":954,"x_min":14,"x_max":899,"o":"m 631 -17 q 460 31 535 -17 q 449 42 451 36 q 444 57 446 47 l 428 194 l 428 196 q 435 203 428 203 q 444 197 443 203 q 498 109 458 151 q 588 40 538 67 q 686 14 639 14 q 786 53 749 14 q 824 163 824 93 q 761 315 824 242 q 563 476 699 388 q 553 487 554 482 q 558 497 553 492 l 722 744 q 553 812 635 789 q 410 835 471 835 q 311 811 349 835 q 254 731 274 788 q 235 572 235 674 l 235 113 q 244 51 235 71 q 278 24 253 31 q 357 17 303 17 q 363 8 363 17 q 358 0 364 0 l 188 1 l 21 0 q 15 8 15 0 q 19 17 14 17 q 98 24 72 17 q 135 52 124 32 q 144 113 146 72 l 144 531 q 185 701 144 619 q 304 833 226 782 q 488 883 382 883 q 722 836 581 883 q 767 826 751 826 q 790 835 781 826 q 822 874 800 844 q 826 875 824 875 q 834 872 831 875 q 836 865 838 868 l 618 542 q 833 379 769 450 q 897 231 897 308 q 868 110 899 167 q 777 19 838 54 q 631 -17 717 -17 z "},"Ə":{"ha":888,"x_min":76,"x_max":821,"o":"m 399 883 q 647 820 553 883 q 781 660 742 757 q 821 450 821 563 q 762 200 821 306 q 603 39 703 94 q 382 -17 503 -17 q 210 21 279 -17 q 109 114 142 58 q 76 224 76 169 q 80 240 76 236 q 92 243 83 243 l 696 246 q 711 400 711 308 q 674 639 711 533 q 567 805 638 744 q 400 865 496 865 q 225 815 310 865 q 106 669 140 765 q 99 665 104 665 q 90 668 94 665 q 86 674 85 671 l 140 890 q 146 894 140 894 q 156 892 151 894 q 158 886 160 889 q 157 872 157 881 q 164 851 157 858 q 183 843 171 843 q 197 846 186 843 q 303 875 260 867 q 399 883 346 883 m 431 11 q 595 65 531 11 q 689 219 660 118 l 183 213 q 261 66 194 121 q 431 11 328 11 z "},"T":{"ha":828,"x_min":33,"x_max":797,"o":"m 257 0 q 251 8 251 0 q 256 17 251 17 q 333 24 308 17 q 367 51 358 31 q 375 113 376 71 l 375 756 q 369 812 376 793 q 341 838 361 831 q 279 844 321 844 l 243 844 q 109 798 153 844 q 51 644 65 751 q 46 642 51 642 q 38 644 42 642 q 35 647 33 646 q 56 899 42 696 q 63 903 56 903 q 70 901 67 903 q 74 897 74 900 q 136 868 74 868 q 418 864 249 864 q 589 867 494 864 l 686 868 q 753 875 732 868 q 779 903 774 882 q 790 906 782 907 q 796 900 797 906 q 788 761 792 844 q 785 649 783 678 q 776 643 785 643 q 767 649 767 643 q 726 799 767 754 q 589 844 686 844 l 553 844 q 494 837 513 844 q 469 810 475 829 q 463 753 463 792 l 464 113 q 474 50 465 69 q 506 24 482 31 q 585 17 531 17 q 588 8 588 17 q 585 0 588 0 q 518 1 542 0 l 419 3 l 324 1 q 257 0 300 0 z "},"Ŧ":{"ha":828,"x_min":33,"x_max":797,"o":"m 779 903 q 790 906 782 907 q 796 900 797 906 q 788 761 792 844 q 785 649 783 678 q 776 643 785 643 q 767 649 767 643 q 726 799 767 754 q 589 844 686 844 l 553 844 q 494 837 513 844 q 469 810 475 829 q 463 753 463 792 l 463 463 l 601 463 q 606 458 604 463 q 608 449 608 454 q 601 433 608 433 l 463 433 l 464 113 q 474 50 465 69 q 506 24 482 31 q 585 17 531 17 q 588 8 588 17 q 585 0 588 0 q 518 1 542 0 l 419 3 l 324 1 q 257 0 300 0 q 251 8 251 0 q 256 17 251 17 q 333 24 308 17 q 367 51 358 31 q 375 113 376 71 l 375 433 l 238 433 q 232 449 232 433 q 238 463 232 463 l 375 463 l 375 756 q 369 812 376 793 q 341 838 361 831 q 279 844 321 844 l 243 844 q 109 798 153 844 q 51 644 65 751 q 46 642 51 642 q 38 644 42 642 q 35 647 33 646 q 56 899 42 696 q 63 903 56 903 q 70 901 67 903 q 74 897 74 900 q 136 868 74 868 q 418 864 249 864 q 589 867 494 864 l 686 868 q 753 875 732 868 q 779 903 774 882 z "},"Ť":{"ha":828,"x_min":35,"x_max":796,"o":"m 257 0 q 251 8 251 0 q 256 17 251 17 q 333 24 308 17 q 367 51 358 31 q 375 113 376 71 l 375 756 q 369 812 376 793 q 341 838 361 831 q 279 844 321 844 l 243 844 q 109 798 153 844 q 51 644 65 751 q 46 642 51 642 q 38 644 42 642 q 35 647 33 646 q 56 899 42 696 q 63 903 56 903 q 70 901 67 903 q 74 897 74 900 q 136 868 74 868 q 418 864 249 864 q 589 867 494 864 l 686 868 q 753 875 732 868 q 779 903 774 882 q 790 906 782 907 q 796 900 797 906 q 788 761 792 844 q 785 649 783 678 q 776 643 785 643 q 767 649 767 643 q 726 799 767 754 q 589 844 686 844 l 553 844 q 494 837 513 844 q 469 810 475 829 q 463 753 463 792 l 464 113 q 474 50 465 69 q 506 24 482 31 q 585 17 531 17 q 588 8 588 17 q 585 0 588 0 q 518 1 542 0 l 419 3 l 324 1 q 257 0 300 0 m 272 1072 l 272 1074 q 276 1081 272 1078 q 281 1082 279 1085 l 414 1003 l 539 1083 l 542 1083 q 549 1079 546 1083 q 549 1072 553 1075 l 425 938 q 413 932 421 932 q 399 938 404 932 l 272 1072 z "},"Ţ":{"ha":828,"x_min":33,"x_max":797,"o":"m 779 903 q 790 906 782 907 q 796 900 797 906 q 788 761 792 844 q 785 649 783 678 q 776 643 785 643 q 767 649 767 643 q 726 799 767 754 q 589 844 686 844 l 553 844 q 494 837 513 844 q 469 810 475 829 q 463 753 463 792 l 464 113 q 474 50 465 69 q 506 24 482 31 q 585 17 531 17 q 588 8 588 17 q 585 0 588 0 q 522 1 544 0 l 433 3 q 426 -54 426 -35 q 435 -103 426 -82 q 465 -144 444 -124 q 514 -207 497 -179 q 529 -261 531 -235 q 499 -343 531 -304 q 408 -382 468 -382 q 347 -365 372 -382 q 321 -319 321 -349 q 354 -287 321 -287 q 380 -297 369 -287 q 401 -324 390 -307 q 423 -349 415 -342 q 443 -356 431 -356 q 483 -304 483 -356 q 464 -253 482 -281 q 411 -192 446 -226 q 379 -118 379 -160 q 385 -83 379 -99 l 414 3 l 322 1 q 257 0 297 0 q 251 8 251 0 q 256 17 251 17 q 333 24 308 17 q 367 51 358 31 q 375 113 376 71 l 375 756 q 369 812 376 793 q 341 838 361 831 q 279 844 321 844 l 243 844 q 109 798 153 844 q 51 644 65 751 q 46 642 51 642 q 38 644 42 642 q 35 647 33 646 q 56 899 42 696 q 63 903 56 903 q 70 901 67 903 q 74 897 74 900 q 136 868 74 868 q 418 864 249 864 q 589 867 494 864 l 686 868 q 753 875 732 868 q 779 903 774 882 z "},"Ț":{"ha":828,"x_min":35,"x_max":796,"o":"m 257 0 q 251 8 251 0 q 256 17 251 17 q 333 24 308 17 q 367 51 358 31 q 375 113 376 71 l 375 756 q 369 812 376 793 q 341 838 361 831 q 279 844 321 844 l 243 844 q 109 798 153 844 q 51 644 65 751 q 46 642 51 642 q 38 644 42 642 q 35 647 33 646 q 56 899 42 696 q 63 903 56 903 q 70 901 67 903 q 74 897 74 900 q 136 868 74 868 q 418 864 249 864 q 589 867 494 864 l 686 868 q 753 875 732 868 q 779 903 774 882 q 790 906 782 907 q 796 900 797 906 q 788 761 792 844 q 785 649 783 678 q 776 643 785 643 q 767 649 767 643 q 726 799 767 754 q 589 844 686 844 l 553 844 q 494 837 513 844 q 469 810 475 829 q 463 753 463 792 l 464 113 q 474 50 465 69 q 506 24 482 31 q 585 17 531 17 q 588 8 588 17 q 585 0 588 0 q 518 1 542 0 l 419 3 l 324 1 q 257 0 300 0 m 421 -118 q 478 -144 458 -118 q 499 -219 499 -171 q 477 -305 499 -265 q 414 -382 456 -344 q 410 -383 413 -383 q 403 -378 406 -383 q 403 -371 400 -374 q 464 -247 464 -315 q 456 -207 464 -219 q 414 -228 444 -228 q 374 -213 389 -228 q 360 -174 360 -199 q 421 -118 360 -118 z "},"Ṭ":{"ha":828,"x_min":35,"x_max":796,"o":"m 257 0 q 251 8 251 0 q 256 17 251 17 q 333 24 308 17 q 367 51 358 31 q 375 113 376 71 l 375 756 q 369 812 376 793 q 341 838 361 831 q 279 844 321 844 l 243 844 q 109 798 153 844 q 51 644 65 751 q 46 642 51 642 q 38 644 42 642 q 35 647 33 646 q 56 899 42 696 q 63 903 56 903 q 70 901 67 903 q 74 897 74 900 q 136 868 74 868 q 418 864 249 864 q 589 867 494 864 l 686 868 q 753 875 732 868 q 779 903 774 882 q 790 906 782 907 q 796 900 797 906 q 788 761 792 844 q 785 649 783 678 q 776 643 785 643 q 767 649 767 643 q 726 799 767 754 q 589 844 686 844 l 553 844 q 494 837 513 844 q 469 810 475 829 q 463 753 463 792 l 464 113 q 474 50 465 69 q 506 24 482 31 q 585 17 531 17 q 588 8 588 17 q 585 0 588 0 q 518 1 542 0 l 419 3 l 324 1 q 257 0 300 0 m 425 -264 q 380 -248 396 -264 q 364 -203 364 -232 q 380 -161 364 -176 q 425 -146 396 -146 q 468 -161 453 -146 q 483 -203 483 -176 q 468 -248 483 -232 q 425 -264 453 -264 z "},"Ṯ":{"ha":828,"x_min":35,"x_max":796,"o":"m 257 0 q 251 8 251 0 q 256 17 251 17 q 333 24 308 17 q 367 51 358 31 q 375 113 376 71 l 375 756 q 369 812 376 793 q 341 838 361 831 q 279 844 321 844 l 243 844 q 109 798 153 844 q 51 644 65 751 q 46 642 51 642 q 38 644 42 642 q 35 647 33 646 q 56 899 42 696 q 63 903 56 903 q 70 901 67 903 q 74 897 74 900 q 136 868 74 868 q 418 864 249 864 q 589 867 494 864 l 686 868 q 753 875 732 868 q 779 903 774 882 q 790 906 782 907 q 796 900 797 906 q 788 761 792 844 q 785 649 783 678 q 776 643 785 643 q 767 649 767 643 q 726 799 767 754 q 589 844 686 844 l 553 844 q 494 837 513 844 q 469 810 475 829 q 463 753 463 792 l 464 113 q 474 50 465 69 q 506 24 482 31 q 585 17 531 17 q 588 8 588 17 q 585 0 588 0 q 518 1 542 0 l 419 3 l 324 1 q 257 0 300 0 m 253 -164 q 244 -143 244 -164 q 247 -129 244 -136 q 253 -122 249 -122 l 583 -122 q 590 -129 588 -122 q 592 -143 592 -136 q 583 -164 592 -164 l 253 -164 z "},"U":{"ha":1049,"x_min":43,"x_max":1004,"o":"m 999 17 q 1003 8 1003 17 q 999 0 1004 0 l 879 1 l 804 0 q 785 4 789 0 q 782 26 782 8 l 782 121 q 632 16 704 49 q 475 -17 560 -17 q 311 17 383 -17 q 199 113 239 50 q 158 258 158 175 l 158 756 q 149 817 157 797 q 119 844 142 836 q 47 851 96 851 q 43 860 43 851 q 47 868 43 868 l 110 867 q 199 864 163 864 q 293 867 235 864 l 356 868 q 360 860 360 868 q 357 851 360 851 q 285 843 308 851 q 255 815 263 835 q 246 753 247 794 l 246 307 q 315 96 246 171 q 508 21 383 21 q 646 50 582 21 q 782 149 710 79 l 779 753 q 773 815 781 794 q 742 843 765 835 q 671 851 719 851 q 667 860 667 851 q 671 868 667 868 l 733 867 q 824 864 789 864 q 915 867 857 864 l 981 868 q 983 860 983 868 q 981 851 983 851 q 909 844 932 851 q 878 817 886 836 q 869 756 869 797 l 869 113 q 878 51 869 71 q 915 24 888 31 q 999 17 942 17 z "},"Ú":{"ha":1049,"x_min":43,"x_max":1003,"o":"m 999 17 q 1003 8 1003 17 q 999 0 1004 0 l 879 1 l 804 0 q 785 4 789 0 q 782 26 782 8 l 782 121 q 632 16 704 49 q 475 -17 560 -17 q 311 17 383 -17 q 199 113 239 50 q 158 258 158 175 l 158 756 q 149 817 157 797 q 119 844 142 836 q 47 851 96 851 q 43 860 43 851 q 47 868 43 868 l 110 867 q 199 864 163 864 q 293 867 235 864 l 356 868 q 360 860 360 868 q 357 851 360 851 q 285 843 308 851 q 255 815 263 835 q 246 753 247 794 l 246 307 q 315 96 246 171 q 508 21 383 21 q 646 50 582 21 q 782 149 710 79 l 779 753 q 773 815 781 794 q 742 843 765 835 q 671 851 719 851 q 667 860 667 851 q 671 868 667 868 l 733 867 q 824 864 789 864 q 915 867 857 864 l 981 868 q 983 860 983 868 q 981 851 983 851 q 909 844 932 851 q 878 817 886 836 q 869 756 869 797 l 869 113 q 878 51 869 71 q 915 24 888 31 q 999 17 942 17 m 428 942 q 419 948 422 942 q 421 957 417 954 q 558 1046 471 985 q 595 1069 579 1058 q 622 1089 611 1081 q 657 1084 628 1093 q 708 1064 686 1075 q 719 1050 729 1053 q 431 943 571 1011 l 428 942 z "},"Ŭ":{"ha":1049,"x_min":43,"x_max":1003,"o":"m 999 17 q 1003 8 1003 17 q 999 0 1004 0 l 879 1 l 804 0 q 785 4 789 0 q 782 26 782 8 l 782 121 q 632 16 704 49 q 475 -17 560 -17 q 311 17 383 -17 q 199 113 239 50 q 158 258 158 175 l 158 756 q 149 817 157 797 q 119 844 142 836 q 47 851 96 851 q 43 860 43 851 q 47 868 43 868 l 110 867 q 199 864 163 864 q 293 867 235 864 l 356 868 q 360 860 360 868 q 357 851 360 851 q 285 843 308 851 q 255 815 263 835 q 246 753 247 794 l 246 307 q 315 96 246 171 q 508 21 383 21 q 646 50 582 21 q 782 149 710 79 l 779 753 q 773 815 781 794 q 742 843 765 835 q 671 851 719 851 q 667 860 667 851 q 671 868 667 868 l 733 867 q 824 864 789 864 q 915 867 857 864 l 981 868 q 983 860 983 868 q 981 851 983 851 q 909 844 932 851 q 878 817 886 836 q 869 756 869 797 l 869 113 q 878 51 869 71 q 915 24 888 31 q 999 17 942 17 m 510 924 q 428 956 464 924 q 381 1044 392 988 q 398 1060 379 1053 q 433 1067 417 1067 q 447 1063 447 1067 q 483 999 458 1021 q 538 976 508 976 q 590 998 565 976 q 626 1058 615 1019 q 633 1063 629 1063 q 644 1059 639 1063 q 650 1053 650 1056 q 595 957 635 990 q 510 924 556 924 z "},"Ǔ":{"ha":1049,"x_min":43,"x_max":1003,"o":"m 999 17 q 1003 8 1003 17 q 999 0 1004 0 l 879 1 l 804 0 q 785 4 789 0 q 782 26 782 8 l 782 121 q 632 16 704 49 q 475 -17 560 -17 q 311 17 383 -17 q 199 113 239 50 q 158 258 158 175 l 158 756 q 149 817 157 797 q 119 844 142 836 q 47 851 96 851 q 43 860 43 851 q 47 868 43 868 l 110 867 q 199 864 163 864 q 293 867 235 864 l 356 868 q 360 860 360 868 q 357 851 360 851 q 285 843 308 851 q 255 815 263 835 q 246 753 247 794 l 246 307 q 315 96 246 171 q 508 21 383 21 q 646 50 582 21 q 782 149 710 79 l 779 753 q 773 815 781 794 q 742 843 765 835 q 671 851 719 851 q 667 860 667 851 q 671 868 667 868 l 733 867 q 824 864 789 864 q 915 867 857 864 l 981 868 q 983 860 983 868 q 981 851 983 851 q 909 844 932 851 q 878 817 886 836 q 869 756 869 797 l 869 113 q 878 51 869 71 q 915 24 888 31 q 999 17 942 17 m 369 1072 l 369 1074 q 373 1081 369 1078 q 378 1082 376 1085 l 511 1003 l 636 1083 l 639 1083 q 647 1079 643 1083 q 646 1072 650 1075 l 522 938 q 510 932 518 932 q 496 938 501 932 l 369 1072 z "},"Û":{"ha":1049,"x_min":43,"x_max":1003,"o":"m 999 17 q 1003 8 1003 17 q 999 0 1004 0 l 879 1 l 804 0 q 785 4 789 0 q 782 26 782 8 l 782 121 q 632 16 704 49 q 475 -17 560 -17 q 311 17 383 -17 q 199 113 239 50 q 158 258 158 175 l 158 756 q 149 817 157 797 q 119 844 142 836 q 47 851 96 851 q 43 860 43 851 q 47 868 43 868 l 110 867 q 199 864 163 864 q 293 867 235 864 l 356 868 q 360 860 360 868 q 357 851 360 851 q 285 843 308 851 q 255 815 263 835 q 246 753 247 794 l 246 307 q 315 96 246 171 q 508 21 383 21 q 646 50 582 21 q 782 149 710 79 l 779 753 q 773 815 781 794 q 742 843 765 835 q 671 851 719 851 q 667 860 667 851 q 671 868 667 868 l 733 867 q 824 864 789 864 q 915 867 857 864 l 981 868 q 983 860 983 868 q 981 851 983 851 q 909 844 932 851 q 878 817 886 836 q 869 756 869 797 l 869 113 q 878 51 869 71 q 915 24 888 31 q 999 17 942 17 m 385 917 q 377 920 381 917 q 376 926 374 924 l 500 1061 q 513 1068 504 1068 q 526 1061 519 1068 l 653 926 l 654 924 q 651 917 654 919 q 644 917 647 915 l 511 996 l 386 917 l 385 917 z "},"Ü":{"ha":1049,"x_min":43,"x_max":1003,"o":"m 999 17 q 1003 8 1003 17 q 999 0 1004 0 l 879 1 l 804 0 q 785 4 789 0 q 782 26 782 8 l 782 121 q 632 16 704 49 q 475 -17 560 -17 q 311 17 383 -17 q 199 113 239 50 q 158 258 158 175 l 158 756 q 149 817 157 797 q 119 844 142 836 q 47 851 96 851 q 43 860 43 851 q 47 868 43 868 l 110 867 q 199 864 163 864 q 293 867 235 864 l 356 868 q 360 860 360 868 q 357 851 360 851 q 285 843 308 851 q 255 815 263 835 q 246 753 247 794 l 246 307 q 315 96 246 171 q 508 21 383 21 q 646 50 582 21 q 782 149 710 79 l 779 753 q 773 815 781 794 q 742 843 765 835 q 671 851 719 851 q 667 860 667 851 q 671 868 667 868 l 733 867 q 824 864 789 864 q 915 867 857 864 l 981 868 q 983 860 983 868 q 981 851 983 851 q 909 844 932 851 q 878 817 886 836 q 869 756 869 797 l 869 113 q 878 51 869 71 q 915 24 888 31 q 999 17 942 17 m 407 994 q 363 1010 379 994 q 347 1053 347 1025 q 363 1094 347 1079 q 407 1110 379 1110 q 449 1094 433 1110 q 464 1053 464 1079 q 449 1010 464 1025 q 407 994 433 994 m 621 994 q 577 1010 593 994 q 561 1053 561 1025 q 577 1094 561 1079 q 621 1108 593 1108 q 663 1094 647 1108 q 678 1053 678 1079 q 663 1010 678 1025 q 621 994 647 994 z "},"Ǘ":{"ha":1049,"x_min":43,"x_max":1003,"o":"m 999 17 q 1003 8 1003 17 q 999 0 1004 0 l 879 1 l 804 0 q 785 4 789 0 q 782 26 782 8 l 782 121 q 632 16 704 49 q 475 -17 560 -17 q 311 17 383 -17 q 199 113 239 50 q 158 258 158 175 l 158 756 q 149 817 157 797 q 119 844 142 836 q 47 851 96 851 q 43 860 43 851 q 47 868 43 868 l 110 867 q 199 864 163 864 q 293 867 235 864 l 356 868 q 360 860 360 868 q 357 851 360 851 q 285 843 308 851 q 255 815 263 835 q 246 753 247 794 l 246 307 q 315 96 246 171 q 508 21 383 21 q 646 50 582 21 q 782 149 710 79 l 779 753 q 773 815 781 794 q 742 843 765 835 q 671 851 719 851 q 667 860 667 851 q 671 868 667 868 l 733 867 q 824 864 789 864 q 915 867 857 864 l 981 868 q 983 860 983 868 q 981 851 983 851 q 909 844 932 851 q 878 817 886 836 q 869 756 869 797 l 869 113 q 878 51 869 71 q 915 24 888 31 q 999 17 942 17 m 406 963 q 362 978 378 963 q 346 1021 346 993 q 362 1063 346 1047 q 406 1078 378 1078 q 447 1063 432 1078 q 463 1021 463 1047 q 447 978 463 993 q 406 963 432 963 m 619 963 q 576 978 592 963 q 560 1021 560 993 q 576 1062 560 1047 q 619 1076 592 1076 q 661 1062 646 1076 q 676 1021 676 1047 q 661 978 676 993 q 619 963 646 963 m 374 1107 q 365 1113 368 1107 q 367 1122 363 1119 q 504 1211 417 1150 q 541 1235 525 1224 q 568 1254 557 1246 q 603 1249 574 1258 q 653 1229 632 1240 q 665 1215 675 1218 q 376 1108 517 1176 l 374 1107 z "},"Ǚ":{"ha":1049,"x_min":43,"x_max":1003,"o":"m 999 17 q 1003 8 1003 17 q 999 0 1004 0 l 879 1 l 804 0 q 785 4 789 0 q 782 26 782 8 l 782 121 q 632 16 704 49 q 475 -17 560 -17 q 311 17 383 -17 q 199 113 239 50 q 158 258 158 175 l 158 756 q 149 817 157 797 q 119 844 142 836 q 47 851 96 851 q 43 860 43 851 q 47 868 43 868 l 110 867 q 199 864 163 864 q 293 867 235 864 l 356 868 q 360 860 360 868 q 357 851 360 851 q 285 843 308 851 q 255 815 263 835 q 246 753 247 794 l 246 307 q 315 96 246 171 q 508 21 383 21 q 646 50 582 21 q 782 149 710 79 l 779 753 q 773 815 781 794 q 742 843 765 835 q 671 851 719 851 q 667 860 667 851 q 671 868 667 868 l 733 867 q 824 864 789 864 q 915 867 857 864 l 981 868 q 983 860 983 868 q 981 851 983 851 q 909 844 932 851 q 878 817 886 836 q 869 756 869 797 l 869 113 q 878 51 869 71 q 915 24 888 31 q 999 17 942 17 m 406 963 q 362 978 378 963 q 346 1021 346 993 q 362 1063 346 1047 q 406 1078 378 1078 q 447 1063 432 1078 q 463 1021 463 1047 q 447 978 463 993 q 406 963 432 963 m 619 963 q 576 978 592 963 q 560 1021 560 993 q 576 1062 560 1047 q 619 1076 592 1076 q 661 1062 646 1076 q 676 1021 676 1047 q 661 978 676 993 q 619 963 646 963 m 383 1099 q 376 1102 381 1097 q 374 1108 371 1107 l 499 1243 q 511 1250 503 1250 q 524 1243 519 1250 l 650 1108 q 651 1106 651 1108 q 648 1100 651 1103 q 642 1099 644 1097 l 510 1178 l 383 1099 z "},"Ǜ":{"ha":1049,"x_min":43,"x_max":1003,"o":"m 999 17 q 1003 8 1003 17 q 999 0 1004 0 l 879 1 l 804 0 q 785 4 789 0 q 782 26 782 8 l 782 121 q 632 16 704 49 q 475 -17 560 -17 q 311 17 383 -17 q 199 113 239 50 q 158 258 158 175 l 158 756 q 149 817 157 797 q 119 844 142 836 q 47 851 96 851 q 43 860 43 851 q 47 868 43 868 l 110 867 q 199 864 163 864 q 293 867 235 864 l 356 868 q 360 860 360 868 q 357 851 360 851 q 285 843 308 851 q 255 815 263 835 q 246 753 247 794 l 246 307 q 315 96 246 171 q 508 21 383 21 q 646 50 582 21 q 782 149 710 79 l 779 753 q 773 815 781 794 q 742 843 765 835 q 671 851 719 851 q 667 860 667 851 q 671 868 667 868 l 733 867 q 824 864 789 864 q 915 867 857 864 l 981 868 q 983 860 983 868 q 981 851 983 851 q 909 844 932 851 q 878 817 886 836 q 869 756 869 797 l 869 113 q 878 51 869 71 q 915 24 888 31 q 999 17 942 17 m 408 963 q 365 978 381 963 q 349 1021 349 993 q 365 1063 349 1047 q 408 1078 381 1078 q 450 1063 435 1078 q 465 1021 465 1047 q 450 978 465 993 q 408 963 435 963 m 622 963 q 578 978 594 963 q 563 1021 563 993 q 578 1062 563 1047 q 622 1076 594 1076 q 664 1062 649 1076 q 679 1021 679 1047 q 664 978 679 993 q 622 963 649 963 m 656 1100 q 522 1158 586 1133 q 378 1204 458 1182 q 387 1218 365 1207 q 438 1238 408 1229 q 475 1243 468 1247 q 663 1115 579 1165 q 667 1110 667 1114 q 663 1102 667 1106 q 656 1100 660 1099 z "},"Ǖ":{"ha":1049,"x_min":43,"x_max":1003,"o":"m 999 17 q 1003 8 1003 17 q 999 0 1004 0 l 879 1 l 804 0 q 785 4 789 0 q 782 26 782 8 l 782 121 q 632 16 704 49 q 475 -17 560 -17 q 311 17 383 -17 q 199 113 239 50 q 158 258 158 175 l 158 756 q 149 817 157 797 q 119 844 142 836 q 47 851 96 851 q 43 860 43 851 q 47 868 43 868 l 110 867 q 199 864 163 864 q 293 867 235 864 l 356 868 q 360 860 360 868 q 357 851 360 851 q 285 843 308 851 q 255 815 263 835 q 246 753 247 794 l 246 307 q 315 96 246 171 q 508 21 383 21 q 646 50 582 21 q 782 149 710 79 l 779 753 q 773 815 781 794 q 742 843 765 835 q 671 851 719 851 q 667 860 667 851 q 671 868 667 868 l 733 867 q 824 864 789 864 q 915 867 857 864 l 981 868 q 983 860 983 868 q 981 851 983 851 q 909 844 932 851 q 878 817 886 836 q 869 756 869 797 l 869 113 q 878 51 869 71 q 915 24 888 31 q 999 17 942 17 m 400 963 q 356 978 372 963 q 340 1021 340 993 q 356 1063 340 1047 q 400 1078 372 1078 q 442 1063 426 1078 q 457 1021 457 1047 q 442 978 457 993 q 400 963 426 963 m 614 963 q 570 978 586 963 q 554 1021 554 993 q 570 1062 554 1047 q 614 1076 586 1076 q 656 1062 640 1076 q 671 1021 671 1047 q 656 978 671 993 q 614 963 640 963 m 338 1132 q 331 1139 333 1132 q 329 1153 329 1146 q 338 1174 329 1174 l 668 1174 q 676 1153 676 1174 q 674 1139 676 1146 q 668 1132 672 1132 l 338 1132 z "},"Ụ":{"ha":1049,"x_min":43,"x_max":1003,"o":"m 999 17 q 1003 8 1003 17 q 999 0 1004 0 l 879 1 l 804 0 q 785 4 789 0 q 782 26 782 8 l 782 121 q 632 16 704 49 q 475 -17 560 -17 q 311 17 383 -17 q 199 113 239 50 q 158 258 158 175 l 158 756 q 149 817 157 797 q 119 844 142 836 q 47 851 96 851 q 43 860 43 851 q 47 868 43 868 l 110 867 q 199 864 163 864 q 293 867 235 864 l 356 868 q 360 860 360 868 q 357 851 360 851 q 285 843 308 851 q 255 815 263 835 q 246 753 247 794 l 246 307 q 315 96 246 171 q 508 21 383 21 q 646 50 582 21 q 782 149 710 79 l 779 753 q 773 815 781 794 q 742 843 765 835 q 671 851 719 851 q 667 860 667 851 q 671 868 667 868 l 733 867 q 824 864 789 864 q 915 867 857 864 l 981 868 q 983 860 983 868 q 981 851 983 851 q 909 844 932 851 q 878 817 886 836 q 869 756 869 797 l 869 113 q 878 51 869 71 q 915 24 888 31 q 999 17 942 17 m 531 -264 q 485 -248 501 -264 q 469 -203 469 -232 q 485 -161 469 -176 q 531 -146 501 -146 q 574 -161 558 -146 q 589 -203 589 -176 q 574 -248 589 -232 q 531 -264 558 -264 z "},"Ù":{"ha":1049,"x_min":43,"x_max":1003,"o":"m 999 17 q 1003 8 1003 17 q 999 0 1004 0 l 879 1 l 804 0 q 785 4 789 0 q 782 26 782 8 l 782 121 q 632 16 704 49 q 475 -17 560 -17 q 311 17 383 -17 q 199 113 239 50 q 158 258 158 175 l 158 756 q 149 817 157 797 q 119 844 142 836 q 47 851 96 851 q 43 860 43 851 q 47 868 43 868 l 110 867 q 199 864 163 864 q 293 867 235 864 l 356 868 q 360 860 360 868 q 357 851 360 851 q 285 843 308 851 q 255 815 263 835 q 246 753 247 794 l 246 307 q 315 96 246 171 q 508 21 383 21 q 646 50 582 21 q 782 149 710 79 l 779 753 q 773 815 781 794 q 742 843 765 835 q 671 851 719 851 q 667 860 667 851 q 671 868 667 868 l 733 867 q 824 864 789 864 q 915 867 857 864 l 981 868 q 983 860 983 868 q 981 851 983 851 q 909 844 932 851 q 878 817 886 836 q 869 756 869 797 l 869 113 q 878 51 869 71 q 915 24 888 31 q 999 17 942 17 m 646 946 q 513 1003 576 979 q 368 1050 449 1028 q 377 1064 356 1053 q 428 1084 399 1075 q 465 1089 458 1093 q 653 961 569 1011 q 657 956 657 960 q 653 948 657 951 q 646 946 650 944 z "},"Ủ":{"ha":1049,"x_min":43,"x_max":1003,"o":"m 999 17 q 1003 8 1003 17 q 999 0 1004 0 l 879 1 l 804 0 q 785 4 789 0 q 782 26 782 8 l 782 121 q 632 16 704 49 q 475 -17 560 -17 q 311 17 383 -17 q 199 113 239 50 q 158 258 158 175 l 158 756 q 149 817 157 797 q 119 844 142 836 q 47 851 96 851 q 43 860 43 851 q 47 868 43 868 l 110 867 q 199 864 163 864 q 293 867 235 864 l 356 868 q 360 860 360 868 q 357 851 360 851 q 285 843 308 851 q 255 815 263 835 q 246 753 247 794 l 246 307 q 315 96 246 171 q 508 21 383 21 q 646 50 582 21 q 782 149 710 79 l 779 753 q 773 815 781 794 q 742 843 765 835 q 671 851 719 851 q 667 860 667 851 q 671 868 667 868 l 733 867 q 824 864 789 864 q 915 867 857 864 l 981 868 q 983 860 983 868 q 981 851 983 851 q 909 844 932 851 q 878 817 886 836 q 869 756 869 797 l 869 113 q 878 51 869 71 q 915 24 888 31 q 999 17 942 17 m 519 903 q 513 899 522 900 q 503 903 504 899 q 497 935 497 918 q 503 969 497 954 q 524 1011 510 985 q 542 1049 536 1035 q 549 1078 549 1063 q 531 1121 549 1106 q 489 1136 514 1136 q 450 1128 467 1136 l 447 1126 q 440 1131 443 1126 q 442 1139 438 1136 q 531 1168 483 1168 q 597 1147 572 1168 q 621 1094 621 1125 q 608 1051 621 1069 q 567 1000 596 1032 q 531 958 543 976 q 518 918 518 939 q 519 903 518 908 z "},"Ư":{"ha":1049,"x_min":43,"x_max":1076,"o":"m 918 850 q 878 824 886 842 q 869 756 869 806 l 869 113 q 878 51 869 71 q 915 24 888 31 q 999 17 942 17 q 1003 8 1003 17 q 999 0 1004 0 l 879 1 l 804 0 q 787 4 790 0 q 782 26 783 8 l 782 121 q 632 16 704 49 q 476 -17 560 -17 q 313 17 385 -17 q 199 113 240 50 q 158 258 158 175 l 158 756 q 149 817 157 797 q 119 844 142 836 q 47 851 96 851 q 43 860 43 851 q 47 868 43 868 l 110 867 q 199 864 163 864 q 293 867 235 864 l 356 868 q 360 860 360 868 q 357 851 360 851 q 285 843 308 851 q 255 815 263 835 q 246 753 247 794 l 246 307 q 315 94 246 168 q 510 21 385 21 q 644 50 581 21 q 782 149 708 79 l 779 753 q 772 815 781 794 q 739 843 764 835 q 663 851 714 851 q 658 860 658 851 q 664 868 658 868 l 729 867 q 822 864 785 864 q 948 882 903 864 q 993 931 993 900 q 981 965 993 946 q 967 1006 967 988 q 982 1042 967 1029 q 1018 1054 997 1054 q 1060 1033 1044 1054 q 1076 981 1076 1011 q 1037 901 1076 928 q 962 864 997 875 q 918 850 926 853 z "},"Ứ":{"ha":1049,"x_min":43,"x_max":1076,"o":"m 918 850 q 878 824 886 842 q 869 756 869 806 l 869 113 q 878 51 869 71 q 915 24 888 31 q 999 17 942 17 q 1003 8 1003 17 q 999 0 1004 0 l 879 1 l 804 0 q 787 4 790 0 q 782 26 783 8 l 782 121 q 632 16 704 49 q 476 -17 560 -17 q 313 17 385 -17 q 199 113 240 50 q 158 258 158 175 l 158 756 q 149 817 157 797 q 119 844 142 836 q 47 851 96 851 q 43 860 43 851 q 47 868 43 868 l 110 867 q 199 864 163 864 q 293 867 235 864 l 356 868 q 360 860 360 868 q 357 851 360 851 q 285 843 308 851 q 255 815 263 835 q 246 753 247 794 l 246 307 q 315 94 246 168 q 510 21 385 21 q 644 50 581 21 q 782 149 708 79 l 779 753 q 772 815 781 794 q 739 843 764 835 q 663 851 714 851 q 658 860 658 851 q 664 868 658 868 l 729 867 q 822 864 785 864 q 948 882 903 864 q 993 931 993 900 q 981 965 993 946 q 967 1006 967 988 q 982 1042 967 1029 q 1018 1054 997 1054 q 1060 1033 1044 1054 q 1076 981 1076 1011 q 1037 901 1076 928 q 962 864 997 875 q 918 850 926 853 m 382 942 q 374 948 376 942 q 374 957 371 954 q 515 1047 433 989 l 576 1089 q 610 1083 582 1092 q 661 1063 639 1074 q 674 1050 683 1051 q 383 942 513 1007 l 382 942 z "},"Ự":{"ha":1049,"x_min":43,"x_max":1076,"o":"m 918 850 q 878 824 886 842 q 869 756 869 806 l 869 113 q 878 51 869 71 q 915 24 888 31 q 999 17 942 17 q 1003 8 1003 17 q 999 0 1004 0 l 879 1 l 804 0 q 787 4 790 0 q 782 26 783 8 l 782 121 q 632 16 704 49 q 476 -17 560 -17 q 313 17 385 -17 q 199 113 240 50 q 158 258 158 175 l 158 756 q 149 817 157 797 q 119 844 142 836 q 47 851 96 851 q 43 860 43 851 q 47 868 43 868 l 110 867 q 199 864 163 864 q 293 867 235 864 l 356 868 q 360 860 360 868 q 357 851 360 851 q 285 843 308 851 q 255 815 263 835 q 246 753 247 794 l 246 307 q 315 94 246 168 q 510 21 385 21 q 644 50 581 21 q 782 149 708 79 l 779 753 q 772 815 781 794 q 739 843 764 835 q 663 851 714 851 q 658 860 658 851 q 664 868 658 868 l 729 867 q 822 864 785 864 q 948 882 903 864 q 993 931 993 900 q 981 965 993 946 q 967 1006 967 988 q 982 1042 967 1029 q 1018 1054 997 1054 q 1060 1033 1044 1054 q 1076 981 1076 1011 q 1037 901 1076 928 q 962 864 997 875 q 918 850 926 853 m 546 -264 q 501 -248 517 -264 q 485 -203 485 -232 q 501 -161 485 -176 q 546 -146 517 -146 q 589 -161 574 -146 q 604 -203 604 -176 q 589 -248 604 -232 q 546 -264 574 -264 z "},"Ừ":{"ha":1049,"x_min":43,"x_max":1076,"o":"m 918 850 q 878 824 886 842 q 869 756 869 806 l 869 113 q 878 51 869 71 q 915 24 888 31 q 999 17 942 17 q 1003 8 1003 17 q 999 0 1004 0 l 879 1 l 804 0 q 787 4 790 0 q 782 26 783 8 l 782 121 q 632 16 704 49 q 476 -17 560 -17 q 313 17 385 -17 q 199 113 240 50 q 158 258 158 175 l 158 756 q 149 817 157 797 q 119 844 142 836 q 47 851 96 851 q 43 860 43 851 q 47 868 43 868 l 110 867 q 199 864 163 864 q 293 867 235 864 l 356 868 q 360 860 360 868 q 357 851 360 851 q 285 843 308 851 q 255 815 263 835 q 246 753 247 794 l 246 307 q 315 94 246 168 q 510 21 385 21 q 644 50 581 21 q 782 149 708 79 l 779 753 q 772 815 781 794 q 739 843 764 835 q 663 851 714 851 q 658 860 658 851 q 664 868 658 868 l 729 867 q 822 864 785 864 q 948 882 903 864 q 993 931 993 900 q 981 965 993 946 q 967 1006 967 988 q 982 1042 967 1029 q 1018 1054 997 1054 q 1060 1033 1044 1054 q 1076 981 1076 1011 q 1037 901 1076 928 q 962 864 997 875 q 918 850 926 853 m 675 943 q 513 1003 589 978 q 347 1050 438 1029 q 354 1064 336 1053 q 398 1084 372 1075 q 431 1089 424 1093 l 476 1064 q 679 957 590 999 q 683 947 685 954 q 675 943 681 940 z "},"Ử":{"ha":1049,"x_min":43,"x_max":1076,"o":"m 918 850 q 878 824 886 842 q 869 756 869 806 l 869 113 q 878 51 869 71 q 915 24 888 31 q 999 17 942 17 q 1003 8 1003 17 q 999 0 1004 0 l 879 1 l 804 0 q 787 4 790 0 q 782 26 783 8 l 782 121 q 632 16 704 49 q 476 -17 560 -17 q 313 17 385 -17 q 199 113 240 50 q 158 258 158 175 l 158 756 q 149 817 157 797 q 119 844 142 836 q 47 851 96 851 q 43 860 43 851 q 47 868 43 868 l 110 867 q 199 864 163 864 q 293 867 235 864 l 356 868 q 360 860 360 868 q 357 851 360 851 q 285 843 308 851 q 255 815 263 835 q 246 753 247 794 l 246 307 q 315 94 246 168 q 510 21 385 21 q 644 50 581 21 q 782 149 708 79 l 779 753 q 772 815 781 794 q 739 843 764 835 q 663 851 714 851 q 658 860 658 851 q 664 868 658 868 l 729 867 q 822 864 785 864 q 948 882 903 864 q 993 931 993 900 q 981 965 993 946 q 967 1006 967 988 q 982 1042 967 1029 q 1018 1054 997 1054 q 1060 1033 1044 1054 q 1076 981 1076 1011 q 1037 901 1076 928 q 962 864 997 875 q 918 850 926 853 m 532 903 q 526 899 535 900 q 515 903 517 899 q 510 935 510 918 q 516 969 510 954 q 536 1011 522 985 q 555 1049 549 1035 q 561 1078 561 1063 q 544 1121 561 1106 q 501 1136 526 1136 q 463 1128 479 1136 l 460 1126 q 453 1131 456 1126 q 454 1139 450 1136 q 543 1168 496 1168 q 609 1147 585 1168 q 633 1094 633 1125 q 621 1051 633 1069 q 579 1000 608 1032 q 543 958 556 976 q 531 918 531 939 q 532 903 531 908 z "},"Ữ":{"ha":1049,"x_min":43,"x_max":1076,"o":"m 918 850 q 878 824 886 842 q 869 756 869 806 l 869 113 q 878 51 869 71 q 915 24 888 31 q 999 17 942 17 q 1003 8 1003 17 q 999 0 1004 0 l 879 1 l 804 0 q 787 4 790 0 q 782 26 783 8 l 782 121 q 632 16 704 49 q 476 -17 560 -17 q 313 17 385 -17 q 199 113 240 50 q 158 258 158 175 l 158 756 q 149 817 157 797 q 119 844 142 836 q 47 851 96 851 q 43 860 43 851 q 47 868 43 868 l 110 867 q 199 864 163 864 q 293 867 235 864 l 356 868 q 360 860 360 868 q 357 851 360 851 q 285 843 308 851 q 255 815 263 835 q 246 753 247 794 l 246 307 q 315 94 246 168 q 510 21 385 21 q 644 50 581 21 q 782 149 708 79 l 779 753 q 772 815 781 794 q 739 843 764 835 q 663 851 714 851 q 658 860 658 851 q 664 868 658 868 l 729 867 q 822 864 785 864 q 948 882 903 864 q 993 931 993 900 q 981 965 993 946 q 967 1006 967 988 q 982 1042 967 1029 q 1018 1054 997 1054 q 1060 1033 1044 1054 q 1076 981 1076 1011 q 1037 901 1076 928 q 962 864 997 875 q 918 850 926 853 m 351 997 q 344 1001 349 997 q 342 1007 340 1004 q 388 1067 361 1040 q 449 1094 415 1094 q 522 1079 471 1094 q 628 1060 586 1060 q 667 1069 653 1060 q 693 1097 681 1079 l 694 1097 q 703 1094 699 1097 q 704 1088 707 1090 q 656 1019 678 1036 q 607 1001 635 1001 q 554 1008 582 1001 q 519 1017 526 1015 q 419 1035 460 1035 q 385 1028 396 1035 q 365 1011 374 1021 q 353 997 357 1001 l 351 997 z "},"Ű":{"ha":1049,"x_min":43,"x_max":1003,"o":"m 999 17 q 1003 8 1003 17 q 999 0 1004 0 l 879 1 l 804 0 q 785 4 789 0 q 782 26 782 8 l 782 121 q 632 16 704 49 q 475 -17 560 -17 q 311 17 383 -17 q 199 113 239 50 q 158 258 158 175 l 158 756 q 149 817 157 797 q 119 844 142 836 q 47 851 96 851 q 43 860 43 851 q 47 868 43 868 l 110 867 q 199 864 163 864 q 293 867 235 864 l 356 868 q 360 860 360 868 q 357 851 360 851 q 285 843 308 851 q 255 815 263 835 q 246 753 247 794 l 246 307 q 315 96 246 171 q 508 21 383 21 q 646 50 582 21 q 782 149 710 79 l 779 753 q 773 815 781 794 q 742 843 765 835 q 671 851 719 851 q 667 860 667 851 q 671 868 667 868 l 733 867 q 824 864 789 864 q 915 867 857 864 l 981 868 q 983 860 983 868 q 981 851 983 851 q 909 844 932 851 q 878 817 886 836 q 869 756 869 797 l 869 113 q 878 51 869 71 q 915 24 888 31 q 999 17 942 17 m 396 932 q 388 938 390 932 q 392 947 386 944 l 546 1103 q 578 1101 551 1107 q 623 1085 604 1094 q 632 1072 642 1075 q 397 932 504 1014 l 396 932 m 564 932 q 558 938 560 932 q 560 947 556 944 q 714 1103 628 1011 q 746 1101 719 1107 q 792 1085 772 1094 q 801 1072 811 1075 q 567 932 676 1017 l 564 932 z "},"Ū":{"ha":1049,"x_min":43,"x_max":1003,"o":"m 999 17 q 1003 8 1003 17 q 999 0 1004 0 l 879 1 l 804 0 q 785 4 789 0 q 782 26 782 8 l 782 121 q 632 16 704 49 q 475 -17 560 -17 q 311 17 383 -17 q 199 113 239 50 q 158 258 158 175 l 158 756 q 149 817 157 797 q 119 844 142 836 q 47 851 96 851 q 43 860 43 851 q 47 868 43 868 l 110 867 q 199 864 163 864 q 293 867 235 864 l 356 868 q 360 860 360 868 q 357 851 360 851 q 285 843 308 851 q 255 815 263 835 q 246 753 247 794 l 246 307 q 315 96 246 171 q 508 21 383 21 q 646 50 582 21 q 782 149 710 79 l 779 753 q 773 815 781 794 q 742 843 765 835 q 671 851 719 851 q 667 860 667 851 q 671 868 667 868 l 733 867 q 824 864 789 864 q 915 867 857 864 l 981 868 q 983 860 983 868 q 981 851 983 851 q 909 844 932 851 q 878 817 886 836 q 869 756 869 797 l 869 113 q 878 51 869 71 q 915 24 888 31 q 999 17 942 17 m 353 996 q 347 1003 349 996 q 344 1017 344 1010 q 353 1038 344 1038 l 683 1038 q 692 1017 692 1038 q 690 1003 692 1010 q 683 996 688 996 l 353 996 z "},"Ų":{"ha":1049,"x_min":43,"x_max":1004,"o":"m 999 17 q 1003 8 1003 17 q 999 0 1004 0 l 879 1 l 804 0 l 800 0 q 725 -106 751 -57 q 699 -204 699 -156 q 726 -304 699 -268 q 804 -340 753 -340 q 845 -331 829 -340 q 879 -304 861 -322 l 881 -304 q 890 -309 886 -304 q 892 -317 894 -314 q 830 -367 861 -351 q 764 -382 799 -382 q 670 -344 706 -382 q 635 -246 635 -307 q 675 -126 636 -189 q 783 8 714 -62 q 782 26 782 13 l 782 121 q 632 16 704 49 q 475 -17 560 -17 q 311 17 383 -17 q 199 113 239 50 q 158 258 158 175 l 158 756 q 149 817 157 797 q 119 844 142 836 q 47 851 96 851 q 43 860 43 851 q 47 868 43 868 l 110 867 q 199 864 163 864 q 293 867 235 864 l 356 868 q 360 860 360 868 q 357 851 360 851 q 285 843 308 851 q 255 815 263 835 q 246 753 247 794 l 246 307 q 315 96 246 171 q 508 21 383 21 q 646 50 582 21 q 782 149 710 79 l 779 753 q 773 815 781 794 q 742 843 765 835 q 671 851 719 851 q 667 860 667 851 q 671 868 667 868 l 733 867 q 824 864 789 864 q 915 867 857 864 l 981 868 q 983 860 983 868 q 981 851 983 851 q 909 844 932 851 q 878 817 886 836 q 869 756 869 797 l 869 113 q 878 51 869 71 q 915 24 888 31 q 999 17 942 17 z "},"Ů":{"ha":1049,"x_min":43,"x_max":1003,"o":"m 999 17 q 1003 8 1003 17 q 999 0 1004 0 l 879 1 l 804 0 q 785 4 789 0 q 782 26 782 8 l 782 121 q 632 16 704 49 q 475 -17 560 -17 q 311 17 383 -17 q 199 113 239 50 q 158 258 158 175 l 158 756 q 149 817 157 797 q 119 844 142 836 q 47 851 96 851 q 43 860 43 851 q 47 868 43 868 l 110 867 q 199 864 163 864 q 293 867 235 864 l 356 868 q 360 860 360 868 q 357 851 360 851 q 285 843 308 851 q 255 815 263 835 q 246 753 247 794 l 246 307 q 315 96 246 171 q 508 21 383 21 q 646 50 582 21 q 782 149 710 79 l 779 753 q 773 815 781 794 q 742 843 765 835 q 671 851 719 851 q 667 860 667 851 q 671 868 667 868 l 733 867 q 824 864 789 864 q 915 867 857 864 l 981 868 q 983 860 983 868 q 981 851 983 851 q 909 844 932 851 q 878 817 886 836 q 869 756 869 797 l 869 113 q 878 51 869 71 q 915 24 888 31 q 999 17 942 17 m 506 922 q 417 956 450 922 q 383 1033 383 989 q 426 1112 383 1083 q 519 1140 468 1140 q 605 1108 569 1140 q 640 1029 640 1076 q 599 951 640 981 q 506 922 558 922 m 528 938 q 566 953 554 938 q 578 1006 578 969 q 553 1090 578 1054 q 492 1126 528 1126 q 457 1110 468 1126 q 446 1061 446 1094 q 468 976 446 1014 q 528 938 490 938 z "},"Ũ":{"ha":1049,"x_min":43,"x_max":1003,"o":"m 999 17 q 1003 8 1003 17 q 999 0 1004 0 l 879 1 l 804 0 q 785 4 789 0 q 782 26 782 8 l 782 121 q 632 16 704 49 q 475 -17 560 -17 q 311 17 383 -17 q 199 113 239 50 q 158 258 158 175 l 158 756 q 149 817 157 797 q 119 844 142 836 q 47 851 96 851 q 43 860 43 851 q 47 868 43 868 l 110 867 q 199 864 163 864 q 293 867 235 864 l 356 868 q 360 860 360 868 q 357 851 360 851 q 285 843 308 851 q 255 815 263 835 q 246 753 247 794 l 246 307 q 315 96 246 171 q 508 21 383 21 q 646 50 582 21 q 782 149 710 79 l 779 753 q 773 815 781 794 q 742 843 765 835 q 671 851 719 851 q 667 860 667 851 q 671 868 667 868 l 733 867 q 824 864 789 864 q 915 867 857 864 l 981 868 q 983 860 983 868 q 981 851 983 851 q 909 844 932 851 q 878 817 886 836 q 869 756 869 797 l 869 113 q 878 51 869 71 q 915 24 888 31 q 999 17 942 17 m 349 965 q 340 969 344 965 q 338 975 336 972 q 444 1061 386 1061 q 517 1047 464 1061 q 624 1028 583 1028 q 663 1037 649 1028 q 689 1065 676 1046 l 690 1065 q 699 1062 694 1065 q 701 1056 703 1058 q 651 986 672 1004 q 603 968 631 968 q 515 985 574 968 q 478 994 510 986 q 415 1003 447 1003 q 378 994 389 1003 q 350 965 367 986 l 349 965 z "},"V":{"ha":889,"x_min":-1,"x_max":892,"o":"m 886 868 q 892 860 892 868 q 886 851 892 851 q 808 829 840 851 q 754 744 776 807 l 474 1 q 458 -4 472 -4 q 440 1 444 -4 l 115 753 q 68 829 93 807 q 3 851 43 851 q -1 860 0 851 q 3 868 -1 868 l 61 867 q 119 864 103 864 q 215 867 160 864 l 275 868 q 281 860 281 868 q 275 851 281 851 q 215 842 235 851 q 194 807 194 832 q 204 767 194 790 l 489 115 l 721 751 q 731 794 731 781 q 706 838 731 824 q 626 851 681 851 q 624 860 624 851 q 626 868 624 868 l 682 867 q 767 864 729 864 q 829 867 793 864 l 886 868 z "},"W":{"ha":1242,"x_min":-3,"x_max":1244,"o":"m 1238 868 q 1244 860 1244 868 q 1238 851 1244 851 q 1160 829 1192 851 q 1106 744 1128 807 l 824 1 q 808 -4 822 -4 q 793 1 794 -4 l 622 396 l 474 1 q 457 -4 472 -4 q 440 1 444 -4 l 115 753 q 68 829 93 807 q 3 851 43 851 q -2 860 -1 851 q 3 868 -3 868 l 61 867 q 119 864 103 864 q 211 867 158 864 l 267 868 q 272 860 272 868 q 267 851 272 851 q 212 842 231 851 q 193 807 193 832 q 203 767 193 790 l 489 114 l 606 433 l 467 753 q 419 830 443 808 q 357 851 396 851 q 351 860 351 851 q 357 868 351 868 l 411 867 q 471 864 453 864 q 538 867 499 864 l 575 868 q 582 860 582 868 q 575 851 582 851 q 542 848 551 851 q 533 832 533 844 q 556 767 533 815 l 656 536 l 735 751 q 750 811 750 790 q 689 851 750 851 q 684 860 685 851 q 689 868 683 868 l 725 867 q 779 864 756 864 q 839 867 803 864 l 893 868 q 899 860 899 868 q 894 851 900 851 q 820 829 850 851 q 767 744 790 807 l 672 497 l 839 114 l 1074 751 q 1083 796 1083 775 q 1059 838 1083 824 q 983 851 1035 851 q 978 860 978 851 q 982 868 978 868 l 1038 867 q 1118 864 1082 864 q 1179 867 1143 864 l 1238 868 z "},"Ẃ":{"ha":1242,"x_min":-1,"x_max":1244,"o":"m 1238 868 q 1244 860 1244 868 q 1238 851 1244 851 q 1160 829 1192 851 q 1106 744 1128 807 l 824 1 q 808 -4 822 -4 q 793 1 794 -4 l 622 396 l 474 1 q 457 -4 472 -4 q 440 1 444 -4 l 115 753 q 68 829 93 807 q 3 851 43 851 q -2 860 -1 851 q 3 868 -3 868 l 61 867 q 119 864 103 864 q 211 867 158 864 l 267 868 q 272 860 272 868 q 267 851 272 851 q 212 842 231 851 q 193 807 193 832 q 203 767 193 790 l 489 114 l 606 433 l 467 753 q 419 830 443 808 q 357 851 396 851 q 351 860 351 851 q 357 868 351 868 l 411 867 q 471 864 453 864 q 538 867 499 864 l 575 868 q 582 860 582 868 q 575 851 582 851 q 542 848 551 851 q 533 832 533 844 q 556 767 533 815 l 656 536 l 735 751 q 750 811 750 790 q 689 851 750 851 q 684 860 685 851 q 689 868 683 868 l 725 867 q 779 864 756 864 q 839 867 803 864 l 893 868 q 899 860 899 868 q 894 851 900 851 q 820 829 850 851 q 767 744 790 807 l 672 497 l 839 114 l 1074 751 q 1083 796 1083 775 q 1059 838 1083 824 q 983 851 1035 851 q 978 860 978 851 q 982 868 978 868 l 1038 867 q 1118 864 1082 864 q 1179 867 1143 864 l 1238 868 m 542 942 q 533 948 536 942 q 535 957 531 954 q 672 1046 585 985 q 709 1069 693 1058 q 736 1089 725 1081 q 771 1084 742 1093 q 822 1064 800 1075 q 833 1050 843 1053 q 544 943 685 1011 l 542 942 z "},"Ŵ":{"ha":1242,"x_min":-1,"x_max":1244,"o":"m 1238 868 q 1244 860 1244 868 q 1238 851 1244 851 q 1160 829 1192 851 q 1106 744 1128 807 l 824 1 q 808 -4 822 -4 q 793 1 794 -4 l 622 396 l 474 1 q 457 -4 472 -4 q 440 1 444 -4 l 115 753 q 68 829 93 807 q 3 851 43 851 q -2 860 -1 851 q 3 868 -3 868 l 61 867 q 119 864 103 864 q 211 867 158 864 l 267 868 q 272 860 272 868 q 267 851 272 851 q 212 842 231 851 q 193 807 193 832 q 203 767 193 790 l 489 114 l 606 433 l 467 753 q 419 830 443 808 q 357 851 396 851 q 351 860 351 851 q 357 868 351 868 l 411 867 q 471 864 453 864 q 538 867 499 864 l 575 868 q 582 860 582 868 q 575 851 582 851 q 542 848 551 851 q 533 832 533 844 q 556 767 533 815 l 656 536 l 735 751 q 750 811 750 790 q 689 851 750 851 q 684 860 685 851 q 689 868 683 868 l 725 867 q 779 864 756 864 q 839 867 803 864 l 893 868 q 899 860 899 868 q 894 851 900 851 q 820 829 850 851 q 767 744 790 807 l 672 497 l 839 114 l 1074 751 q 1083 796 1083 775 q 1059 838 1083 824 q 983 851 1035 851 q 978 860 978 851 q 982 868 978 868 l 1038 867 q 1118 864 1082 864 q 1179 867 1143 864 l 1238 868 m 499 917 q 491 920 494 917 q 490 926 488 924 l 614 1061 q 626 1068 618 1068 q 640 1061 633 1068 l 767 926 l 768 924 q 765 917 768 919 q 758 917 761 915 l 625 996 l 500 917 l 499 917 z "},"Ẅ":{"ha":1242,"x_min":-1,"x_max":1244,"o":"m 1238 868 q 1244 860 1244 868 q 1238 851 1244 851 q 1160 829 1192 851 q 1106 744 1128 807 l 824 1 q 808 -4 822 -4 q 793 1 794 -4 l 622 396 l 474 1 q 457 -4 472 -4 q 440 1 444 -4 l 115 753 q 68 829 93 807 q 3 851 43 851 q -2 860 -1 851 q 3 868 -3 868 l 61 867 q 119 864 103 864 q 211 867 158 864 l 267 868 q 272 860 272 868 q 267 851 272 851 q 212 842 231 851 q 193 807 193 832 q 203 767 193 790 l 489 114 l 606 433 l 467 753 q 419 830 443 808 q 357 851 396 851 q 351 860 351 851 q 357 868 351 868 l 411 867 q 471 864 453 864 q 538 867 499 864 l 575 868 q 582 860 582 868 q 575 851 582 851 q 542 848 551 851 q 533 832 533 844 q 556 767 533 815 l 656 536 l 735 751 q 750 811 750 790 q 689 851 750 851 q 684 860 685 851 q 689 868 683 868 l 725 867 q 779 864 756 864 q 839 867 803 864 l 893 868 q 899 860 899 868 q 894 851 900 851 q 820 829 850 851 q 767 744 790 807 l 672 497 l 839 114 l 1074 751 q 1083 796 1083 775 q 1059 838 1083 824 q 983 851 1035 851 q 978 860 978 851 q 982 868 978 868 l 1038 867 q 1118 864 1082 864 q 1179 867 1143 864 l 1238 868 m 521 994 q 477 1010 493 994 q 461 1053 461 1025 q 477 1094 461 1079 q 521 1110 493 1110 q 563 1094 547 1110 q 578 1053 578 1079 q 563 1010 578 1025 q 521 994 547 994 m 735 994 q 691 1010 707 994 q 675 1053 675 1025 q 691 1094 675 1079 q 735 1108 707 1108 q 776 1094 761 1108 q 792 1053 792 1079 q 776 1010 792 1025 q 735 994 761 994 z "},"Ẁ":{"ha":1242,"x_min":-1,"x_max":1244,"o":"m 1238 868 q 1244 860 1244 868 q 1238 851 1244 851 q 1160 829 1192 851 q 1106 744 1128 807 l 824 1 q 808 -4 822 -4 q 793 1 794 -4 l 622 396 l 474 1 q 457 -4 472 -4 q 440 1 444 -4 l 115 753 q 68 829 93 807 q 3 851 43 851 q -2 860 -1 851 q 3 868 -3 868 l 61 867 q 119 864 103 864 q 211 867 158 864 l 267 868 q 272 860 272 868 q 267 851 272 851 q 212 842 231 851 q 193 807 193 832 q 203 767 193 790 l 489 114 l 606 433 l 467 753 q 419 830 443 808 q 357 851 396 851 q 351 860 351 851 q 357 868 351 868 l 411 867 q 471 864 453 864 q 538 867 499 864 l 575 868 q 582 860 582 868 q 575 851 582 851 q 542 848 551 851 q 533 832 533 844 q 556 767 533 815 l 656 536 l 735 751 q 750 811 750 790 q 689 851 750 851 q 684 860 685 851 q 689 868 683 868 l 725 867 q 779 864 756 864 q 839 867 803 864 l 893 868 q 899 860 899 868 q 894 851 900 851 q 820 829 850 851 q 767 744 790 807 l 672 497 l 839 114 l 1074 751 q 1083 796 1083 775 q 1059 838 1083 824 q 983 851 1035 851 q 978 860 978 851 q 982 868 978 868 l 1038 867 q 1118 864 1082 864 q 1179 867 1143 864 l 1238 868 m 760 946 q 626 1003 690 979 q 482 1050 563 1028 q 491 1064 469 1053 q 542 1084 513 1075 q 579 1089 572 1093 q 767 961 683 1011 q 771 956 771 960 q 767 948 771 951 q 760 946 764 944 z "},"X":{"ha":869,"x_min":15,"x_max":854,"o":"m 849 17 q 854 8 854 17 q 849 0 854 0 q 792 1 813 0 l 719 3 l 614 1 q 549 0 589 0 q 542 8 542 0 q 549 17 542 17 q 602 23 585 17 q 619 44 619 29 q 610 71 619 56 l 408 397 l 231 132 q 203 63 203 90 q 282 17 203 17 q 286 8 286 17 q 282 0 286 0 q 219 1 242 0 l 126 3 l 71 1 q 21 0 54 0 q 15 8 15 0 q 21 17 15 17 q 113 47 65 17 q 200 138 160 78 l 392 422 l 188 753 q 123 829 156 807 q 44 851 90 851 q 40 860 40 851 q 44 868 40 868 q 94 865 61 868 l 143 864 q 256 867 189 864 l 324 868 q 331 860 331 868 q 324 851 331 851 q 257 825 257 851 q 268 796 257 814 l 456 494 l 608 726 q 639 804 639 774 q 564 851 639 851 q 558 860 558 851 q 563 868 557 868 l 625 867 q 719 864 681 864 q 772 867 742 864 l 822 868 q 829 860 829 868 q 822 851 829 851 q 728 817 776 851 q 640 719 681 783 l 469 471 l 690 115 q 759 39 724 61 q 849 17 794 17 z "},"Y":{"ha":792,"x_min":-12,"x_max":801,"o":"m 796 868 q 801 860 801 868 q 796 851 801 851 q 619 721 700 851 l 446 432 l 446 113 q 455 50 447 69 q 485 24 463 31 q 558 17 507 17 q 565 8 565 17 q 558 0 565 0 q 493 1 517 0 l 401 3 l 306 1 q 240 0 282 0 q 235 8 235 0 q 240 17 235 17 q 316 24 292 17 q 349 51 340 31 q 357 113 358 71 l 356 417 l 133 753 q 69 829 100 807 q -7 851 38 851 q -12 860 -12 851 q -7 868 -12 868 l 46 867 q 99 864 82 864 q 203 867 139 864 l 271 868 q 278 860 278 868 q 271 851 278 851 q 218 846 235 851 q 201 828 201 840 q 215 796 201 815 l 433 460 l 589 728 q 614 801 614 772 q 542 851 614 851 q 536 860 536 851 q 542 868 536 868 l 604 867 q 694 864 657 864 q 749 867 715 864 l 796 868 z "},"Ý":{"ha":792,"x_min":-12,"x_max":801,"o":"m 796 868 q 801 860 801 868 q 796 851 801 851 q 619 721 700 851 l 446 432 l 446 113 q 455 50 447 69 q 485 24 463 31 q 558 17 507 17 q 565 8 565 17 q 558 0 565 0 q 493 1 517 0 l 401 3 l 306 1 q 240 0 282 0 q 235 8 235 0 q 240 17 235 17 q 316 24 292 17 q 349 51 340 31 q 357 113 358 71 l 356 417 l 133 753 q 69 829 100 807 q -7 851 38 851 q -12 860 -12 851 q -7 868 -12 868 l 46 867 q 99 864 82 864 q 203 867 139 864 l 271 868 q 278 860 278 868 q 271 851 278 851 q 218 846 235 851 q 201 828 201 840 q 215 796 201 815 l 433 460 l 589 728 q 614 801 614 772 q 542 851 614 851 q 536 860 536 851 q 542 868 536 868 l 604 867 q 694 864 657 864 q 749 867 715 864 l 796 868 m 317 942 q 308 948 311 942 q 310 957 306 954 q 447 1046 360 985 q 484 1069 468 1058 q 511 1089 500 1081 q 546 1084 517 1093 q 597 1064 575 1075 q 608 1050 618 1053 q 319 943 460 1011 l 317 942 z "},"Ŷ":{"ha":792,"x_min":-12,"x_max":801,"o":"m 796 868 q 801 860 801 868 q 796 851 801 851 q 619 721 700 851 l 446 432 l 446 113 q 455 50 447 69 q 485 24 463 31 q 558 17 507 17 q 565 8 565 17 q 558 0 565 0 q 493 1 517 0 l 401 3 l 306 1 q 240 0 282 0 q 235 8 235 0 q 240 17 235 17 q 316 24 292 17 q 349 51 340 31 q 357 113 358 71 l 356 417 l 133 753 q 69 829 100 807 q -7 851 38 851 q -12 860 -12 851 q -7 868 -12 868 l 46 867 q 99 864 82 864 q 203 867 139 864 l 271 868 q 278 860 278 868 q 271 851 278 851 q 218 846 235 851 q 201 828 201 840 q 215 796 201 815 l 433 460 l 589 728 q 614 801 614 772 q 542 851 614 851 q 536 860 536 851 q 542 868 536 868 l 604 867 q 694 864 657 864 q 749 867 715 864 l 796 868 m 274 917 q 266 920 269 917 q 265 926 263 924 l 389 1061 q 401 1068 393 1068 q 415 1061 408 1068 l 542 926 l 543 924 q 540 917 543 919 q 533 917 536 915 l 400 996 l 275 917 l 274 917 z "},"Ÿ":{"ha":792,"x_min":-12,"x_max":801,"o":"m 796 868 q 801 860 801 868 q 796 851 801 851 q 619 721 700 851 l 446 432 l 446 113 q 455 50 447 69 q 485 24 463 31 q 558 17 507 17 q 565 8 565 17 q 558 0 565 0 q 493 1 517 0 l 401 3 l 306 1 q 240 0 282 0 q 235 8 235 0 q 240 17 235 17 q 316 24 292 17 q 349 51 340 31 q 357 113 358 71 l 356 417 l 133 753 q 69 829 100 807 q -7 851 38 851 q -12 860 -12 851 q -7 868 -12 868 l 46 867 q 99 864 82 864 q 203 867 139 864 l 271 868 q 278 860 278 868 q 271 851 278 851 q 218 846 235 851 q 201 828 201 840 q 215 796 201 815 l 433 460 l 589 728 q 614 801 614 772 q 542 851 614 851 q 536 860 536 851 q 542 868 536 868 l 604 867 q 694 864 657 864 q 749 867 715 864 l 796 868 m 296 994 q 252 1010 268 994 q 236 1053 236 1025 q 252 1094 236 1079 q 296 1110 268 1110 q 338 1094 322 1110 q 353 1053 353 1079 q 338 1010 353 1025 q 296 994 322 994 m 510 994 q 466 1010 482 994 q 450 1053 450 1025 q 466 1094 450 1079 q 510 1108 482 1108 q 551 1094 536 1108 q 567 1053 567 1079 q 551 1010 567 1025 q 510 994 536 994 z "},"Ẏ":{"ha":792,"x_min":-12,"x_max":801,"o":"m 796 868 q 801 860 801 868 q 796 851 801 851 q 619 721 700 851 l 446 432 l 446 113 q 455 50 447 69 q 485 24 463 31 q 558 17 507 17 q 565 8 565 17 q 558 0 565 0 q 493 1 517 0 l 401 3 l 306 1 q 240 0 282 0 q 235 8 235 0 q 240 17 235 17 q 316 24 292 17 q 349 51 340 31 q 357 113 358 71 l 356 417 l 133 753 q 69 829 100 807 q -7 851 38 851 q -12 860 -12 851 q -7 868 -12 868 l 46 867 q 99 864 82 864 q 203 867 139 864 l 271 868 q 278 860 278 868 q 271 851 278 851 q 218 846 235 851 q 201 828 201 840 q 215 796 201 815 l 433 460 l 589 728 q 614 801 614 772 q 542 851 614 851 q 536 860 536 851 q 542 868 536 868 l 604 867 q 694 864 657 864 q 749 867 715 864 l 796 868 m 401 983 q 357 999 374 983 q 340 1043 340 1015 q 357 1085 340 1069 q 401 1101 374 1101 q 445 1086 429 1101 q 461 1043 461 1071 q 445 999 461 1015 q 401 983 429 983 z "},"Ỵ":{"ha":792,"x_min":-12,"x_max":801,"o":"m 796 868 q 801 860 801 868 q 796 851 801 851 q 619 721 700 851 l 446 432 l 446 113 q 455 50 447 69 q 485 24 463 31 q 558 17 507 17 q 565 8 565 17 q 558 0 565 0 q 493 1 517 0 l 401 3 l 306 1 q 240 0 282 0 q 235 8 235 0 q 240 17 235 17 q 316 24 292 17 q 349 51 340 31 q 357 113 358 71 l 356 417 l 133 753 q 69 829 100 807 q -7 851 38 851 q -12 860 -12 851 q -7 868 -12 868 l 46 867 q 99 864 82 864 q 203 867 139 864 l 271 868 q 278 860 278 868 q 271 851 278 851 q 218 846 235 851 q 201 828 201 840 q 215 796 201 815 l 433 460 l 589 728 q 614 801 614 772 q 542 851 614 851 q 536 860 536 851 q 542 868 536 868 l 604 867 q 694 864 657 864 q 749 867 715 864 l 796 868 m 410 -264 q 365 -248 381 -264 q 349 -203 349 -232 q 365 -161 349 -176 q 410 -146 381 -146 q 453 -161 438 -146 q 468 -203 468 -176 q 453 -248 468 -232 q 410 -264 438 -264 z "},"Ỳ":{"ha":792,"x_min":-12,"x_max":801,"o":"m 796 868 q 801 860 801 868 q 796 851 801 851 q 619 721 700 851 l 446 432 l 446 113 q 455 50 447 69 q 485 24 463 31 q 558 17 507 17 q 565 8 565 17 q 558 0 565 0 q 493 1 517 0 l 401 3 l 306 1 q 240 0 282 0 q 235 8 235 0 q 240 17 235 17 q 316 24 292 17 q 349 51 340 31 q 357 113 358 71 l 356 417 l 133 753 q 69 829 100 807 q -7 851 38 851 q -12 860 -12 851 q -7 868 -12 868 l 46 867 q 99 864 82 864 q 203 867 139 864 l 271 868 q 278 860 278 868 q 271 851 278 851 q 218 846 235 851 q 201 828 201 840 q 215 796 201 815 l 433 460 l 589 728 q 614 801 614 772 q 542 851 614 851 q 536 860 536 851 q 542 868 536 868 l 604 867 q 694 864 657 864 q 749 867 715 864 l 796 868 m 535 946 q 401 1003 465 979 q 257 1050 338 1028 q 266 1064 244 1053 q 317 1084 288 1075 q 354 1089 347 1093 q 542 961 458 1011 q 546 956 546 960 q 542 948 546 951 q 535 946 539 944 z "},"Ỷ":{"ha":792,"x_min":-12,"x_max":801,"o":"m 796 868 q 801 860 801 868 q 796 851 801 851 q 619 721 700 851 l 446 432 l 446 113 q 455 50 447 69 q 485 24 463 31 q 558 17 507 17 q 565 8 565 17 q 558 0 565 0 q 493 1 517 0 l 401 3 l 306 1 q 240 0 282 0 q 235 8 235 0 q 240 17 235 17 q 316 24 292 17 q 349 51 340 31 q 357 113 358 71 l 356 417 l 133 753 q 69 829 100 807 q -7 851 38 851 q -12 860 -12 851 q -7 868 -12 868 l 46 867 q 99 864 82 864 q 203 867 139 864 l 271 868 q 278 860 278 868 q 271 851 278 851 q 218 846 235 851 q 201 828 201 840 q 215 796 201 815 l 433 460 l 589 728 q 614 801 614 772 q 542 851 614 851 q 536 860 536 851 q 542 868 536 868 l 604 867 q 694 864 657 864 q 749 867 715 864 l 796 868 m 408 903 q 402 899 411 900 q 392 903 393 899 q 386 935 386 918 q 392 969 386 954 q 413 1011 399 985 q 431 1049 425 1035 q 438 1078 438 1063 q 420 1121 438 1106 q 378 1136 403 1136 q 339 1128 356 1136 l 336 1126 q 329 1131 332 1126 q 331 1139 326 1136 q 419 1168 372 1168 q 485 1147 461 1168 q 510 1094 510 1125 q 497 1051 510 1069 q 456 1000 485 1032 q 419 958 432 976 q 407 918 407 939 q 408 903 407 908 z "}}}
